SplineFontDB: 3.2
FontName: CaviarDreams
FullName: Caviar Dreams
FamilyName: Caviar Dreams
Weight: Book
Copyright: Caviar Dreams (c) Lauren Thompson  2010. All rights reserved. 
Version: 4.00 July 10, 2012
ItalicAngle: 0
UnderlinePosition: -292
UnderlineWidth: 150
Ascent: 1638
Descent: 410
InvalidEm: 0
sfntRevision: 0x00040000
LayerCount: 2
Layer: 0 1 "Arri+AOgA-re" 1
Layer: 1 1 "Avant" 0
XUID: [1021 715 1257344226 8110]
StyleMap: 0x0040
FSType: 8
OS2Version: 3
OS2_WeightWidthSlopeOnly: 0
OS2_UseTypoMetrics: 0
CreationTime: 1232082713
ModificationTime: 1341954938
PfmFamily: 17
TTFWeight: 400
TTFWidth: 5
LineGap: 0
VLineGap: 0
Panose: 2 11 4 2 2 2 4 2 5 4
OS2TypoAscent: 1600
OS2TypoAOffset: 0
OS2TypoDescent: -375
OS2TypoDOffset: 0
OS2TypoLinegap: 205
OS2WinAscent: 2005
OS2WinAOffset: 0
OS2WinDescent: 375
OS2WinDOffset: 0
HheadAscent: 2005
HheadAOffset: 0
HheadDescent: -375
HheadDOffset: 0
OS2SubXSize: 1434
OS2SubYSize: 1331
OS2SubXOff: 0
OS2SubYOff: 283
OS2SupXSize: 1434
OS2SupYSize: 1331
OS2SupXOff: 0
OS2SupYOff: 977
OS2StrikeYSize: 102
OS2StrikeYPos: 530
OS2CapHeight: 1600
OS2XHeight: 982
OS2FamilyClass: 2052
OS2Vendor: 'HL  '
OS2CodePages: 2000019f.4f010000
OS2UnicodeRanges: a00002af.500000eb.00000000.00000000
Lookup: 258 0 0 "'kern' Cr+AOkA-nage horizontal dans Latin lookup 0" { "sous-table 'kern' Cr+AOkA-nage horizontal dans Latin lookup 0"  } ['kern' ('DFLT' <'dflt' > 'latn' <'dflt' > ) ]
DEI: 91125
ShortTable: maxp 16
  1
  0
  578
  646
  31
  76
  4
  0
  0
  0
  0
  0
  0
  0
  3
  2
EndShort

StartChar: .notdef
Encoding: 65536 -1 0
Width: 1835
GlyphClass: 1
Flags: W
LayerCount: 2
Fore
SplineSet
942 291 m 1,0,1
 942 313 942 313 938 313 c 2,2,-1
 917 313 l 1,3,-1
 917 281 l 1,4,-1
 936 281 l 1,5,-1
 936 291 l 1,6,-1
 942 291 l 1,0,1
1481 819 m 1,7,8
 1481 842 1481 842 1475 842 c 2,9,-1
 1454 842 l 1,10,-1
 1454 811 l 1,11,-1
 1473 811 l 1,12,-1
 1473 819 l 1,13,-1
 1481 819 l 1,7,8
1104 1268 m 0,14,15
 1112 1268 1112 1268 1118 1278 c 0,16,17
 1128 1292 1128 1292 1128 1317 c 0,18,19
 1126 1339 1126 1339 1118 1354 c 0,20,21
 1110 1364 1110 1364 1102 1364 c 0,22,23
 1092 1364 1092 1364 1085 1354 c 0,24,25
 1075 1341 1075 1341 1075 1317 c 0,26,27
 1077 1292 1077 1292 1085 1280 c 0,28,29
 1094 1268 1094 1268 1104 1268 c 0,14,15
1456 930 m 0,30,31
 1468 930 1468 930 1475 940 c 0,32,33
 1483 952 1483 952 1483 979 c 0,34,35
 1483 1001 1483 1001 1473 1016 c 0,36,37
 1466 1026 1466 1026 1456 1026 c 256,38,39
 1446 1026 1446 1026 1440 1016 c 0,40,41
 1432 1001 1432 1001 1432 979 c 0,42,43
 1432 954 1432 954 1442 940 c 0,44,45
 1448 930 1448 930 1456 930 c 0,30,31
377 557 m 0,46,47
 389 557 389 557 395 567 c 0,48,49
 403 582 403 582 403 606 c 0,50,51
 403 631 403 631 393 643 c 0,52,53
 387 653 387 653 377 653 c 0,54,55
 365 653 365 653 358 643 c 0,56,57
 350 633 350 633 350 606 c 0,58,59
 350 582 350 582 360 569 c 0,60,61
 367 557 367 557 377 557 c 0,46,47
754 229 m 0,62,63
 764 244 764 244 764 268 c 0,64,65
 764 293 764 293 756 305 c 0,66,67
 748 315 748 315 737 315 c 0,68,69
 727 315 727 315 719 305 c 0,70,71
 711 293 711 293 711 268 c 0,72,73
 711 242 711 242 719 229 c 0,74,75
 725 219 725 219 735 219 c 256,76,77
 745 219 745 219 754 229 c 0,62,63
401 811 m 1,78,79
 401 831 401 831 395 831 c 2,80,-1
 375 831 l 1,81,-1
 375 801 l 1,82,-1
 393 801 l 1,83,-1
 393 811 l 1,84,-1
 401 811 l 1,78,79
958 291 m 1,85,-1
 958 250 l 1,86,-1
 936 250 l 1,87,-1
 936 260 l 1,88,-1
 917 260 l 1,89,-1
 917 225 l 2,90,91
 917 217 917 217 932 217 c 1,92,-1
 932 201 l 1,93,-1
 868 201 l 1,94,-1
 868 217 l 1,95,96
 881 217 881 217 881 221 c 2,97,-1
 881 313 l 2,98,99
 881 317 881 317 868 317 c 1,100,-1
 868 334 l 1,101,-1
 969 334 l 1,102,-1
 969 291 l 1,103,-1
 958 291 l 1,85,-1
1294 315 m 1,104,-1
 1286 315 l 1,105,-1
 1286 334 l 1,106,-1
 1335 334 l 1,107,-1
 1335 315 l 1,108,109
 1325 315 1325 315 1323 309 c 2,110,-1
 1294 258 l 1,111,-1
 1294 221 l 2,112,113
 1294 217 1294 217 1307 217 c 1,114,-1
 1307 201 l 1,115,-1
 1247 201 l 1,116,-1
 1247 217 l 1,117,118
 1260 217 1260 217 1260 221 c 2,119,-1
 1260 258 l 1,120,-1
 1231 309 l 2,121,122
 1227 315 1227 315 1219 315 c 1,123,-1
 1219 334 l 1,124,-1
 1276 334 l 1,125,-1
 1276 315 l 1,126,-1
 1268 315 l 1,127,-1
 1280 289 l 1,128,-1
 1294 315 l 1,104,-1
580 1366 m 1,129,-1
 573 1366 l 1,130,-1
 573 1384 l 1,131,-1
 618 1384 l 1,132,-1
 618 1366 l 1,133,134
 610 1366 610 1366 606 1360 c 2,135,-1
 582 1307 l 1,136,-1
 582 1270 l 2,137,138
 582 1266 582 1266 594 1266 c 1,139,-1
 594 1249 l 1,140,-1
 530 1249 l 1,141,-1
 530 1266 l 1,142,143
 545 1266 545 1266 545 1270 c 2,144,-1
 545 1307 l 1,145,-1
 514 1360 l 2,146,147
 512 1366 512 1366 506 1366 c 1,148,-1
 506 1384 l 1,149,-1
 559 1384 l 1,150,-1
 559 1366 l 1,151,-1
 551 1366 l 1,152,-1
 567 1337 l 1,153,-1
 580 1366 l 1,129,-1
395 1196 m 1,154,-1
 387 1196 l 1,155,-1
 387 1214 l 1,156,-1
 434 1214 l 1,157,-1
 434 1196 l 1,158,159
 426 1196 426 1196 424 1190 c 2,160,-1
 395 1139 l 1,161,-1
 395 1102 l 2,162,163
 395 1098 395 1098 408 1098 c 1,164,-1
 408 1079 l 1,165,-1
 346 1079 l 1,166,-1
 346 1098 l 1,167,168
 358 1098 358 1098 358 1102 c 2,169,-1
 358 1139 l 1,170,-1
 332 1190 l 2,171,172
 328 1196 328 1196 319 1196 c 1,173,-1
 319 1214 l 1,174,-1
 375 1214 l 1,175,-1
 375 1196 l 1,176,-1
 367 1196 l 1,177,-1
 381 1167 l 1,178,-1
 395 1196 l 1,154,-1
1497 819 m 1,179,-1
 1497 780 l 1,180,-1
 1473 780 l 1,181,-1
 1473 788 l 1,182,-1
 1454 788 l 1,183,-1
 1454 756 l 2,184,185
 1454 748 1454 748 1468 748 c 1,186,-1
 1468 729 l 1,187,-1
 1407 729 l 1,188,-1
 1407 748 l 1,189,190
 1419 748 1419 748 1419 752 c 2,191,-1
 1419 842 l 2,192,193
 1419 846 1419 846 1407 846 c 1,194,-1
 1407 864 l 1,195,-1
 1507 864 l 1,196,-1
 1507 819 l 1,197,-1
 1497 819 l 1,179,-1
1475 485 m 1,198,-1
 1466 485 l 1,199,-1
 1466 504 l 1,200,-1
 1516 504 l 1,201,-1
 1516 485 l 1,202,203
 1505 485 1505 485 1503 479 c 2,204,-1
 1475 428 l 1,205,-1
 1475 391 l 2,206,207
 1475 387 1475 387 1487 387 c 1,208,-1
 1487 371 l 1,209,-1
 1427 371 l 1,210,-1
 1427 387 l 1,211,212
 1440 387 1440 387 1440 391 c 2,213,-1
 1440 428 l 1,214,-1
 1411 479 l 2,215,216
 1407 485 1407 485 1399 485 c 1,217,-1
 1399 504 l 1,218,-1
 1454 504 l 1,219,-1
 1454 485 l 1,220,-1
 1448 485 l 1,221,-1
 1460 459 l 1,222,-1
 1475 485 l 1,198,-1
350 1319 m 1,223,-1
 350 1272 l 2,224,225
 350 1268 350 1268 369 1268 c 1,226,-1
 369 1249 l 1,227,-1
 313 1249 l 1,228,-1
 313 1268 l 1,229,230
 324 1268 324 1268 324 1272 c 2,231,-1
 324 1354 l 2,232,233
 324 1366 324 1366 313 1366 c 1,234,-1
 313 1384 l 1,235,-1
 342 1384 l 1,236,-1
 401 1315 l 1,237,-1
 401 1362 l 2,238,239
 401 1366 401 1366 385 1366 c 1,240,-1
 385 1384 l 1,241,-1
 440 1384 l 1,242,-1
 440 1366 l 1,243,244
 430 1366 430 1366 430 1362 c 2,245,-1
 430 1249 l 1,246,-1
 412 1249 l 1,247,-1
 350 1319 l 1,223,-1
696 1384 m 1,248,-1
 739 1298 l 1,249,-1
 774 1384 l 1,250,-1
 815 1384 l 1,251,-1
 815 1366 l 1,252,253
 805 1366 805 1366 805 1354 c 2,254,-1
 805 1272 l 2,255,256
 805 1268 805 1268 815 1268 c 1,257,-1
 815 1249 l 1,258,-1
 762 1249 l 1,259,-1
 762 1268 l 1,260,261
 768 1268 768 1268 768 1270 c 2,262,-1
 768 1300 l 1,263,-1
 748 1249 l 1,264,-1
 723 1249 l 1,265,-1
 696 1303 l 1,266,-1
 696 1272 l 2,267,268
 696 1268 696 1268 705 1268 c 1,269,-1
 705 1249 l 1,270,-1
 659 1249 l 1,271,-1
 659 1268 l 1,272,273
 668 1268 668 1268 668 1272 c 2,274,-1
 668 1354 l 2,275,276
 668 1366 668 1366 659 1366 c 1,277,-1
 659 1384 l 1,278,-1
 696 1384 l 1,248,-1
1167 1317 m 256,279,280
 1167 1288 1167 1288 1151 1268 c 0,281,282
 1135 1247 1135 1247 1104 1247 c 0,283,284
 1069 1247 1069 1247 1053 1268 c 0,285,286
 1036 1288 1036 1288 1036 1317 c 256,287,288
 1036 1346 1036 1346 1053 1364 c 0,289,290
 1069 1384 1069 1384 1102 1384 c 256,291,292
 1135 1384 1135 1384 1151 1364 c 0,293,294
 1167 1346 1167 1346 1167 1317 c 256,279,280
1251 1319 m 1,295,-1
 1251 1272 l 2,296,297
 1251 1268 1251 1268 1270 1268 c 1,298,-1
 1270 1249 l 1,299,-1
 1212 1249 l 1,300,-1
 1212 1268 l 1,301,302
 1221 1268 1221 1268 1221 1272 c 2,303,-1
 1221 1354 l 2,304,305
 1221 1366 1221 1366 1212 1366 c 1,306,-1
 1212 1384 l 1,307,-1
 1243 1384 l 1,308,-1
 1300 1315 l 1,309,-1
 1300 1362 l 2,310,311
 1300 1366 1300 1366 1284 1366 c 1,312,-1
 1284 1384 l 1,313,-1
 1339 1384 l 1,314,-1
 1339 1366 l 1,315,316
 1331 1366 1331 1366 1331 1362 c 2,317,-1
 1331 1249 l 1,318,-1
 1309 1249 l 1,319,-1
 1251 1319 l 1,295,-1
1511 1384 m 1,320,-1
 1511 1339 l 1,321,-1
 1485 1339 l 1,322,323
 1485 1362 1485 1362 1479 1362 c 2,324,-1
 1475 1362 l 1,325,-1
 1475 1272 l 2,326,327
 1475 1268 1475 1268 1487 1268 c 1,328,-1
 1487 1249 l 1,329,-1
 1427 1249 l 1,330,-1
 1427 1268 l 1,331,332
 1440 1268 1440 1268 1440 1272 c 2,333,-1
 1440 1362 l 1,334,-1
 1436 1362 l 2,335,336
 1429 1362 1429 1362 1429 1339 c 1,337,-1
 1403 1339 l 1,338,-1
 1403 1384 l 1,339,-1
 1511 1384 l 1,320,-1
917 1309 m 1,340,-1
 917 1276 l 2,341,342
 917 1268 917 1268 932 1268 c 1,343,-1
 932 1249 l 1,344,-1
 868 1249 l 1,345,-1
 868 1268 l 1,346,347
 881 1268 881 1268 881 1272 c 2,348,-1
 881 1362 l 2,349,350
 881 1366 881 1366 868 1366 c 1,351,-1
 868 1384 l 1,352,-1
 969 1384 l 1,353,-1
 969 1339 l 1,354,-1
 942 1339 l 1,355,356
 942 1362 942 1362 938 1362 c 2,357,-1
 917 1362 l 1,358,-1
 917 1329 l 1,359,-1
 936 1329 l 1,360,-1
 936 1337 l 1,361,-1
 958 1337 l 1,362,-1
 958 1300 l 1,363,-1
 936 1300 l 1,364,-1
 936 1309 l 1,365,-1
 917 1309 l 1,340,-1
1432 268 m 1,366,-1
 1432 221 l 2,367,368
 1432 217 1432 217 1450 217 c 1,369,-1
 1450 201 l 1,370,-1
 1393 201 l 1,371,-1
 1393 217 l 1,372,373
 1403 217 1403 217 1403 221 c 2,374,-1
 1403 303 l 2,375,376
 1403 315 1403 315 1393 315 c 1,377,-1
 1393 334 l 1,378,-1
 1423 334 l 1,379,-1
 1481 264 l 1,380,-1
 1481 311 l 2,381,382
 1481 315 1481 315 1464 315 c 1,383,-1
 1464 334 l 1,384,-1
 1522 334 l 1,385,-1
 1522 315 l 1,386,387
 1511 315 1511 315 1511 311 c 2,388,-1
 1511 201 l 1,389,-1
 1491 201 l 1,390,-1
 1432 268 l 1,366,-1
1417 684 m 1,391,-1
 1458 598 l 1,392,-1
 1495 684 l 1,393,-1
 1536 684 l 1,394,-1
 1536 666 l 1,395,396
 1528 666 1528 666 1528 653 c 2,397,-1
 1528 571 l 2,398,399
 1528 567 1528 567 1536 567 c 1,400,-1
 1536 551 l 1,401,-1
 1481 551 l 1,402,-1
 1481 567 l 1,403,404
 1491 567 1491 567 1491 569 c 2,405,-1
 1491 598 l 1,406,-1
 1466 551 l 1,407,-1
 1444 551 l 1,408,-1
 1417 602 l 1,409,-1
 1417 571 l 2,410,411
 1417 567 1417 567 1425 567 c 1,412,-1
 1425 551 l 1,413,-1
 1378 551 l 1,414,-1
 1378 567 l 1,415,416
 1386 567 1386 567 1386 571 c 2,417,-1
 1386 653 l 2,418,419
 1386 666 1386 666 1378 666 c 1,420,-1
 1378 684 l 1,421,-1
 1417 684 l 1,391,-1
1522 977 m 0,422,423
 1522 948 1522 948 1507 930 c 0,424,425
 1491 909 1491 909 1456 909 c 0,426,427
 1423 909 1423 909 1409 928 c 0,428,429
 1393 948 1393 948 1393 977 c 0,430,431
 1393 1008 1393 1008 1407 1026 c 0,432,433
 1423 1047 1423 1047 1454 1047 c 0,434,435
 1491 1047 1491 1047 1507 1026 c 0,436,437
 1522 1008 1522 1008 1522 977 c 0,422,423
1432 1157 m 1,438,-1
 1432 1112 l 2,439,440
 1432 1108 1432 1108 1450 1108 c 1,441,-1
 1450 1090 l 1,442,-1
 1393 1090 l 1,443,-1
 1393 1108 l 1,444,445
 1403 1108 1403 1108 1403 1112 c 2,446,-1
 1403 1194 l 2,447,448
 1403 1206 1403 1206 1393 1206 c 1,449,-1
 1393 1225 l 1,450,-1
 1423 1225 l 1,451,-1
 1481 1153 l 1,452,-1
 1481 1202 l 2,453,454
 1481 1206 1481 1206 1464 1206 c 1,455,-1
 1464 1225 l 1,456,-1
 1522 1225 l 1,457,-1
 1522 1206 l 1,458,459
 1511 1206 1511 1206 1511 1202 c 2,460,-1
 1511 1090 l 1,461,-1
 1491 1090 l 1,462,-1
 1432 1157 l 1,438,-1
430 336 m 1,463,-1
 430 293 l 1,464,-1
 405 293 l 1,465,466
 405 313 405 313 399 313 c 2,467,-1
 395 313 l 1,468,-1
 395 223 l 2,469,470
 395 219 395 219 408 219 c 1,471,-1
 408 203 l 1,472,-1
 346 203 l 1,473,-1
 346 219 l 1,474,475
 358 219 358 219 358 223 c 2,476,-1
 358 313 l 1,477,-1
 354 313 l 2,478,479
 348 313 348 313 348 293 c 1,480,-1
 324 293 l 1,481,-1
 324 336 l 1,482,-1
 430 336 l 1,463,-1
338 1034 m 1,483,-1
 379 950 l 1,484,-1
 416 1034 l 1,485,-1
 455 1034 l 1,486,-1
 455 1018 l 1,487,488
 446 1018 446 1018 446 1004 c 2,489,-1
 446 922 l 2,490,491
 446 918 446 918 455 918 c 1,492,-1
 455 899 l 1,493,-1
 401 899 l 1,494,-1
 401 918 l 1,495,496
 412 918 412 918 412 922 c 2,497,-1
 412 950 l 1,498,-1
 387 899 l 1,499,-1
 362 899 l 1,500,-1
 338 952 l 1,501,-1
 338 922 l 2,502,503
 338 918 338 918 344 918 c 1,504,-1
 344 899 l 1,505,-1
 299 899 l 1,506,-1
 299 918 l 1,507,508
 307 918 307 918 307 922 c 2,509,-1
 307 1004 l 2,510,511
 307 1018 307 1018 299 1018 c 1,512,-1
 299 1034 l 1,513,-1
 338 1034 l 1,483,-1
440 606 m 256,514,515
 440 575 440 575 428 557 c 0,516,517
 412 539 412 539 377 539 c 256,518,519
 342 539 342 539 330 557 c 0,520,521
 313 575 313 575 313 606 c 256,522,523
 313 637 313 637 328 653 c 0,524,525
 342 674 342 674 375 674 c 0,526,527
 412 674 412 674 428 653 c 0,528,529
 440 637 440 637 440 606 c 256,514,515
350 428 m 1,530,-1
 350 383 l 2,531,532
 350 379 350 379 369 379 c 1,533,-1
 369 360 l 1,534,-1
 313 360 l 1,535,-1
 313 379 l 1,536,537
 324 379 324 379 324 383 c 2,538,-1
 324 465 l 2,539,540
 324 475 324 475 313 475 c 1,541,-1
 313 494 l 1,542,-1
 342 494 l 1,543,-1
 401 424 l 1,544,-1
 401 471 l 2,545,546
 401 475 401 475 385 475 c 1,547,-1
 385 494 l 1,548,-1
 440 494 l 1,549,-1
 440 475 l 1,550,551
 430 475 430 475 430 471 c 2,552,-1
 430 360 l 1,553,-1
 412 360 l 1,554,-1
 350 428 l 1,530,-1
1061 334 m 1,555,-1
 1104 250 l 1,556,-1
 1141 334 l 1,557,-1
 1180 334 l 1,558,-1
 1180 317 l 1,559,560
 1171 317 1171 317 1171 303 c 2,561,-1
 1171 221 l 2,562,563
 1171 217 1171 217 1180 217 c 1,564,-1
 1180 201 l 1,565,-1
 1126 201 l 1,566,-1
 1126 217 l 1,567,568
 1135 217 1135 217 1135 221 c 2,569,-1
 1135 250 l 1,570,-1
 1112 201 l 1,571,-1
 1090 201 l 1,572,-1
 1063 252 l 1,573,-1
 1063 221 l 2,574,575
 1063 217 1063 217 1071 217 c 1,576,-1
 1071 201 l 1,577,-1
 1024 201 l 1,578,-1
 1024 217 l 1,579,580
 1032 217 1032 217 1032 221 c 2,581,-1
 1032 303 l 2,582,583
 1032 317 1032 317 1024 317 c 1,584,-1
 1024 334 l 1,585,-1
 1061 334 l 1,555,-1
686 315 m 0,586,587
 702 336 702 336 737 336 c 0,588,589
 768 336 768 336 786 315 c 0,590,591
 801 299 801 299 801 266 c 0,592,593
 801 238 801 238 784 217 c 0,594,595
 768 201 768 201 735 201 c 256,596,597
 702 201 702 201 686 219 c 0,598,599
 672 238 672 238 672 266 c 0,600,601
 672 299 672 299 686 315 c 0,586,587
537 268 m 1,602,-1
 537 221 l 2,603,604
 537 217 537 217 555 217 c 1,605,-1
 555 201 l 1,606,-1
 500 201 l 1,607,-1
 500 217 l 1,608,609
 508 217 508 217 508 221 c 2,610,-1
 508 303 l 2,611,612
 508 317 508 317 500 317 c 1,613,-1
 500 334 l 1,614,-1
 528 334 l 1,615,-1
 588 264 l 1,616,-1
 588 313 l 2,617,618
 588 317 588 317 569 317 c 1,619,-1
 569 334 l 1,620,-1
 625 334 l 1,621,-1
 625 317 l 1,622,623
 614 317 614 317 614 313 c 2,624,-1
 614 201 l 1,625,-1
 596 201 l 1,626,-1
 537 268 l 1,602,-1
418 811 m 1,627,-1
 418 770 l 1,628,-1
 393 770 l 1,629,-1
 393 778 l 1,630,-1
 375 778 l 1,631,-1
 375 745 l 2,632,633
 375 737 375 737 389 737 c 1,634,-1
 389 721 l 1,635,-1
 328 721 l 1,636,-1
 328 737 l 1,637,638
 340 737 340 737 340 741 c 2,639,-1
 340 831 l 2,640,641
 340 836 340 836 328 836 c 1,642,-1
 328 854 l 1,643,-1
 428 854 l 1,644,-1
 428 811 l 1,645,-1
 418 811 l 1,627,-1
EndSplineSet
EndChar

StartChar: exclam
Encoding: 33 33 4
Width: 430
GlyphClass: 1
Flags: W
LayerCount: 2
Fore
SplineSet
278.5 139 m 128,-1,1
 305 113 305 113 305 76 c 0,2,3
 305 38 305 38 278.5 12 c 128,-1,4
 252 -14 252 -14 215 -14 c 256,5,6
 178 -14 178 -14 151.5 12 c 128,-1,7
 125 38 125 38 125 76 c 0,8,9
 125 113 125 113 151.5 139 c 128,-1,10
 178 165 178 165 215 165 c 256,11,0
 252 165 252 165 278.5 139 c 128,-1,1
258 1600 m 1,12,-1
 258 276 l 1,13,-1
 168 276 l 1,14,-1
 168 1600 l 1,15,-1
 258 1600 l 1,12,-1
EndSplineSet
EndChar

StartChar: quotedbl
Encoding: 34 34 5
Width: 575
GlyphClass: 1
Flags: W
LayerCount: 2
Fore
SplineSet
125 997 m 1,0,-1
 125 1597 l 1,1,-1
 215 1597 l 1,2,-1
 215 997 l 1,3,-1
 125 997 l 1,0,-1
360 997 m 1,4,-1
 360 1597 l 1,5,-1
 450 1597 l 1,6,-1
 450 997 l 1,7,-1
 360 997 l 1,4,-1
EndSplineSet
EndChar

StartChar: numbersign
Encoding: 35 35 6
Width: 1653
GlyphClass: 1
Flags: W
LayerCount: 2
Fore
SplineSet
763 985 m 1,0,-1
 993 985 l 1,1,-1
 1104 1430 l 1,2,-1
 1194 1430 l 1,3,-1
 1083 985 l 1,4,-1
 1528 985 l 1,5,-1
 1505 895 l 1,6,-1
 1060 895 l 1,7,-1
 1003 665 l 1,8,-1
 1448 665 l 1,9,-1
 1425 575 l 1,10,-1
 980 575 l 1,11,-1
 869 130 l 1,12,-1
 779 130 l 1,13,-1
 890 575 l 1,14,-1
 660 575 l 1,15,-1
 549 130 l 1,16,-1
 459 130 l 1,17,-1
 570 575 l 1,18,-1
 125 575 l 1,19,-1
 148 665 l 1,20,-1
 593 665 l 1,21,-1
 650 895 l 1,22,-1
 205 895 l 1,23,-1
 228 985 l 1,24,-1
 673 985 l 1,25,-1
 784 1430 l 1,26,-1
 874 1430 l 1,27,-1
 763 985 l 1,0,-1
970 895 m 1,28,-1
 740 895 l 1,29,-1
 683 665 l 1,30,-1
 913 665 l 1,31,-1
 970 895 l 1,28,-1
EndSplineSet
EndChar

StartChar: dollar
Encoding: 36 36 7
Width: 1011
GlyphClass: 1
Flags: W
LayerCount: 2
Fore
SplineSet
556 856 m 1,0,-1
 556 189 l 1,1,2
 656 204 656 204 732 280 c 0,3,4
 826 374 826 374 826 508 c 0,5,6
 826 641 826 641 732 735 c 0,7,8
 658 809 658 809 556 856 c 1,0,-1
466 1413 m 1,9,10
 404 1403 404 1403 358 1356 c 0,11,12
 297 1296 297 1296 297 1210 c 256,13,14
 297 1124 297 1124 357 1064 c 0,15,16
 399 1022 399 1022 466 985 c 1,17,-1
 466 1413 l 1,9,10
466 891 m 1,18,19
 362 936 362 936 296 1003 c 0,20,21
 210 1088 210 1088 210 1210 c 0,22,23
 210 1329 210 1329 296 1415 c 0,24,25
 368 1488 368 1488 466 1499 c 1,26,-1
 466 1662 l 1,27,-1
 556 1662 l 1,28,-1
 556 1497 l 1,29,30
 644 1482 644 1482 711 1416 c 0,31,32
 758 1370 758 1370 778 1308 c 1,33,-1
 700 1277 l 1,34,35
 683 1323 683 1323 649 1357 c 0,36,37
 608 1397 608 1397 556 1410 c 1,38,-1
 556 946 l 1,39,40
 693 893 693 893 792 795 c 0,41,42
 911 676 911 676 911 508 c 0,43,44
 911 338 911 338 792 219 c 0,45,46
 691 118 691 118 556 102 c 1,47,-1
 556 -38 l 1,48,-1
 466 -38 l 1,49,-1
 466 101 l 1,50,51
 322 112 322 112 215 219 c 0,52,53
 120 315 120 315 100 445 c 1,54,-1
 182 475 l 1,55,56
 194 360 194 360 276 279 c 0,57,58
 357 198 357 198 466 187 c 1,59,-1
 466 891 l 1,18,19
EndSplineSet
EndChar

StartChar: percent
Encoding: 37 37 8
Width: 1221
GlyphClass: 1
Flags: W
LayerCount: 2
Fore
SplineSet
1107 1314 m 1,0,-1
 189 3 l 1,1,-1
 115 54 l 1,2,-1
 1033 1365 l 1,3,-1
 1107 1314 l 1,0,-1
474.5 1147.5 m 128,-1,5
 542 1080 542 1080 542 984 c 256,6,7
 542 888 542 888 474.5 820.5 c 128,-1,8
 407 753 407 753 311 753 c 256,9,10
 215 753 215 753 147.5 820.5 c 128,-1,11
 80 888 80 888 80 984 c 256,12,13
 80 1080 80 1080 147.5 1147.5 c 128,-1,14
 215 1215 215 1215 311 1215 c 256,15,4
 407 1215 407 1215 474.5 1147.5 c 128,-1,5
311 1128 m 0,16,17
 251 1128 251 1128 209 1086 c 128,-1,18
 167 1044 167 1044 167 984 c 256,19,20
 167 924 167 924 209 882 c 128,-1,21
 251 840 251 840 311 840 c 0,22,23
 370 840 370 840 412.5 882 c 128,-1,24
 455 924 455 924 455 984 c 256,25,26
 455 1044 455 1044 412.5 1086 c 128,-1,27
 370 1128 370 1128 311 1128 c 0,16,17
1074.5 547.5 m 128,-1,29
 1142 480 1142 480 1142 384 c 256,30,31
 1142 288 1142 288 1074.5 220.5 c 128,-1,32
 1007 153 1007 153 911 153 c 256,33,34
 815 153 815 153 747.5 220.5 c 128,-1,35
 680 288 680 288 680 384 c 256,36,37
 680 480 680 480 747.5 547.5 c 128,-1,38
 815 615 815 615 911 615 c 256,39,28
 1007 615 1007 615 1074.5 547.5 c 128,-1,29
911 528 m 0,40,41
 851 528 851 528 809 486 c 128,-1,42
 767 444 767 444 767 384 c 256,43,44
 767 324 767 324 809 282 c 128,-1,45
 851 240 851 240 911 240 c 0,46,47
 970 240 970 240 1012.5 282 c 128,-1,48
 1055 324 1055 324 1055 384 c 256,49,50
 1055 444 1055 444 1012.5 486 c 128,-1,51
 970 528 970 528 911 528 c 0,40,41
EndSplineSet
EndChar

StartChar: ampersand
Encoding: 38 38 9
Width: 1304
GlyphClass: 1
Flags: W
LayerCount: 2
Fore
SplineSet
915 331 m 1,0,1
 902 336 902 336 890 343 c 0,2,3
 842 370 842 370 770 445 c 1,4,5
 722 489 722 489 702 500 c 0,6,7
 680 512 680 512 658 512 c 0,8,9
 645 512 645 512 633 509 c 0,10,11
 597 499 597 499 579 467 c 0,12,13
 566 445 566 445 566 423 c 0,14,15
 566 411 566 411 570 398 c 0,16,17
 580 362 580 362 609 346 c 0,18,19
 628 336 628 336 661 336 c 0,20,21
 679 336 679 336 702 339 c 1,22,-1
 693 257 l 1,23,24
 668 250 668 250 643 250 c 0,25,26
 603 250 603 250 565 271 c 0,27,28
 505 304 505 304 486 375 c 0,29,30
 479 400 479 400 479 423 c 0,31,32
 479 467 479 467 503 509 c 0,33,34
 540 573 540 573 610 592 c 0,35,36
 635 599 635 599 659 599 c 0,37,38
 703 599 703 599 744 575 c 0,39,40
 784 553 784 553 848 486 c 1,41,42
 906 433 906 433 933 418 c 0,43,44
 963 401 963 401 995 401 c 0,45,46
 1013 401 1013 401 1031 406 c 0,47,48
 1083 420 1083 420 1110 467 c 0,49,50
 1127 498 1127 498 1127 530 c 0,51,52
 1127 547 1127 547 1122 565 c 0,53,54
 1108 616 1108 616 1062 643 c 0,55,56
 1034 659 1034 659 999 659 c 0,57,58
 974 659 974 659 945 651 c 1,59,-1
 944 740 l 1,60,61
 972 748 972 748 1000 748 c 0,62,63
 1053 748 1053 748 1104 719 c 0,64,65
 1182 675 1182 675 1206 588 c 0,66,67
 1214 558 1214 558 1214 530 c 0,68,69
 1214 475 1214 475 1185 425 c 0,70,71
 1141 347 1141 347 1053 323 c 0,72,73
 1027 316 1027 316 1003 315 c 1,74,75
 970 207 970 207 884 121 c 0,76,77
 745 -19 745 -19 549 -19 c 256,78,79
 353 -19 353 -19 214 120 c 128,-1,80
 75 259 75 259 75 456 c 0,81,82
 75 652 75 652 212 798 c 0,83,84
 306 899 306 899 456 949 c 1,85,86
 384 980 384 980 308.5 1060.5 c 128,-1,87
 233 1141 233 1141 233 1282 c 0,88,89
 233 1420 233 1420 332 1519.5 c 128,-1,90
 431 1619 431 1619 572 1619 c 0,91,92
 712 1619 712 1619 812 1520 c 0,93,94
 867 1467 867 1467 888 1401 c 1,95,-1
 807 1369 l 1,96,97
 789 1418 789 1418 748 1459 c 0,98,99
 675 1531 675 1531 572 1531 c 256,100,101
 469 1531 469 1531 396 1458.5 c 128,-1,102
 323 1386 323 1386 323 1282 c 0,103,104
 323 1179 323 1179 393.5 1104 c 128,-1,105
 464 1029 464 1029 524 1006 c 128,-1,106
 584 983 584 983 674 982 c 1,107,-1
 674 898 l 1,108,-1
 602 896 l 1,109,110
 383 855 383 855 273 735 c 128,-1,111
 163 615 163 615 163 456 c 0,112,113
 163 296 163 296 276 183 c 128,-1,114
 389 70 389 70 549 70 c 0,115,116
 708 70 708 70 821 183 c 0,117,118
 887 249 887 249 915 331 c 1,0,1
EndSplineSet
EndChar

StartChar: quotesingle
Encoding: 39 39 10
Width: 340
GlyphClass: 1
Flags: W
LayerCount: 2
Fore
SplineSet
125 997 m 1,0,-1
 125 1597 l 1,1,-1
 215 1597 l 1,2,-1
 215 997 l 1,3,-1
 125 997 l 1,0,-1
EndSplineSet
EndChar

StartChar: parenleft
Encoding: 40 40 11
Width: 703
GlyphClass: 1
Flags: W
LayerCount: 2
Fore
SplineSet
603 1628 m 1,0,1
 468 1566 468 1566 359 1429 c 0,2,3
 178 1201 178 1201 178 800 c 0,4,5
 178 398 178 398 359 170 c 0,6,7
 468 33 468 33 603 -32 c 1,8,-1
 603 -117 l 1,9,10
 435 -59 435 -59 304 106 c 0,11,12
 100 360 100 360 100 800 c 0,13,14
 100 1239 100 1239 304 1494 c 0,15,16
 435 1659 435 1659 603 1717 c 1,17,-1
 603 1628 l 1,0,1
EndSplineSet
EndChar

StartChar: parenright
Encoding: 41 41 12
Width: 703
GlyphClass: 1
Flags: W
LayerCount: 2
Fore
SplineSet
100 1717 m 1,0,1
 268 1659 268 1659 399 1494 c 0,2,3
 603 1239 603 1239 603 800 c 0,4,5
 603 360 603 360 399 106 c 0,6,7
 268 -59 268 -59 100 -117 c 1,8,-1
 100 -32 l 1,9,10
 235 33 235 33 344 170 c 0,11,12
 525 398 525 398 525 800 c 0,13,14
 525 1201 525 1201 344 1429 c 0,15,16
 235 1566 235 1566 100 1628 c 1,17,-1
 100 1717 l 1,0,1
EndSplineSet
EndChar

StartChar: asterisk
Encoding: 42 42 13
Width: 800
GlyphClass: 1
Flags: W
LayerCount: 2
Fore
SplineSet
445 1384 m 1,0,-1
 619 1506 l 1,1,-1
 671 1432 l 1,2,-1
 478 1297 l 1,3,-1
 671 1162 l 1,4,-1
 619 1088 l 1,5,-1
 445 1210 l 1,6,-1
 445 997 l 1,7,-1
 355 997 l 1,8,-1
 355 1211 l 1,9,-1
 180 1088 l 1,10,-1
 128 1162 l 1,11,-1
 321 1297 l 1,12,-1
 128 1432 l 1,13,-1
 180 1506 l 1,14,-1
 355 1383 l 1,15,-1
 355 1597 l 1,16,-1
 445 1597 l 1,17,-1
 445 1384 l 1,0,-1
EndSplineSet
EndChar

StartChar: plus
Encoding: 43 43 14
Width: 1050
GlyphClass: 1
Flags: W
LayerCount: 2
Fore
SplineSet
480 547 m 1,0,-1
 125 547 l 1,1,-1
 125 637 l 1,2,-1
 480 637 l 1,3,-1
 480 992 l 1,4,-1
 570 992 l 1,5,-1
 570 637 l 1,6,-1
 925 637 l 1,7,-1
 925 547 l 1,8,-1
 570 547 l 1,9,-1
 570 192 l 1,10,-1
 480 192 l 1,11,-1
 480 547 l 1,0,-1
EndSplineSet
EndChar

StartChar: comma
Encoding: 44 44 15
Width: 379
GlyphClass: 1
Flags: W
LayerCount: 2
Fore
SplineSet
279 166 m 1,0,-1
 94 -219 l 1,1,-1
 10 -219 l 1,2,-1
 113 166 l 1,3,-1
 279 166 l 1,0,-1
EndSplineSet
EndChar

StartChar: hyphen
Encoding: 45 45 16
AltUni2: 0000ad.ffffffff.0 0000ad.ffffffff.0
Width: 840
GlyphClass: 1
Flags: W
LayerCount: 2
Fore
SplineSet
125 637 m 1,0,-1
 715 637 l 1,1,-1
 715 547 l 1,2,-1
 125 547 l 1,3,-1
 125 637 l 1,0,-1
EndSplineSet
EndChar

StartChar: period
Encoding: 46 46 17
Width: 380
GlyphClass: 1
Flags: W
LayerCount: 2
Fore
SplineSet
253.5 139 m 128,-1,1
 280 113 280 113 280 76 c 0,2,3
 280 38 280 38 253.5 12 c 128,-1,4
 227 -14 227 -14 190 -14 c 256,5,6
 153 -14 153 -14 126.5 12 c 128,-1,7
 100 38 100 38 100 76 c 0,8,9
 100 113 100 113 126.5 139 c 128,-1,10
 153 165 153 165 190 165 c 256,11,0
 227 165 227 165 253.5 139 c 128,-1,1
EndSplineSet
EndChar

StartChar: slash
Encoding: 47 47 18
Width: 727
GlyphClass: 1
Flags: W
LayerCount: 2
Fore
SplineSet
674 1600 m 1,0,-1
 777 1600 l 1,1,-1
 52 0 l 1,2,-1
 -50 0 l 1,3,-1
 674 1600 l 1,0,-1
EndSplineSet
EndChar

StartChar: zero
Encoding: 48 48 19
Width: 1250
GlyphClass: 1
Flags: W
LayerCount: 2
Fore
SplineSet
1079 1051 m 2,0,1
 1079 1239 1079 1239 946 1371.5 c 128,-1,2
 813 1504 813 1504 625 1504 c 256,3,4
 437 1504 437 1504 304 1371.5 c 128,-1,5
 171 1239 171 1239 171 1051 c 2,6,-1
 171 521 l 2,7,8
 171 333 171 333 304 200.5 c 128,-1,9
 437 68 437 68 625 68 c 256,10,11
 813 68 813 68 946 200.5 c 128,-1,12
 1079 333 1079 333 1079 521 c 2,13,-1
 1079 1051 l 2,0,1
1174 521 m 2,14,15
 1174 294 1174 294 1013.5 133 c 128,-1,16
 853 -28 853 -28 625 -28 c 0,17,18
 398 -28 398 -28 237 133 c 128,-1,19
 76 294 76 294 76 521 c 2,20,-1
 76 1051 l 2,21,22
 76 1278 76 1278 237 1439 c 128,-1,23
 398 1600 398 1600 625 1600 c 0,24,25
 853 1600 853 1600 1013.5 1439 c 128,-1,26
 1174 1278 1174 1278 1174 1051 c 2,27,-1
 1174 521 l 2,14,15
EndSplineSet
EndChar

StartChar: one
Encoding: 49 49 20
Width: 1250
GlyphClass: 1
Flags: W
LayerCount: 2
Fore
SplineSet
717 1600 m 1,0,-1
 717 0 l 1,1,-1
 627 0 l 1,2,-1
 627 1442 l 1,3,-1
 532 1442 l 1,4,-1
 655 1600 l 1,5,-1
 717 1600 l 1,0,-1
EndSplineSet
EndChar

StartChar: two
Encoding: 50 50 21
Width: 1250
GlyphClass: 1
Flags: W
LayerCount: 2
Fore
SplineSet
367.5 433.5 m 128,-1,1
 533 557 533 557 660 652.5 c 128,-1,2
 787 748 787 748 896 867 c 128,-1,3
 1005 986 1005 986 1005 1144 c 0,4,5
 1005 1303 1005 1303 893 1415 c 128,-1,6
 781 1527 781 1527 622 1527 c 0,7,8
 465 1527 465 1527 352 1415 c 0,9,10
 256 1319 256 1319 242 1186 c 1,11,-1
 151 1219 l 1,12,13
 174 1369 174 1369 285 1481 c 0,14,15
 425 1622 425 1622 622 1622 c 0,16,17
 820 1622 820 1622 959.5 1482 c 128,-1,18
 1099 1342 1099 1342 1099 1144 c 0,19,20
 1099 947 1099 947 962 800 c 0,21,22
 869 699 869 699 742 604 c 128,-1,23
 615 509 615 509 456 390 c 256,24,25
 297 271 297 271 258 90 c 1,26,-1
 1099 90 l 1,27,-1
 1099 0 l 1,28,-1
 156 0 l 1,29,0
 202 310 202 310 367.5 433.5 c 128,-1,1
EndSplineSet
EndChar

StartChar: three
Encoding: 51 51 22
Width: 1250
GlyphClass: 1
Flags: W
LayerCount: 2
Fore
SplineSet
569 893 m 1,0,-1
 494 895 l 1,1,-1
 494 985 l 1,2,3
 587 986 587 986 646.5 1009 c 128,-1,4
 706 1032 706 1032 775.5 1106 c 128,-1,5
 845 1180 845 1180 845 1282 c 0,6,7
 845 1385 845 1385 773 1456.5 c 128,-1,8
 701 1528 701 1528 599 1528 c 0,9,10
 498 1528 498 1528 425 1457 c 0,11,12
 385 1416 385 1416 366 1365 c 1,13,-1
 280 1399 l 1,14,15
 302 1469 302 1469 357 1522 c 0,16,17
 458 1622 458 1622 599 1622 c 0,18,19
 742 1622 742 1622 841.5 1521.5 c 128,-1,20
 941 1421 941 1421 941 1282 c 0,21,22
 941 1140 941 1140 865 1058.5 c 128,-1,23
 789 977 789 977 723 950 c 1,24,25
 867 902 867 902 962 800 c 0,26,27
 1099 653 1099 653 1099 456 c 0,28,29
 1099 258 1099 258 959.5 118 c 128,-1,30
 820 -22 820 -22 622 -22 c 0,31,32
 425 -22 425 -22 285 119 c 0,33,34
 174 231 174 231 151 381 c 1,35,-1
 242 414 l 1,36,37
 256 281 256 281 352 185 c 0,38,39
 465 73 465 73 622 73 c 0,40,41
 781 73 781 73 893 185 c 128,-1,42
 1005 297 1005 297 1005 456 c 0,43,44
 1005 614 1005 614 896 733 c 128,-1,45
 787 852 787 852 569 893 c 1,0,-1
EndSplineSet
EndChar

StartChar: four
Encoding: 52 52 23
Width: 1250
GlyphClass: 1
Flags: W
LayerCount: 2
Fore
SplineSet
833 1600 m 1,0,-1
 923 1600 l 1,1,-1
 923 558 l 1,2,-1
 1076 558 l 1,3,-1
 1076 468 l 1,4,-1
 923 468 l 1,5,-1
 923 0 l 1,6,-1
 833 0 l 1,7,-1
 833 468 l 1,8,-1
 173 468 l 1,9,-1
 833 1600 l 1,0,-1
833 1406 m 1,10,-1
 328 558 l 1,11,-1
 833 558 l 1,12,-1
 833 1406 l 1,10,-1
EndSplineSet
EndChar

StartChar: five
Encoding: 53 53 24
Width: 1250
GlyphClass: 1
Flags: W
LayerCount: 2
Fore
SplineSet
282 1103 m 1,0,1
 332 1119 332 1119 394 1133 c 0,2,3
 458 1144 458 1144 518 1144 c 0,4,5
 628 1144 628 1144 729 1109 c 0,6,7
 955 1032 955 1032 1065 825 c 0,8,9
 1134 696 1134 696 1134 561 c 0,10,11
 1134 477 1134 477 1108 392 c 0,12,13
 1039 167 1039 167 832 56 c 0,14,15
 706 -11 706 -11 572 -11 c 0,16,17
 487 -11 487 -11 399 16 c 0,18,19
 219 71 219 71 117 210 c 1,20,-1
 181 281 l 1,21,22
 266 155 266 155 427 106 c 0,23,24
 499 84 499 84 569 84 c 0,25,26
 681 84 681 84 787 140 c 0,27,28
 960 232 960 232 1018 420 c 0,29,30
 1040 492 1040 492 1040 562 c 0,31,32
 1040 674 1040 674 983 781 c 0,33,34
 891 953 891 953 703 1019 c 0,35,36
 622 1047 622 1047 525 1047 c 0,37,38
 398 1047 398 1047 243 998 c 1,39,-1
 171 1061 l 1,40,-1
 355 1568 l 1,41,-1
 355 1600 l 1,42,-1
 855 1600 l 1,43,-1
 855 1510 l 1,44,-1
 430 1510 l 1,45,-1
 282 1103 l 1,0,1
EndSplineSet
EndChar

StartChar: six
Encoding: 54 54 25
Width: 1250
GlyphClass: 1
Flags: W
LayerCount: 2
Fore
SplineSet
174 521 m 256,1,2
 174 333 174 333 307 200.5 c 128,-1,3
 440 68 440 68 628 68 c 256,4,5
 816 68 816 68 949 200.5 c 128,-1,6
 1082 333 1082 333 1082 521 c 256,7,8
 1082 709 1082 709 949 842 c 128,-1,9
 816 975 816 975 628 975 c 256,10,11
 440 975 440 975 307 842 c 128,-1,0
 174 709 174 709 174 521 c 256,1,2
272 940 m 1,12,13
 423 1071 423 1071 628 1071 c 0,14,15
 856 1071 856 1071 1016.5 910 c 128,-1,16
 1177 749 1177 749 1177 521 c 0,17,18
 1177 294 1177 294 1016.5 133 c 128,-1,19
 856 -28 856 -28 628 -28 c 0,20,21
 401 -28 401 -28 240 133 c 0,22,23
 85 288 85 288 79 504 c 1,24,-1
 73 504 l 1,25,26
 83 857 83 857 243 1081 c 128,-1,27
 403 1305 403 1305 639 1569 c 0,28,29
 653 1585 653 1585 666 1600 c 1,30,-1
 790 1600 l 1,31,32
 770 1575 770 1575 748 1550 c 0,33,34
 485 1256 485 1256 331 1037 c 0,35,36
 298 991 298 991 272 940 c 1,12,13
EndSplineSet
EndChar

StartChar: seven
Encoding: 55 55 26
Width: 1250
GlyphClass: 1
Flags: W
LayerCount: 2
Fore
SplineSet
827.5 1046 m 128,-1,1
 565 752 565 752 411 533 c 128,-1,2
 257 314 257 314 247 0 c 1,3,-1
 153 0 l 1,4,5
 163 353 163 353 323 577 c 128,-1,6
 483 801 483 801 719 1065 c 128,-1,7
 955 1329 955 1329 994 1510 c 1,8,-1
 153 1510 l 1,9,-1
 153 1600 l 1,10,-1
 1096 1600 l 1,11,0
 1090 1340 1090 1340 827.5 1046 c 128,-1,1
EndSplineSet
EndChar

StartChar: eight
Encoding: 56 56 27
Width: 1250
GlyphClass: 1
Flags: W
LayerCount: 2
Fore
SplineSet
624 75 m 2,0,-1
 626 75 l 2,1,2
 646 73 646 73 666 73 c 0,3,4
 825 73 825 73 937 185 c 128,-1,5
 1049 297 1049 297 1049 456 c 0,6,7
 1049 614 1049 614 940 733 c 0,8,9
 834 849 834 849 625 891 c 1,10,11
 416 849 416 849 310 733 c 0,12,13
 201 614 201 614 201 456 c 0,14,15
 201 297 201 297 313 185 c 128,-1,16
 425 73 425 73 584 73 c 0,17,18
 604 73 604 73 624 75 c 2,0,-1
625 -20 m 0,19,20
 605 -22 605 -22 584 -22 c 0,21,22
 386 -22 386 -22 246.5 118 c 128,-1,23
 107 258 107 258 107 456 c 0,24,25
 107 653 107 653 244 800 c 0,26,27
 339 902 339 902 483 950 c 1,28,29
 417 977 417 977 341 1058.5 c 128,-1,30
 265 1140 265 1140 265 1282 c 0,31,32
 265 1421 265 1421 364.5 1521.5 c 128,-1,33
 464 1622 464 1622 607 1622 c 2,34,-1
 643 1622 l 2,35,36
 786 1622 786 1622 885.5 1521.5 c 128,-1,37
 985 1421 985 1421 985 1282 c 0,38,39
 985 1140 985 1140 909 1058.5 c 128,-1,40
 833 977 833 977 767 950 c 1,41,42
 911 902 911 902 1006 800 c 0,43,44
 1143 653 1143 653 1143 456 c 0,45,46
 1143 258 1143 258 1003.5 118 c 128,-1,47
 864 -22 864 -22 666 -22 c 0,48,49
 646 -22 646 -22 625 -20 c 0,19,20
624 1527 m 2,50,51
 616 1528 616 1528 607 1528 c 0,52,53
 505 1528 505 1528 433 1456.5 c 128,-1,54
 361 1385 361 1385 361 1282 c 0,55,56
 361 1180 361 1180 430.5 1106 c 128,-1,57
 500 1032 500 1032 559 1009 c 0,58,59
 589 998 589 998 625 992 c 1,60,61
 661 998 661 998 691 1009 c 0,62,63
 750 1032 750 1032 819.5 1106 c 128,-1,64
 889 1180 889 1180 889 1282 c 0,65,66
 889 1385 889 1385 817 1456.5 c 128,-1,67
 745 1528 745 1528 643 1528 c 0,68,69
 634 1528 634 1528 626 1527 c 2,70,-1
 624 1527 l 2,50,51
EndSplineSet
EndChar

StartChar: nine
Encoding: 57 57 28
Width: 1250
GlyphClass: 1
Flags: W
LayerCount: 2
Fore
SplineSet
1076 1051 m 256,1,2
 1076 1239 1076 1239 943 1371.5 c 128,-1,3
 810 1504 810 1504 622 1504 c 256,4,5
 434 1504 434 1504 301 1371.5 c 128,-1,6
 168 1239 168 1239 168 1051 c 256,7,8
 168 863 168 863 301 730 c 128,-1,9
 434 597 434 597 622 597 c 256,10,11
 810 597 810 597 943 730 c 128,-1,0
 1076 863 1076 863 1076 1051 c 256,1,2
978 632 m 1,12,13
 827 501 827 501 622 501 c 0,14,15
 394 501 394 501 233.5 662 c 128,-1,16
 73 823 73 823 73 1051 c 0,17,18
 73 1278 73 1278 233.5 1439 c 128,-1,19
 394 1600 394 1600 622 1600 c 0,20,21
 849 1600 849 1600 1010 1439 c 0,22,23
 1165 1284 1165 1284 1171 1068 c 1,24,-1
 1177 1068 l 1,25,26
 1167 715 1167 715 1007 491 c 128,-1,27
 847 267 847 267 611 3 c 0,28,29
 597 -13 597 -13 584 -28 c 1,30,-1
 460 -28 l 1,31,32
 480 -3 480 -3 502 22 c 0,33,34
 765 316 765 316 919 535 c 0,35,36
 952 581 952 581 978 632 c 1,12,13
EndSplineSet
EndChar

StartChar: colon
Encoding: 58 58 29
Width: 430
GlyphClass: 1
Flags: W
LayerCount: 2
Fore
SplineSet
278.5 139 m 128,-1,1
 305 113 305 113 305 76 c 0,2,3
 305 38 305 38 278.5 12 c 128,-1,4
 252 -14 252 -14 215 -14 c 256,5,6
 178 -14 178 -14 151.5 12 c 128,-1,7
 125 38 125 38 125 76 c 0,8,9
 125 113 125 113 151.5 139 c 128,-1,10
 178 165 178 165 215 165 c 256,11,0
 252 165 252 165 278.5 139 c 128,-1,1
278.5 756 m 128,-1,13
 305 730 305 730 305 693 c 0,14,15
 305 655 305 655 278.5 629 c 128,-1,16
 252 603 252 603 215 603 c 256,17,18
 178 603 178 603 151.5 629 c 128,-1,19
 125 655 125 655 125 693 c 0,20,21
 125 730 125 730 151.5 756 c 128,-1,22
 178 782 178 782 215 782 c 256,23,12
 252 782 252 782 278.5 756 c 128,-1,13
EndSplineSet
EndChar

StartChar: semicolon
Encoding: 59 59 30
AltUni2: 00037e.ffffffff.0 00037e.ffffffff.0
Width: 477
GlyphClass: 1
Flags: W
LayerCount: 2
Fore
SplineSet
352 166 m 1,0,-1
 167 -219 l 1,1,-1
 83 -219 l 1,2,-1
 186 166 l 1,3,-1
 352 166 l 1,0,-1
278.5 756 m 128,-1,5
 305 730 305 730 305 693 c 0,6,7
 305 655 305 655 278.5 629 c 128,-1,8
 252 603 252 603 215 603 c 256,9,10
 178 603 178 603 151.5 629 c 128,-1,11
 125 655 125 655 125 693 c 0,12,13
 125 730 125 730 151.5 756 c 128,-1,14
 178 782 178 782 215 782 c 256,15,4
 252 782 252 782 278.5 756 c 128,-1,5
EndSplineSet
EndChar

StartChar: less
Encoding: 60 60 31
Width: 1349
GlyphClass: 1
Flags: W
LayerCount: 2
Fore
SplineSet
1249 145 m 1,0,-1
 100 563 l 1,1,-1
 1249 981 l 1,2,-1
 1249 885 l 1,3,-1
 363 563 l 1,4,-1
 1249 241 l 1,5,-1
 1249 145 l 1,0,-1
EndSplineSet
EndChar

StartChar: equal
Encoding: 61 61 32
Width: 1050
GlyphClass: 1
Flags: W
LayerCount: 2
Fore
SplineSet
125 797 m 1,0,-1
 925 797 l 1,1,-1
 925 707 l 1,2,-1
 125 707 l 1,3,-1
 125 797 l 1,0,-1
125 477 m 1,4,-1
 925 477 l 1,5,-1
 925 387 l 1,6,-1
 125 387 l 1,7,-1
 125 477 l 1,4,-1
EndSplineSet
EndChar

StartChar: greater
Encoding: 62 62 33
Width: 1349
GlyphClass: 1
Flags: W
LayerCount: 2
Fore
SplineSet
100 241 m 1,0,-1
 986 563 l 1,1,-1
 100 885 l 1,2,-1
 100 981 l 1,3,-1
 1249 563 l 1,4,-1
 100 145 l 1,5,-1
 100 241 l 1,0,-1
EndSplineSet
EndChar

StartChar: question
Encoding: 63 63 34
Width: 956
GlyphClass: 1
Flags: W
LayerCount: 2
Fore
SplineSet
390 589 m 0,1,2
 350 507 350 507 350 423 c 0,3,4
 350 359 350 359 373 294 c 1,5,-1
 290 265 l 1,6,7
 262 345 262 345 262 423 c 0,8,9
 262 527 262 527 311 627 c 0,10,11
 391 794 391 794 552 916 c 1,12,13
 647 1008 647 1008 688 1094 c 0,14,15
 714 1147 714 1147 714 1202 c 0,16,17
 714 1243 714 1243 700 1284 c 0,18,19
 665 1382 665 1382 572 1427 c 0,20,21
 519 1452 519 1452 465 1452 c 0,22,23
 424 1452 424 1452 382 1437 c 0,24,25
 285 1403 285 1403 240 1311 c 0,26,27
 215 1259 215 1259 215 1206 c 1,28,-1
 127 1210 l 1,29,-1
 127 1218 l 2,30,31
 127 1283 127 1283 159 1347 c 0,32,33
 221 1474 221 1474 353 1520 c 0,34,35
 411 1540 411 1540 467 1540 c 0,36,37
 541 1540 541 1540 613 1506 c 0,38,39
 739 1445 739 1445 785 1314 c 0,40,41
 805 1257 805 1257 805 1201 c 0,42,43
 805 1127 805 1127 770 1055 c 0,44,45
 709 928 709 928 567 818 c 1,46,0
 450 715 450 715 390 589 c 0,1,2
389.5 139 m 128,-1,48
 416 113 416 113 416 76 c 0,49,50
 416 38 416 38 389.5 12 c 128,-1,51
 363 -14 363 -14 326 -14 c 256,52,53
 289 -14 289 -14 262.5 12 c 128,-1,54
 236 38 236 38 236 76 c 0,55,56
 236 113 236 113 262.5 139 c 128,-1,57
 289 165 289 165 326 165 c 256,58,47
 363 165 363 165 389.5 139 c 128,-1,48
EndSplineSet
EndChar

StartChar: at
Encoding: 64 64 35
Width: 1626
GlyphClass: 1
Flags: W
LayerCount: 2
Fore
SplineSet
1088 483 m 1,0,-1
 1088 615 l 1,1,2
 1071 690 1071 690 1014 747 c 0,3,4
 932 830 932 830 816 830 c 256,5,6
 700 830 700 830 618.5 747.5 c 128,-1,7
 537 665 537 665 537 548 c 0,8,9
 537 433 537 433 618.5 351 c 128,-1,10
 700 269 700 269 816 269 c 256,11,12
 932 269 932 269 1014 351 c 0,13,14
 1071 408 1071 408 1088 483 c 1,0,-1
1086 313 m 1,15,16
 965 186 965 186 814 186 c 0,17,18
 664 186 664 186 557 293 c 128,-1,19
 450 400 450 400 450 548 c 0,20,21
 450 699 450 699 557 806 c 128,-1,22
 664 913 664 913 814 913 c 0,23,24
 965 913 965 913 1086 786 c 1,25,-1
 1086 900 l 1,26,-1
 1167 900 l 1,27,-1
 1167 252 l 1,28,29
 1185 209 1185 209 1222 209 c 0,30,31
 1266 209 1266 209 1344 319.5 c 128,-1,32
 1422 430 1422 430 1422 547 c 0,33,34
 1422 798 1422 798 1243.5 976.5 c 128,-1,35
 1065 1155 1065 1155 814 1155 c 256,36,37
 563 1155 563 1155 385.5 976.5 c 128,-1,38
 208 798 208 798 208 547 c 256,39,40
 208 296 208 296 385.5 118.5 c 128,-1,41
 563 -59 563 -59 814 -59 c 0,42,43
 986 -59 986 -59 1065 -10 c 1,44,-1
 1122 -70 l 1,45,46
 1002 -140 1002 -140 814 -140 c 0,47,48
 530 -140 530 -140 327.5 62 c 128,-1,49
 125 264 125 264 125 547 c 0,50,51
 125 831 125 831 327.5 1033.5 c 128,-1,52
 530 1236 530 1236 814 1236 c 0,53,54
 1099 1236 1099 1236 1300 1033.5 c 128,-1,55
 1501 831 1501 831 1501 547 c 0,56,57
 1501 420 1501 420 1408.5 275 c 128,-1,58
 1316 130 1316 130 1204 130 c 0,59,60
 1191 130 1191 130 1179 132 c 0,61,62
 1093 150 1093 150 1086 232 c 1,63,-1
 1086 313 l 1,15,16
EndSplineSet
EndChar

StartChar: A
Encoding: 65 65 36
Width: 1291
GlyphClass: 1
Flags: W
LayerCount: 2
Fore
SplineSet
890 703 m 1,0,-1
 646 1374 l 1,1,-1
 402 703 l 1,2,-1
 890 703 l 1,0,-1
923 613 m 1,3,-1
 369 613 l 1,4,-1
 146 0 l 1,5,-1
 50 0 l 1,6,-1
 646 1637 l 1,7,-1
 1241 0 l 1,8,-1
 1146 0 l 1,9,-1
 923 613 l 1,3,-1
EndSplineSet
EndChar

StartChar: B
Encoding: 66 66 37
Width: 1066
GlyphClass: 1
Flags: W
LayerCount: 2
Fore
SplineSet
434 1600 m 2,0,1
 557 1600 557 1600 644.5 1513 c 128,-1,2
 732 1426 732 1426 732 1303 c 0,3,4
 732 1179 732 1179 605 1072 c 1,5,6
 717 1049 717 1049 816 940 c 1,7,8
 976 779 976 779 976 551 c 0,9,10
 976 324 976 324 816 158 c 0,11,12
 667 4 667 4 460 1 c 1,13,-1
 460 0 l 1,14,-1
 150 0 l 1,15,-1
 150 1600 l 1,16,-1
 434 1600 l 2,0,1
240 1005 m 1,17,-1
 240 90 l 1,18,-1
 460 90 l 1,19,-1
 460 89 l 1,20,21
 627 100 627 100 748 226 c 0,22,23
 881 363 881 363 881 551 c 256,24,25
 881 739 881 739 748 872 c 128,-1,26
 615 1005 615 1005 427 1005 c 2,27,-1
 240 1005 l 1,17,-1
240 1510 m 1,28,-1
 240 1101 l 1,29,-1
 457 1101 l 1,30,31
 532 1108 532 1108 585 1157 c 0,32,33
 646 1213 646 1213 646 1303 c 256,34,35
 646 1393 646 1393 585 1451.5 c 128,-1,36
 524 1510 524 1510 434 1510 c 2,37,-1
 240 1510 l 1,28,-1
EndSplineSet
EndChar

StartChar: C
Encoding: 67 67 38
Width: 1595
GlyphClass: 1
Flags: W
LayerCount: 2
Fore
SplineSet
1427 255 m 1,0,-1
 1495 194 l 1,1,2
 1261 -19 1261 -19 944 -19 c 0,3,4
 604 -19 604 -19 364.5 220.5 c 128,-1,5
 125 460 125 460 125 800 c 0,6,7
 125 1139 125 1139 364.5 1379 c 128,-1,8
 604 1619 604 1619 944 1619 c 0,9,10
 1261 1619 1261 1619 1495 1406 c 1,11,-1
 1427 1344 l 1,12,13
 1221 1527 1221 1527 944 1527 c 0,14,15
 643 1527 643 1527 430 1314 c 128,-1,16
 217 1101 217 1101 217 800 c 0,17,18
 217 498 217 498 430 285 c 128,-1,19
 643 72 643 72 944 72 c 0,20,21
 1221 72 1221 72 1427 255 c 1,0,-1
EndSplineSet
EndChar

StartChar: D
Encoding: 68 68 39
Width: 1199
GlyphClass: 1
Flags: W
LayerCount: 2
Fore
SplineSet
240 1506 m 1,0,-1
 240 93 l 1,1,-1
 247 93 l 2,2,3
 603 93 603 93 794 285 c 0,4,5
 1007 498 1007 498 1007 800 c 0,6,7
 1007 1101 1007 1101 794 1315 c 0,8,9
 603 1506 603 1506 247 1506 c 2,10,-1
 240 1506 l 1,0,-1
240 1598 m 1,11,-1
 247 1598 l 2,12,13
 642 1598 642 1598 859 1380 c 0,14,15
 1099 1139 1099 1139 1099 800 c 0,16,17
 1099 460 1099 460 859 220 c 0,18,19
 642 2 642 2 247 2 c 2,20,-1
 240 2 l 1,21,-1
 240 0 l 1,22,-1
 150 0 l 1,23,-1
 150 1600 l 1,24,-1
 240 1600 l 1,25,-1
 240 1598 l 1,11,-1
EndSplineSet
EndChar

StartChar: E
Encoding: 69 69 40
Width: 1075
GlyphClass: 1
Flags: W
LayerCount: 2
Fore
SplineSet
950 1600 m 1,0,-1
 950 1510 l 1,1,-1
 240 1510 l 1,2,-1
 240 845 l 1,3,-1
 950 845 l 1,4,-1
 950 755 l 1,5,-1
 240 755 l 1,6,-1
 240 90 l 1,7,-1
 950 90 l 1,8,-1
 950 0 l 1,9,-1
 150 0 l 1,10,-1
 150 1600 l 1,11,-1
 950 1600 l 1,0,-1
EndSplineSet
EndChar

StartChar: F
Encoding: 70 70 41
Width: 975
GlyphClass: 1
Flags: W
LayerCount: 2
Fore
SplineSet
850 1600 m 1,0,-1
 850 1510 l 1,1,-1
 240 1510 l 1,2,-1
 240 845 l 1,3,-1
 850 845 l 1,4,-1
 850 755 l 1,5,-1
 240 755 l 1,6,-1
 240 0 l 1,7,-1
 150 0 l 1,8,-1
 150 1600 l 1,9,-1
 850 1600 l 1,0,-1
EndSplineSet
EndChar

StartChar: G
Encoding: 71 71 42
Width: 1620
GlyphClass: 1
Flags: W
LayerCount: 2
Fore
SplineSet
1489 199 m 1,0,1
 1261 -19 1261 -19 944 -19 c 0,2,3
 604 -19 604 -19 364.5 220.5 c 128,-1,4
 125 460 125 460 125 800 c 0,5,6
 125 1139 125 1139 364.5 1379 c 128,-1,7
 604 1619 604 1619 944 1619 c 0,8,9
 1261 1619 1261 1619 1495 1406 c 1,10,-1
 1427 1344 l 1,11,12
 1221 1527 1221 1527 944 1527 c 0,13,14
 643 1527 643 1527 430 1314 c 128,-1,15
 217 1101 217 1101 217 800 c 0,16,17
 217 498 217 498 430 285 c 128,-1,18
 643 72 643 72 944 72 c 0,19,20
 1202 72 1202 72 1399 231 c 1,21,-1
 1399 719 l 1,22,-1
 1489 719 l 1,23,-1
 1489 199 l 1,0,1
EndSplineSet
EndChar

StartChar: H
Encoding: 72 72 43
Width: 1150
GlyphClass: 1
Flags: W
LayerCount: 2
Fore
SplineSet
240 717 m 1,0,-1
 240 0 l 1,1,-1
 150 0 l 1,2,-1
 150 1600 l 1,3,-1
 240 1600 l 1,4,-1
 240 807 l 1,5,-1
 910 807 l 1,6,-1
 910 1600 l 1,7,-1
 1000 1600 l 1,8,-1
 1000 0 l 1,9,-1
 910 0 l 1,10,-1
 910 717 l 1,11,-1
 240 717 l 1,0,-1
EndSplineSet
EndChar

StartChar: I
Encoding: 73 73 44
Width: 430
GlyphClass: 1
Flags: W
LayerCount: 2
Fore
SplineSet
260 1600 m 1,0,-1
 260 0 l 1,1,-1
 170 0 l 1,2,-1
 170 1600 l 1,3,-1
 260 1600 l 1,0,-1
EndSplineSet
EndChar

StartChar: J
Encoding: 74 74 45
Width: 857
GlyphClass: 1
Flags: W
LayerCount: 2
Fore
SplineSet
702 304 m 2,0,1
 702 152 702 152 622 72 c 0,2,3
 537 -14 537 -14 416 -14 c 256,4,5
 295 -14 295 -14 210 71.5 c 128,-1,6
 125 157 125 157 125 259 c 1,7,-1
 184 282 l 1,8,9
 204 174 204 174 269 120 c 0,10,11
 323 74 323 74 391 74 c 0,12,13
 403 74 403 74 416 76 c 0,14,15
 499 76 499 76 559 135 c 0,16,17
 612 188 612 188 612 314 c 2,18,-1
 612 1600 l 1,19,-1
 702 1600 l 1,20,-1
 702 304 l 2,0,1
EndSplineSet
EndChar

StartChar: K
Encoding: 75 75 46
Width: 1097
GlyphClass: 1
Flags: W
LayerCount: 2
Fore
SplineSet
240 775 m 1,0,-1
 240 0 l 1,1,-1
 150 0 l 1,2,-1
 150 1600 l 1,3,-1
 240 1600 l 1,4,-1
 240 919 l 1,5,-1
 751 1600 l 1,6,-1
 867 1600 l 1,7,-1
 387 956 l 1,8,-1
 1007 0 l 1,9,-1
 896 0 l 1,10,-1
 328 884 l 1,11,-1
 240 775 l 1,0,-1
EndSplineSet
EndChar

StartChar: L
Encoding: 76 76 47
Width: 950
GlyphClass: 1
Flags: W
LayerCount: 2
Fore
SplineSet
150 0 m 1,0,-1
 150 1600 l 1,1,-1
 240 1600 l 1,2,-1
 240 90 l 1,3,-1
 860 90 l 1,4,-1
 860 0 l 1,5,-1
 150 0 l 1,0,-1
EndSplineSet
EndChar

StartChar: M
Encoding: 77 77 48
Width: 1707
GlyphClass: 1
Flags: W
LayerCount: 2
Fore
SplineSet
253 1600 m 1,0,-1
 854 560 l 1,1,-1
 1454 1600 l 1,2,-1
 1557 1600 l 1,3,-1
 1553 1593 l 1,4,-1
 1553 0 l 1,5,-1
 1463 0 l 1,6,-1
 1463 1437 l 1,7,-1
 854 383 l 1,8,-1
 244 1437 l 1,9,-1
 244 0 l 1,10,-1
 154 0 l 1,11,-1
 154 1593 l 1,12,-1
 150 1600 l 1,13,-1
 253 1600 l 1,0,-1
EndSplineSet
EndChar

StartChar: N
Encoding: 78 78 49
Width: 1311
GlyphClass: 1
Flags: W
LayerCount: 2
Fore
SplineSet
150 1600 m 1,0,-1
 249 1600 l 1,1,-1
 1071 177 l 1,2,-1
 1071 1600 l 1,3,-1
 1161 1600 l 1,4,-1
 1161 0 l 1,5,-1
 1071 0 l 1,6,-1
 240 1437 l 1,7,-1
 240 0 l 1,8,-1
 150 0 l 1,9,-1
 150 1600 l 1,0,-1
EndSplineSet
EndChar

StartChar: O
Encoding: 79 79 50
Width: 1892
GlyphClass: 1
Flags: W
LayerCount: 2
Fore
SplineSet
1526.5 1382.5 m 128,-1,1
 1767 1142 1767 1142 1767 802 c 256,2,3
 1767 462 1767 462 1526.5 221.5 c 128,-1,4
 1286 -19 1286 -19 946 -19 c 256,5,6
 606 -19 606 -19 365.5 221.5 c 128,-1,7
 125 462 125 462 125 802 c 256,8,9
 125 1142 125 1142 365.5 1382.5 c 128,-1,10
 606 1623 606 1623 946 1623 c 256,11,0
 1286 1623 1286 1623 1526.5 1382.5 c 128,-1,1
946 1531 m 256,12,13
 644 1531 644 1531 430.5 1317.5 c 128,-1,14
 217 1104 217 1104 217 802 c 256,15,16
 217 500 217 500 430.5 286 c 128,-1,17
 644 72 644 72 946 72 c 256,18,19
 1248 72 1248 72 1461.5 286 c 128,-1,20
 1675 500 1675 500 1675 802 c 256,21,22
 1675 1104 1675 1104 1461.5 1317.5 c 128,-1,23
 1248 1531 1248 1531 946 1531 c 256,12,13
EndSplineSet
EndChar

StartChar: P
Encoding: 80 80 51
Width: 1089
GlyphClass: 1
Flags: W
LayerCount: 2
Fore
SplineSet
240 555 m 1,0,-1
 240 0 l 1,1,-1
 150 0 l 1,2,-1
 150 1600 l 1,3,-1
 570 1600 l 1,4,5
 753 1575 753 1575 881 1447 c 0,6,7
 1034 1294 1034 1294 1034 1078 c 0,8,9
 1034 861 1034 861 881 708 c 128,-1,10
 728 555 728 555 512 555 c 2,11,-1
 240 555 l 1,0,-1
240 1509 m 1,12,-1
 240 646 l 1,13,-1
 512 646 l 2,14,15
 690 646 690 646 816.5 772.5 c 128,-1,16
 943 899 943 899 943 1078 c 256,17,18
 943 1257 943 1257 816.5 1383 c 128,-1,19
 690 1509 690 1509 512 1509 c 2,20,-1
 240 1509 l 1,12,-1
EndSplineSet
EndChar

StartChar: Q
Encoding: 81 81 52
Width: 1892
GlyphClass: 1
Flags: W
LayerCount: 2
Fore
SplineSet
946 1531 m 256,0,1
 644 1531 644 1531 430.5 1317.5 c 128,-1,2
 217 1104 217 1104 217 802 c 256,3,4
 217 500 217 500 430.5 286 c 128,-1,5
 644 72 644 72 946 72 c 256,6,7
 1248 72 1248 72 1461.5 286 c 128,-1,8
 1675 500 1675 500 1675 802 c 256,9,10
 1675 1104 1675 1104 1461.5 1317.5 c 128,-1,11
 1248 1531 1248 1531 946 1531 c 256,0,1
937 -19 m 1,12,13
 603 -16 603 -16 366 222 c 0,14,15
 125 462 125 462 125 802 c 256,16,17
 125 1142 125 1142 365.5 1382.5 c 128,-1,18
 606 1623 606 1623 946 1623 c 256,19,20
 1286 1623 1286 1623 1526.5 1382.5 c 128,-1,21
 1767 1142 1767 1142 1767 802 c 256,22,23
 1767 462 1767 462 1527 222 c 0,24,25
 1353 48 1353 48 1128 0 c 1,26,27
 1133 -2 1133 -2 1138 -3 c 0,28,29
 1211 -23 1211 -23 1335 -101 c 1,30,31
 1419 -146 1419 -146 1453 -156 c 0,32,33
 1474 -162 1474 -162 1494 -162 c 0,34,35
 1530 -162 1530 -162 1564 -143 c 0,36,37
 1617 -113 1617 -113 1633 -55 c 0,38,39
 1638 -39 1638 -39 1639 -23 c 1,40,-1
 1730 -23 l 1,41,42
 1728 -50 1728 -50 1720 -78 c 0,43,44
 1693 -172 1693 -172 1608 -220 c 0,45,46
 1554 -251 1554 -251 1496 -251 c 0,47,48
 1463 -251 1463 -251 1429 -241 c 0,49,50
 1369 -225 1369 -225 1259 -155 c 1,51,52
 1157 -101 1157 -101 1114 -89 c 0,53,54
 1085 -81 1085 -81 1057 -81 c 0,55,56
 1007 -81 1007 -81 961 -107 c 0,57,58
 887 -149 887 -149 865 -230 c 0,59,60
 861 -242 861 -242 860 -254 c 1,61,-1
 769 -254 l 1,62,63
 771 -230 771 -230 778 -205 c 0,64,65
 811 -89 811 -89 917 -29 c 0,66,67
 927 -24 927 -24 937 -19 c 1,12,13
EndSplineSet
EndChar

StartChar: R
Encoding: 82 82 53
Width: 1089
GlyphClass: 1
Flags: W
LayerCount: 2
Fore
SplineSet
240 1509 m 1,0,-1
 240 646 l 1,1,-1
 512 646 l 2,2,3
 690 646 690 646 816.5 772.5 c 128,-1,4
 943 899 943 899 943 1078 c 256,5,6
 943 1257 943 1257 816.5 1383 c 128,-1,7
 690 1509 690 1509 512 1509 c 2,8,-1
 240 1509 l 1,0,-1
539 556 m 1,9,10
 526 555 526 555 512 555 c 2,11,-1
 240 555 l 1,12,-1
 240 0 l 1,13,-1
 150 0 l 1,14,-1
 150 1600 l 1,15,-1
 570 1600 l 1,16,17
 753 1575 753 1575 881 1447 c 0,18,19
 1034 1294 1034 1294 1034 1078 c 0,20,21
 1034 861 1034 861 881 708 c 0,22,23
 775 602 775 602 638 569 c 1,24,-1
 1007 0 l 1,25,-1
 896 0 l 1,26,-1
 539 556 l 1,9,10
EndSplineSet
EndChar

StartChar: S
Encoding: 83 83 54
Width: 1042
GlyphClass: 1
Flags: W
LayerCount: 2
Fore
SplineSet
548 886 m 1,0,1
 377 943 377 943 278 1042 c 128,-1,2
 179 1141 179 1141 179 1282 c 0,3,4
 179 1420 179 1420 278 1519.5 c 128,-1,5
 377 1619 377 1619 518 1619 c 0,6,7
 658 1619 658 1619 758 1520 c 0,8,9
 813 1467 813 1467 834 1401 c 1,10,-1
 753 1369 l 1,11,12
 735 1418 735 1418 694 1459 c 0,13,14
 621 1531 621 1531 518 1531 c 256,15,16
 415 1531 415 1531 342 1458.5 c 128,-1,17
 269 1386 269 1386 269 1282 c 0,18,19
 269 1179 269 1179 342 1106 c 0,20,21
 410 1039 410 1039 530 983 c 1,22,23
 722 921 722 921 853 790 c 0,24,25
 992 652 992 652 992 456 c 0,26,27
 992 259 992 259 853 120 c 128,-1,28
 714 -19 714 -19 518 -19 c 256,29,30
 322 -19 322 -19 183 121 c 0,31,32
 72 232 72 232 50 379 c 1,33,-1
 135 410 l 1,34,35
 149 280 149 280 246 183 c 0,36,37
 359 70 359 70 518 70 c 0,38,39
 678 70 678 70 791 183 c 128,-1,40
 904 296 904 296 904 456 c 0,41,42
 904 615 904 615 791 728 c 0,43,44
 692 827 692 827 548 886 c 1,0,1
EndSplineSet
EndChar

StartChar: T
Encoding: 84 84 55
Width: 1000
GlyphClass: 1
Flags: W
LayerCount: 2
Fore
SplineSet
545 1510 m 1,0,-1
 545 0 l 1,1,-1
 455 0 l 1,2,-1
 455 1510 l 1,3,-1
 50 1510 l 1,4,-1
 50 1600 l 1,5,-1
 950 1600 l 1,6,-1
 950 1510 l 1,7,-1
 545 1510 l 1,0,-1
EndSplineSet
EndChar

StartChar: U
Encoding: 85 85 56
Width: 1345
GlyphClass: 1
Flags: W
LayerCount: 2
Fore
SplineSet
1104 1600 m 1,0,-1
 1195 1600 l 1,1,-1
 1195 450 l 1,2,3
 1170 267 1170 267 1042 139 c 0,4,5
 889 -14 889 -14 673 -14 c 0,6,7
 456 -14 456 -14 303 139 c 128,-1,8
 150 292 150 292 150 508 c 2,9,-1
 150 1600 l 1,10,-1
 241 1600 l 1,11,-1
 241 508 l 2,12,13
 241 330 241 330 367.5 203.5 c 128,-1,14
 494 77 494 77 673 77 c 256,15,16
 852 77 852 77 978 203.5 c 128,-1,17
 1104 330 1104 330 1104 508 c 2,18,-1
 1104 1600 l 1,0,-1
EndSplineSet
EndChar

StartChar: V
Encoding: 86 86 57
Width: 1291
GlyphClass: 1
Flags: W
LayerCount: 2
Fore
SplineSet
145 1600 m 1,0,-1
 645 226 l 1,1,-1
 1145 1600 l 1,2,-1
 1241 1600 l 1,3,-1
 645 -37 l 1,4,-1
 50 1600 l 1,5,-1
 145 1600 l 1,0,-1
EndSplineSet
EndChar

StartChar: W
Encoding: 87 87 58
Width: 1672
GlyphClass: 1
Flags: W
LayerCount: 2
Fore
SplineSet
791 240 m 1,0,-1
 791 1600 l 1,1,-1
 881 1600 l 1,2,-1
 881 240 l 1,3,4
 904 197 904 197 938 163 c 0,5,6
 1028 76 1028 76 1152 76 c 256,7,8
 1276 76 1276 76 1366.5 164.5 c 128,-1,9
 1457 253 1457 253 1457 378 c 2,10,-1
 1457 1600 l 1,11,-1
 1547 1600 l 1,12,-1
 1547 370 l 2,13,14
 1544 214 1544 214 1432 102 c 0,15,16
 1316 -14 1316 -14 1152 -14 c 0,17,18
 989 -14 989 -14 873 101 c 0,19,20
 852 121 852 121 836 142 c 1,21,22
 820 121 820 121 799 101 c 0,23,24
 683 -14 683 -14 520 -14 c 0,25,26
 356 -14 356 -14 241 102 c 0,27,28
 128 214 128 214 125 370 c 2,29,-1
 125 1600 l 1,30,-1
 215 1600 l 1,31,-1
 215 378 l 2,32,33
 215 253 215 253 305.5 164.5 c 128,-1,34
 396 76 396 76 520 76 c 256,35,36
 644 76 644 76 734 163 c 0,37,38
 768 197 768 197 791 240 c 1,0,-1
EndSplineSet
EndChar

StartChar: X
Encoding: 88 88 59
Width: 1218
GlyphClass: 1
Flags: W
LayerCount: 2
Fore
SplineSet
50 0 m 1,0,-1
 557 879 l 1,1,-1
 141 1600 l 1,2,-1
 244 1600 l 1,3,-1
 608 968 l 1,4,-1
 974 1600 l 1,5,-1
 1077 1600 l 1,6,-1
 659 879 l 1,7,-1
 1168 0 l 1,8,-1
 1065 0 l 1,9,-1
 608 790 l 1,10,-1
 152 0 l 1,11,-1
 50 0 l 1,0,-1
EndSplineSet
EndChar

StartChar: Y
Encoding: 89 89 60
Width: 1291
GlyphClass: 1
Flags: W
LayerCount: 2
Fore
SplineSet
600 647 m 1,0,-1
 50 1600 l 1,1,-1
 153 1600 l 1,2,-1
 645 747 l 1,3,-1
 1138 1600 l 1,4,-1
 1241 1600 l 1,5,-1
 690 647 l 1,6,-1
 690 0 l 1,7,-1
 600 0 l 1,8,-1
 600 647 l 1,0,-1
EndSplineSet
EndChar

StartChar: Z
Encoding: 90 90 61
Width: 1327
GlyphClass: 1
Flags: W
LayerCount: 2
Fore
SplineSet
1022 1510 m 1,0,-1
 150 1510 l 1,1,-1
 150 1600 l 1,2,-1
 1177 1600 l 1,3,-1
 304 90 l 1,4,-1
 1177 90 l 1,5,-1
 1177 0 l 1,6,-1
 150 0 l 1,7,-1
 1022 1510 l 1,0,-1
EndSplineSet
EndChar

StartChar: bracketleft
Encoding: 91 91 62
Width: 560
GlyphClass: 1
Flags: W
LayerCount: 2
Fore
SplineSet
215 -285 m 1,0,-1
 435 -285 l 1,1,-1
 435 -375 l 1,2,-1
 125 -375 l 1,3,-1
 125 1600 l 1,4,-1
 435 1600 l 1,5,-1
 435 1510 l 1,6,-1
 215 1510 l 1,7,-1
 215 -285 l 1,0,-1
EndSplineSet
EndChar

StartChar: backslash
Encoding: 92 92 63
Width: 727
GlyphClass: 1
Flags: W
LayerCount: 2
Fore
SplineSet
777 0 m 1,0,-1
 675 0 l 1,1,-1
 -50 1600 l 1,2,-1
 53 1600 l 1,3,-1
 777 0 l 1,0,-1
EndSplineSet
EndChar

StartChar: bracketright
Encoding: 93 93 64
Width: 560
GlyphClass: 1
Flags: W
LayerCount: 2
Fore
SplineSet
345 1510 m 1,0,-1
 125 1510 l 1,1,-1
 125 1600 l 1,2,-1
 435 1600 l 1,3,-1
 435 -375 l 1,4,-1
 125 -375 l 1,5,-1
 125 -285 l 1,6,-1
 345 -285 l 1,7,-1
 345 1510 l 1,0,-1
EndSplineSet
EndChar

StartChar: asciicircum
Encoding: 94 94 65
Width: 921
GlyphClass: 1
Flags: W
LayerCount: 2
Fore
SplineSet
513 1600 m 1,0,-1
 821 1066 l 1,1,-1
 717 1066 l 1,2,-1
 461 1509 l 1,3,-1
 205 1066 l 1,4,-1
 100 1066 l 1,5,-1
 409 1600 l 1,6,-1
 513 1600 l 1,0,-1
EndSplineSet
EndChar

StartChar: underscore
Encoding: 95 95 66
Width: 1050
GlyphClass: 1
Flags: W
LayerCount: 2
Fore
SplineSet
25 -30 m 1,0,-1
 1025 -30 l 1,1,-1
 1025 -120 l 1,2,-1
 25 -120 l 1,3,-1
 25 -30 l 1,0,-1
EndSplineSet
EndChar

StartChar: grave
Encoding: 96 96 67
Width: 629
GlyphClass: 1
Flags: W
LayerCount: 2
Fore
SplineSet
316 1387 m 1,0,-1
 479 1200 l 1,1,-1
 395 1200 l 1,2,-1
 150 1387 l 1,3,-1
 316 1387 l 1,0,-1
EndSplineSet
EndChar

StartChar: a
Encoding: 97 97 68
Width: 1360
GlyphClass: 1
Flags: W
LayerCount: 2
Fore
SplineSet
1210 0 m 1,0,-1
 1120 0 l 1,1,-1
 1120 200 l 1,2,3
 1094 165 1094 165 1063 133 c 0,4,5
 902 -28 902 -28 674 -28 c 0,6,7
 447 -28 447 -28 286 133 c 128,-1,8
 125 294 125 294 125 521 c 0,9,10
 125 749 125 749 286 910 c 128,-1,11
 447 1071 447 1071 674 1071 c 0,12,13
 902 1071 902 1071 1063 910 c 0,14,15
 1094 878 1094 878 1120 843 c 1,16,-1
 1120 982 l 1,17,-1
 1210 982 l 1,18,-1
 1210 0 l 1,0,-1
1120 432 m 1,19,-1
 1120 610 l 1,20,21
 1095 742 1095 742 995 842 c 0,22,23
 862 975 862 975 674 975 c 256,24,25
 486 975 486 975 353 842 c 128,-1,26
 220 709 220 709 220 521 c 256,27,28
 220 333 220 333 353 200.5 c 128,-1,29
 486 68 486 68 674 68 c 256,30,31
 862 68 862 68 995 201 c 0,32,33
 1095 301 1095 301 1120 432 c 1,19,-1
EndSplineSet
EndChar

StartChar: b
Encoding: 98 98 69
Width: 1359
GlyphClass: 1
Flags: W
LayerCount: 2
Fore
SplineSet
150 1600 m 1,0,-1
 240 1600 l 1,1,-1
 240 844 l 1,2,3
 265 878 265 878 297 910 c 0,4,5
 458 1071 458 1071 685 1071 c 0,6,7
 913 1071 913 1071 1073.5 910 c 128,-1,8
 1234 749 1234 749 1234 521 c 0,9,10
 1234 294 1234 294 1073.5 133 c 128,-1,11
 913 -28 913 -28 685 -28 c 0,12,13
 458 -28 458 -28 297 133 c 0,14,15
 265 165 265 165 240 199 c 1,16,-1
 240 0 l 1,17,-1
 150 0 l 1,18,-1
 150 1600 l 1,0,-1
240 615 m 1,19,-1
 240 427 l 1,20,21
 266 299 266 299 364 201 c 0,22,23
 497 68 497 68 685 68 c 256,24,25
 873 68 873 68 1006 200.5 c 128,-1,26
 1139 333 1139 333 1139 521 c 256,27,28
 1139 709 1139 709 1006 842 c 128,-1,29
 873 975 873 975 685 975 c 256,30,31
 497 975 497 975 364 842 c 0,32,33
 266 744 266 744 240 615 c 1,19,-1
EndSplineSet
EndChar

StartChar: c
Encoding: 99 99 70
Width: 1177
GlyphClass: 1
Flags: W
LayerCount: 2
Fore
SplineSet
992 236 m 1,0,-1
 1087 202 l 1,1,2
 1061 166 1061 166 1028 133 c 0,3,4
 867 -28 867 -28 639 -28 c 0,5,6
 412 -28 412 -28 251 133 c 128,-1,7
 90 294 90 294 90 522 c 0,8,9
 90 749 90 749 251 910 c 128,-1,10
 412 1071 412 1071 639 1071 c 0,11,12
 867 1071 867 1071 1028 910 c 0,13,14
 1061 877 1061 877 1087 842 c 1,15,-1
 992 807 l 1,16,17
 977 825 977 825 960 843 c 0,18,19
 827 975 827 975 639 975 c 0,20,21
 452 975 452 975 319 842.5 c 128,-1,22
 186 710 186 710 186 522 c 256,23,24
 186 334 186 334 319 201 c 128,-1,25
 452 68 452 68 639 68 c 0,26,27
 827 68 827 68 960 201 c 0,28,29
 977 218 977 218 992 236 c 1,0,-1
EndSplineSet
EndChar

StartChar: d
Encoding: 100 100 71
Width: 1360
GlyphClass: 1
Flags: W
LayerCount: 2
Fore
SplineSet
1210 0 m 1,0,-1
 1120 0 l 1,1,-1
 1120 200 l 1,2,3
 1094 165 1094 165 1063 133 c 0,4,5
 902 -28 902 -28 674 -28 c 0,6,7
 447 -28 447 -28 286 133 c 128,-1,8
 125 294 125 294 125 521 c 0,9,10
 125 749 125 749 286 910 c 128,-1,11
 447 1071 447 1071 674 1071 c 0,12,13
 902 1071 902 1071 1063 910 c 0,14,15
 1094 878 1094 878 1120 843 c 1,16,-1
 1120 1600 l 1,17,-1
 1210 1600 l 1,18,-1
 1210 0 l 1,0,-1
1120 432 m 1,19,-1
 1120 610 l 1,20,21
 1095 742 1095 742 995 842 c 0,22,23
 862 975 862 975 674 975 c 256,24,25
 486 975 486 975 353 842 c 128,-1,26
 220 709 220 709 220 521 c 256,27,28
 220 333 220 333 353 200.5 c 128,-1,29
 486 68 486 68 674 68 c 256,30,31
 862 68 862 68 995 201 c 0,32,33
 1095 301 1095 301 1120 432 c 1,19,-1
EndSplineSet
EndChar

StartChar: e
Encoding: 101 101 72
Width: 1177
GlyphClass: 1
Flags: W
LayerCount: 2
Fore
SplineSet
337 184 m 1,0,1
 464 68 464 68 639 68 c 0,2,3
 827 68 827 68 960 201 c 0,4,5
 977 218 977 218 992 236 c 1,6,-1
 1087 202 l 1,7,8
 1061 166 1061 166 1028 133 c 0,9,10
 867 -28 867 -28 639 -28 c 0,11,12
 412 -28 412 -28 251 133 c 128,-1,13
 90 294 90 294 90 522 c 0,14,15
 90 749 90 749 251 910 c 128,-1,16
 412 1071 412 1071 639 1071 c 0,17,18
 834 1071 834 1071 980 954 c 0,19,20
 1004 934 1004 934 1028 910 c 0,21,22
 1037 901 1037 901 1045 892 c 1,23,-1
 977 824 l 1,24,-1
 337 184 l 1,0,1
911 885 m 1,25,26
 794 975 794 975 639 975 c 0,27,28
 452 975 452 975 319 842.5 c 128,-1,29
 186 710 186 710 186 522 c 0,30,31
 186 367 186 367 276 250 c 1,32,-1
 911 885 l 1,25,26
EndSplineSet
EndChar

StartChar: f
Encoding: 102 102 73
Width: 523
GlyphClass: 1
Flags: W
LayerCount: 2
Fore
SplineSet
280 892 m 1,0,-1
 280 0 l 1,1,-1
 190 0 l 1,2,-1
 190 892 l 1,3,-1
 90 892 l 1,4,-1
 90 982 l 1,5,-1
 190 982 l 1,6,-1
 190 1248 l 1,7,8
 196 1359 196 1359 275 1439 c 1,9,10
 357 1515 357 1515 464 1515 c 0,11,12
 520 1515 520 1515 582 1494 c 1,13,-1
 554 1414 l 1,14,15
 512 1432 512 1432 473 1432 c 0,16,17
 402 1432 402 1432 339 1375 c 0,18,19
 283 1320 283 1320 280 1242 c 2,20,-1
 280 982 l 1,21,-1
 480 982 l 1,22,-1
 480 892 l 1,23,-1
 280 892 l 1,0,-1
EndSplineSet
EndChar

StartChar: g
Encoding: 103 103 74
Width: 1364
GlyphClass: 1
Flags: W
LayerCount: 2
Fore
SplineSet
1119 615 m 1,0,1
 1093 744 1093 744 995 842 c 0,2,3
 862 975 862 975 674 975 c 256,4,5
 486 975 486 975 353 842 c 128,-1,6
 220 709 220 709 220 521 c 256,7,8
 220 333 220 333 353 200 c 128,-1,9
 486 67 486 67 674 67 c 256,10,11
 862 67 862 67 995 200 c 0,12,13
 1092 297 1092 297 1119 425 c 1,14,-1
 1119 615 l 1,0,1
1117 195 m 1,15,16
 1092 163 1092 163 1063 133 c 0,17,18
 902 -28 902 -28 674 -28 c 0,19,20
 447 -28 447 -28 286 133 c 128,-1,21
 125 294 125 294 125 521 c 0,22,23
 125 749 125 749 286 909.5 c 128,-1,24
 447 1070 447 1070 674 1070 c 0,25,26
 902 1070 902 1070 1063 910 c 0,27,28
 1094 878 1094 878 1120 843 c 1,29,-1
 1120 982 l 1,30,-1
 1210 982 l 1,31,-1
 1210 219 l 2,32,33
 1210 -2 1210 -2 1053 -159 c 0,34,35
 892 -320 892 -320 665 -320 c 0,36,37
 437 -320 437 -320 276 -159 c 0,38,39
 243 -126 243 -126 217 -90 c 1,40,-1
 312 -56 l 1,41,42
 327 -74 327 -74 344 -91 c 0,43,44
 477 -224 477 -224 665 -224 c 0,45,46
 852 -224 852 -224 985 -91 c 0,47,48
 1106 30 1106 30 1117 195 c 1,15,16
EndSplineSet
EndChar

StartChar: h
Encoding: 104 104 75
Width: 1059
GlyphClass: 1
Flags: W
LayerCount: 2
Fore
SplineSet
150 1600 m 1,0,-1
 240 1600 l 1,1,-1
 240 931 l 1,2,3
 354 1041 354 1041 514 1041 c 0,4,5
 688 1041 688 1041 797 932 c 128,-1,6
 906 823 906 823 909 657 c 2,7,-1
 909 0 l 1,8,-1
 819 0 l 1,9,-1
 819 649 l 2,10,11
 819 774 819 774 728.5 862.5 c 128,-1,12
 638 951 638 951 514 951 c 256,13,14
 390 951 390 951 300 864 c 0,15,16
 260 824 260 824 240 781 c 1,17,-1
 240 0 l 1,18,-1
 150 0 l 1,19,-1
 150 1600 l 1,0,-1
EndSplineSet
EndChar

StartChar: i
Encoding: 105 105 76
Width: 430
GlyphClass: 1
Flags: W
LayerCount: 2
Fore
SplineSet
260 982 m 1,0,-1
 260 0 l 1,1,-1
 170 0 l 1,2,-1
 170 982 l 1,3,-1
 260 982 l 1,0,-1
278.5 1304 m 128,-1,5
 305 1278 305 1278 305 1241 c 0,6,7
 305 1203 305 1203 278.5 1177 c 128,-1,8
 252 1151 252 1151 215 1151 c 256,9,10
 178 1151 178 1151 151.5 1177 c 128,-1,11
 125 1203 125 1203 125 1241 c 0,12,13
 125 1278 125 1278 151.5 1304 c 128,-1,14
 178 1330 178 1330 215 1330 c 256,15,4
 252 1330 252 1330 278.5 1304 c 128,-1,5
EndSplineSet
EndChar

StartChar: j
Encoding: 106 106 77
Width: 455
GlyphClass: 1
Flags: W
LayerCount: 2
Fore
SplineSet
49 -138 m 1,0,1
 170 -124 170 -124 170 -2 c 2,2,-1
 170 982 l 1,3,-1
 260 982 l 1,4,-1
 260 0 l 2,5,6
 260 -211 260 -211 49 -228 c 1,7,-1
 49 -138 l 1,0,1
278.5 1304 m 128,-1,9
 305 1278 305 1278 305 1241 c 0,10,11
 305 1203 305 1203 278.5 1177 c 128,-1,12
 252 1151 252 1151 215 1151 c 256,13,14
 178 1151 178 1151 151.5 1177 c 128,-1,15
 125 1203 125 1203 125 1241 c 0,16,17
 125 1278 125 1278 151.5 1304 c 128,-1,18
 178 1330 178 1330 215 1330 c 256,19,8
 252 1330 252 1330 278.5 1304 c 128,-1,9
EndSplineSet
EndChar

StartChar: k
Encoding: 107 107 78
Width: 823
GlyphClass: 1
Flags: W
LayerCount: 2
Fore
SplineSet
629 982 m 1,0,-1
 387 682 l 1,1,-1
 773 0 l 1,2,-1
 661 0 l 1,3,-1
 328 610 l 1,4,-1
 240 501 l 1,5,-1
 240 0 l 1,6,-1
 150 0 l 1,7,-1
 150 1400 l 1,8,-1
 240 1400 l 1,9,-1
 240 645 l 1,10,-1
 513 982 l 1,11,-1
 629 982 l 1,0,-1
EndSplineSet
EndChar

StartChar: l
Encoding: 108 108 79
Width: 390
GlyphClass: 1
Flags: W
LayerCount: 2
Fore
SplineSet
240 1600 m 1,0,-1
 240 0 l 1,1,-1
 150 0 l 1,2,-1
 150 1600 l 1,3,-1
 240 1600 l 1,0,-1
EndSplineSet
EndChar

StartChar: m
Encoding: 109 109 80
Width: 1375
GlyphClass: 1
Flags: W
LayerCount: 2
Fore
SplineSet
150 982 m 1,0,-1
 240 982 l 1,1,-1
 240 959 l 1,2,3
 324 1040 324 1040 441 1040 c 0,4,5
 562 1040 562 1040 647 955 c 0,6,7
 670 932 670 932 687 905 c 1,8,9
 704 931 704 931 728 955 c 0,10,11
 813 1040 813 1040 934 1040 c 256,12,13
 1055 1040 1055 1040 1140 955 c 0,14,15
 1221 873 1221 873 1225 758 c 1,16,-1
 1225 0 l 1,17,-1
 1135 0 l 1,18,-1
 1135 758 l 1,19,-1
 1136 758 l 1,20,21
 1132 836 1132 836 1077 891 c 0,22,23
 1017 950 1017 950 934 950 c 256,24,25
 851 950 851 950 791.5 891 c 128,-1,26
 732 832 732 832 732 744 c 2,27,-1
 732 0 l 1,28,-1
 642 0 l 1,29,-1
 642 758 l 1,30,-1
 643 758 l 1,31,32
 639 836 639 836 584 891 c 0,33,34
 524 950 524 950 441 950 c 256,35,36
 358 950 358 950 299 891 c 0,37,38
 247 840 247 840 240 766 c 1,39,-1
 240 0 l 1,40,-1
 150 0 l 1,41,-1
 150 982 l 1,0,-1
EndSplineSet
EndChar

StartChar: n
Encoding: 110 110 81
Width: 1071
GlyphClass: 1
Flags: W
LayerCount: 2
Fore
SplineSet
240 763 m 1,0,-1
 240 0 l 1,1,-1
 150 0 l 1,2,-1
 150 982 l 1,3,-1
 240 982 l 1,4,-1
 240 919 l 1,5,6
 363 1041 363 1041 526 1041 c 0,7,8
 700 1041 700 1041 809 932 c 128,-1,9
 918 823 918 823 921 657 c 2,10,-1
 921 0 l 1,11,-1
 831 0 l 1,12,-1
 831 649 l 2,13,14
 831 774 831 774 740.5 862.5 c 128,-1,15
 650 951 650 951 526 951 c 256,16,17
 402 951 402 951 312 864 c 0,18,19
 263 815 263 815 240 763 c 1,0,-1
EndSplineSet
EndChar

StartChar: o
Encoding: 111 111 82
Width: 1278
GlyphClass: 1
Flags: W
LayerCount: 2
Fore
SplineSet
639 1071 m 0,0,1
 867 1071 867 1071 1027.5 910 c 128,-1,2
 1188 749 1188 749 1188 521 c 0,3,4
 1188 294 1188 294 1027.5 133 c 128,-1,5
 867 -28 867 -28 639 -28 c 0,6,7
 412 -28 412 -28 251 133 c 128,-1,8
 90 294 90 294 90 521 c 0,9,10
 90 749 90 749 251 910 c 128,-1,11
 412 1071 412 1071 639 1071 c 0,0,1
318 842 m 128,-1,13
 185 709 185 709 185 521 c 256,14,15
 185 333 185 333 318 200.5 c 128,-1,16
 451 68 451 68 639 68 c 256,17,18
 827 68 827 68 960 200.5 c 128,-1,19
 1093 333 1093 333 1093 521 c 256,20,21
 1093 709 1093 709 960 842 c 128,-1,22
 827 975 827 975 639 975 c 256,23,12
 451 975 451 975 318 842 c 128,-1,13
EndSplineSet
EndChar

StartChar: p
Encoding: 112 112 83
Width: 1334
GlyphClass: 1
Flags: W
LayerCount: 2
Fore
SplineSet
150 982 m 1,0,-1
 240 982 l 1,1,-1
 240 844 l 1,2,3
 265 878 265 878 297 910 c 0,4,5
 458 1070 458 1070 685 1070 c 0,6,7
 913 1070 913 1070 1073.5 909.5 c 128,-1,8
 1234 749 1234 749 1234 521 c 0,9,10
 1234 294 1234 294 1073.5 133 c 128,-1,11
 913 -28 913 -28 685 -28 c 0,12,13
 458 -28 458 -28 297 133 c 0,14,15
 265 165 265 165 240 199 c 1,16,-1
 240 -375 l 1,17,-1
 150 -375 l 1,18,-1
 150 982 l 1,0,-1
240 615 m 1,19,-1
 240 427 l 1,20,21
 266 298 266 298 364 200 c 0,22,23
 497 67 497 67 685 67 c 256,24,25
 873 67 873 67 1006 200 c 128,-1,26
 1139 333 1139 333 1139 521 c 256,27,28
 1139 709 1139 709 1006 842 c 128,-1,29
 873 975 873 975 685 975 c 256,30,31
 497 975 497 975 364 842 c 0,32,33
 266 744 266 744 240 615 c 1,19,-1
EndSplineSet
EndChar

StartChar: q
Encoding: 113 113 84
Width: 1335
GlyphClass: 1
Flags: W
LayerCount: 2
Fore
SplineSet
1185 -375 m 1,0,-1
 1095 -375 l 1,1,-1
 1095 200 l 1,2,3
 1069 165 1069 165 1038 133 c 0,4,5
 877 -28 877 -28 649 -28 c 0,6,7
 422 -28 422 -28 261 133 c 128,-1,8
 100 294 100 294 100 521 c 0,9,10
 100 749 100 749 261 909.5 c 128,-1,11
 422 1070 422 1070 649 1070 c 0,12,13
 877 1070 877 1070 1038 910 c 0,14,15
 1069 878 1069 878 1095 843 c 1,16,-1
 1095 982 l 1,17,-1
 1185 982 l 1,18,-1
 1185 -375 l 1,0,-1
1095 432 m 1,19,-1
 1095 610 l 1,20,21
 1070 742 1070 742 970 842 c 0,22,23
 837 975 837 975 649 975 c 256,24,25
 461 975 461 975 328 842 c 128,-1,26
 195 709 195 709 195 521 c 256,27,28
 195 333 195 333 328 200 c 128,-1,29
 461 67 461 67 649 67 c 256,30,31
 837 67 837 67 970 200 c 0,32,33
 1070 300 1070 300 1095 432 c 1,19,-1
EndSplineSet
EndChar

StartChar: r
Encoding: 114 114 85
Width: 599
GlyphClass: 1
Flags: W
LayerCount: 2
Fore
SplineSet
150 982 m 1,0,-1
 240 982 l 1,1,-1
 240 803 l 1,2,3
 268 843 268 843 305 880 c 0,4,5
 424 999 424 999 549 1005 c 1,6,-1
 549 907 l 1,7,8
 464 903 464 903 373 812 c 0,9,10
 245 685 245 685 240 507 c 1,11,-1
 240 0 l 1,12,-1
 150 0 l 1,13,-1
 150 982 l 1,0,-1
EndSplineSet
EndChar

StartChar: s
Encoding: 115 115 86
Width: 802
GlyphClass: 1
Flags: W
LayerCount: 2
Fore
SplineSet
420 505 m 1,0,1
 305 567 305 567 261 611 c 0,2,3
 192 680 192 680 192 777 c 0,4,5
 192 875 192 875 261 944.5 c 128,-1,6
 330 1014 330 1014 427 1014 c 0,7,8
 525 1014 525 1014 589 950 c 0,9,10
 651 887 651 887 651 807 c 2,11,-1
 651 802 l 1,12,-1
 573 771 l 1,13,14
 563 847 563 847 525.5 885 c 128,-1,15
 488 923 488 923 427 923 c 0,16,17
 367 923 367 923 324 880.5 c 128,-1,18
 281 838 281 838 281 777 c 0,19,20
 281 717 281 717 324 674 c 0,21,22
 349 649 349 649 430 598 c 1,23,24
 558 528 558 528 612 474 c 0,25,26
 697 388 697 388 697 269 c 0,27,28
 697 147 697 147 612 61.5 c 128,-1,29
 527 -24 527 -24 406 -24 c 256,30,31
 285 -24 285 -24 200 61.5 c 128,-1,32
 115 147 115 147 115 249 c 1,33,-1
 204 272 l 1,34,35
 204 184 204 184 263.5 125 c 128,-1,36
 323 66 323 66 406 66 c 256,37,38
 489 66 489 66 548.5 125 c 128,-1,39
 608 184 608 184 608 269 c 0,40,41
 608 352 608 352 549 411 c 0,42,43
 517 443 517 443 420 505 c 1,0,1
EndSplineSet
EndChar

StartChar: t
Encoding: 116 116 87
Width: 670
GlyphClass: 1
Flags: W
LayerCount: 2
Fore
SplineSet
290 982 m 1,0,-1
 290 1400 l 1,1,-1
 380 1400 l 1,2,-1
 380 982 l 1,3,-1
 580 982 l 1,4,-1
 580 892 l 1,5,-1
 380 892 l 1,6,-1
 380 0 l 1,7,-1
 290 0 l 1,8,-1
 290 892 l 1,9,-1
 90 892 l 1,10,-1
 90 982 l 1,11,-1
 290 982 l 1,0,-1
EndSplineSet
EndChar

StartChar: u
Encoding: 117 117 88
Width: 1099
GlyphClass: 1
Flags: W
LayerCount: 2
Fore
SplineSet
555 -14 m 0,0,1
 371 -14 371 -14 262 95 c 128,-1,2
 153 204 153 204 150 370 c 2,3,-1
 150 982 l 1,4,-1
 240 982 l 1,5,-1
 240 378 l 2,6,7
 240 253 240 253 331 165 c 0,8,9
 421 76 421 76 554 76 c 0,10,11
 678 76 678 76 768.5 164.5 c 128,-1,12
 859 253 859 253 859 378 c 2,13,-1
 859 982 l 1,14,-1
 949 982 l 1,15,-1
 949 370 l 2,16,17
 946 204 946 204 837 95 c 256,18,19
 728 -14 728 -14 555 -14 c 0,0,1
EndSplineSet
EndChar

StartChar: v
Encoding: 118 118 89
Width: 1064
GlyphClass: 1
Flags: W
LayerCount: 2
Fore
SplineSet
532 164 m 1,0,-1
 910 982 l 1,1,-1
 1014 982 l 1,2,-1
 532 -27 l 1,3,-1
 50 982 l 1,4,-1
 154 982 l 1,5,-1
 532 164 l 1,0,-1
EndSplineSet
EndChar

StartChar: w
Encoding: 119 119 90
Width: 1375
GlyphClass: 1
Flags: W
LayerCount: 2
Fore
SplineSet
642 260 m 1,0,-1
 642 982 l 1,1,-1
 732 982 l 1,2,-1
 732 282 l 2,3,4
 732 194 732 194 791.5 135 c 128,-1,5
 851 76 851 76 934 76 c 256,6,7
 1017 76 1017 76 1077 135 c 0,8,9
 1132 190 1132 190 1136 268 c 1,10,-1
 1135 268 l 1,11,-1
 1135 982 l 1,12,-1
 1225 982 l 1,13,-1
 1225 268 l 1,14,15
 1221 153 1221 153 1140 72 c 0,16,17
 1055 -14 1055 -14 934 -14 c 256,18,19
 813 -14 813 -14 728 72 c 0,20,21
 705 95 705 95 688 120 c 1,22,23
 671 95 671 95 647 72 c 0,24,25
 562 -14 562 -14 441 -14 c 256,26,27
 320 -14 320 -14 235 72 c 0,28,29
 154 153 154 153 150 268 c 1,30,-1
 150 982 l 1,31,-1
 240 982 l 1,32,-1
 240 268 l 1,33,-1
 239 268 l 1,34,35
 243 190 243 190 299 135 c 0,36,37
 358 76 358 76 441 76 c 256,38,39
 524 76 524 76 584 135 c 0,40,41
 635 186 635 186 642 260 c 1,0,-1
EndSplineSet
EndChar

StartChar: x
Encoding: 120 120 91
Width: 871
GlyphClass: 1
Flags: W
LayerCount: 2
Fore
SplineSet
741 982 m 1,0,-1
 488 544 l 1,1,-1
 485 539 l 1,2,-1
 488 534 l 1,3,-1
 796 0 l 1,4,-1
 692 0 l 1,5,-1
 436 443 l 1,6,-1
 180 0 l 1,7,-1
 75 0 l 1,8,-1
 384 534 l 1,9,-1
 387 539 l 1,10,-1
 384 544 l 1,11,-1
 131 982 l 1,12,-1
 235 982 l 1,13,-1
 436 635 l 1,14,-1
 636 982 l 1,15,-1
 741 982 l 1,0,-1
EndSplineSet
EndChar

StartChar: y
Encoding: 121 121 92
Width: 1005
GlyphClass: 1
Flags: W
LayerCount: 2
Fore
SplineSet
503 88 m 1,0,-1
 281 -375 l 1,1,-1
 193 -375 l 1,2,-1
 458 181 l 1,3,-1
 75 982 l 1,4,-1
 177 982 l 1,5,-1
 503 278 l 1,6,-1
 829 982 l 1,7,-1
 930 982 l 1,8,-1
 503 87 l 1,9,-1
 503 88 l 1,0,-1
EndSplineSet
EndChar

StartChar: z
Encoding: 122 122 93
Width: 1000
GlyphClass: 1
Flags: W
LayerCount: 2
Fore
SplineSet
657 892 m 1,0,-1
 150 892 l 1,1,-1
 150 982 l 1,2,-1
 812 982 l 1,3,-1
 304 90 l 1,4,-1
 850 90 l 1,5,-1
 850 0 l 1,6,-1
 150 0 l 1,7,-1
 657 892 l 1,0,-1
EndSplineSet
EndChar

StartChar: braceleft
Encoding: 123 123 94
Width: 866
GlyphClass: 1
Flags: W
LayerCount: 2
Fore
SplineSet
125 653 m 1,0,1
 134 650 134 650 145 650 c 0,2,3
 191 650 191 650 268 694 c 0,4,5
 383 760 383 760 419 889 c 0,6,7
 438 961 438 961 438 1041 c 0,8,9
 438 1085 438 1085 432 1131 c 0,10,11
 418 1203 418 1203 418 1266 c 0,12,13
 418 1333 418 1333 434 1392 c 0,14,15
 464 1504 464 1504 567 1562 c 0,16,17
 632 1600 632 1600 703 1600 c 0,18,19
 722 1600 722 1600 741 1597 c 1,20,-1
 741 1522 l 1,21,22
 723 1525 723 1525 705 1525 c 0,23,24
 653 1525 653 1525 604 1498 c 0,25,26
 529 1455 529 1455 507 1372 c 0,27,28
 492 1317 492 1317 492 1247 c 0,29,30
 492 1217 492 1217 495 1183 c 1,31,32
 511 1107 511 1107 511 1034 c 0,33,34
 511 949 511 949 490 869 c 0,35,36
 446 711 446 711 305 630 c 0,37,38
 288 621 288 621 270 613 c 1,39,40
 288 604 288 604 305 595 c 0,41,42
 446 514 446 514 490 356 c 0,43,44
 511 276 511 276 511 191 c 0,45,46
 511 118 511 118 495 42 c 1,47,48
 492 8 492 8 492 -22 c 0,49,50
 492 -92 492 -92 507 -147 c 0,51,52
 529 -230 529 -230 604 -272 c 0,53,54
 655 -300 655 -300 708 -300 c 0,55,56
 724 -300 724 -300 741 -298 c 1,57,-1
 741 -372 l 1,58,59
 722 -375 722 -375 703 -375 c 0,60,61
 632 -375 632 -375 567 -337 c 0,62,63
 464 -279 464 -279 434 -166 c 0,64,65
 418 -107 418 -107 418 -40 c 0,66,67
 418 23 418 23 432 94 c 0,68,69
 438 140 438 140 438 184 c 0,70,71
 438 264 438 264 419 336 c 0,72,73
 383 465 383 465 268 531 c 0,74,75
 191 575 191 575 145 575 c 0,76,77
 134 575 134 575 125 572 c 1,78,-1
 125 653 l 1,0,1
EndSplineSet
EndChar

StartChar: bar
Encoding: 124 124 95
Width: 390
GlyphClass: 1
Flags: W
LayerCount: 2
Fore
SplineSet
240 1600 m 1,0,-1
 240 -375 l 1,1,-1
 150 -375 l 1,2,-1
 150 1600 l 1,3,-1
 240 1600 l 1,0,-1
EndSplineSet
EndChar

StartChar: braceright
Encoding: 125 125 96
Width: 866
GlyphClass: 1
Flags: W
LayerCount: 2
Fore
SplineSet
741 572 m 1,0,1
 732 575 732 575 721 575 c 0,2,3
 675 575 675 575 598 531 c 0,4,5
 483 465 483 465 447 336 c 0,6,7
 428 264 428 264 428 184 c 0,8,9
 428 140 428 140 434 94 c 0,10,11
 448 23 448 23 448 -40 c 0,12,13
 448 -107 448 -107 432 -166 c 0,14,15
 402 -279 402 -279 299 -337 c 0,16,17
 234 -375 234 -375 163 -375 c 0,18,19
 144 -375 144 -375 125 -372 c 1,20,-1
 125 -298 l 1,21,22
 142 -300 142 -300 158 -300 c 0,23,24
 211 -300 211 -300 262 -272 c 0,25,26
 337 -230 337 -230 359 -147 c 0,27,28
 374 -92 374 -92 374 -22 c 0,29,30
 374 8 374 8 371 42 c 1,31,32
 355 118 355 118 355 191 c 0,33,34
 355 276 355 276 376 356 c 0,35,36
 420 514 420 514 561 595 c 0,37,38
 578 604 578 604 596 613 c 1,39,40
 578 621 578 621 561 630 c 0,41,42
 420 711 420 711 376 869 c 0,43,44
 355 949 355 949 355 1034 c 0,45,46
 355 1107 355 1107 371 1183 c 1,47,48
 374 1217 374 1217 374 1247 c 0,49,50
 374 1317 374 1317 359 1372 c 0,51,52
 337 1455 337 1455 262 1498 c 0,53,54
 213 1525 213 1525 161 1525 c 0,55,56
 143 1525 143 1525 125 1522 c 1,57,-1
 125 1597 l 1,58,59
 144 1600 144 1600 163 1600 c 0,60,61
 234 1600 234 1600 299 1562 c 0,62,63
 402 1504 402 1504 432 1392 c 0,64,65
 448 1333 448 1333 448 1266 c 0,66,67
 448 1203 448 1203 434 1131 c 0,68,69
 428 1085 428 1085 428 1041 c 0,70,71
 428 961 428 961 447 889 c 0,72,73
 483 760 483 760 598 694 c 0,74,75
 675 650 675 650 721 650 c 0,76,77
 732 650 732 650 741 653 c 1,78,-1
 741 572 l 1,0,1
EndSplineSet
EndChar

StartChar: asciitilde
Encoding: 126 126 97
Width: 1277
GlyphClass: 1
Flags: W
LayerCount: 2
Fore
SplineSet
638 861 m 0,0,1
 826 752 826 752 911 752 c 0,2,3
 926 752 926 752 938 755 c 0,4,5
 1015 778 1015 778 1046 855 c 0,6,7
 1061 893 1061 893 1061 932 c 1,8,-1
 1152 918 l 1,9,10
 1148 870 1148 870 1129 821 c 0,11,12
 1083 710 1083 710 973 673 c 0,13,14
 948 665 948 665 917 665 c 0,15,16
 812 665 812 665 639 764 c 0,17,18
 449 873 449 873 365 873 c 0,19,20
 351 873 351 873 339 870 c 0,21,22
 262 847 262 847 231 770 c 0,23,24
 216 731 216 731 215 693 c 1,25,-1
 125 707 l 1,26,27
 127 755 127 755 147 804 c 0,28,29
 193 915 193 915 304 952 c 0,30,31
 329 960 329 960 359 960 c 0,32,33
 465 960 465 960 638 861 c 0,0,1
EndSplineSet
EndChar

StartChar: exclamdown
Encoding: 161 161 98
Width: 430
GlyphClass: 1
Flags: W
LayerCount: 2
Fore
SplineSet
151.5 1465 m 128,-1,1
 125 1491 125 1491 125 1528 c 0,2,3
 125 1566 125 1566 151.5 1592 c 128,-1,4
 178 1618 178 1618 215 1618 c 256,5,6
 252 1618 252 1618 278.5 1592 c 128,-1,7
 305 1566 305 1566 305 1528 c 0,8,9
 305 1491 305 1491 278.5 1465 c 128,-1,10
 252 1439 252 1439 215 1439 c 256,11,0
 178 1439 178 1439 151.5 1465 c 128,-1,1
172 4 m 1,12,-1
 172 1328 l 1,13,-1
 262 1328 l 1,14,-1
 262 4 l 1,15,-1
 172 4 l 1,12,-1
EndSplineSet
EndChar

StartChar: cent
Encoding: 162 162 99
Width: 1013
GlyphClass: 1
Flags: W
LayerCount: 2
Fore
SplineSet
551 705 m 1,0,1
 694 707 694 707 797 810 c 0,2,3
 810 823 810 823 825 841 c 1,4,-1
 912 809 l 1,5,6
 886 774 886 774 860 747 c 0,7,8
 731 618 731 618 551 616 c 1,9,-1
 551 462 l 1,10,-1
 461 462 l 1,11,-1
 461 623 l 1,12,13
 330 646 330 646 230 747 c 0,14,15
 99 877 99 877 99 1062 c 0,16,17
 99 1246 99 1246 230 1377 c 0,18,19
 330 1477 330 1477 461 1501 c 1,20,-1
 461 1662 l 1,21,-1
 551 1662 l 1,22,-1
 551 1508 l 1,23,24
 731 1506 731 1506 860 1377 c 0,25,26
 886 1350 886 1350 912 1316 c 1,27,-1
 825 1283 l 1,28,29
 810 1301 810 1301 797 1315 c 0,30,31
 694 1417 694 1417 551 1419 c 1,32,-1
 551 705 l 1,0,1
461 1410 m 1,33,34
 366 1388 366 1388 293 1315 c 0,35,36
 188 1210 188 1210 188 1062 c 256,37,38
 188 914 188 914 293 810 c 0,39,40
 366 736 366 736 461 714 c 1,41,-1
 461 1410 l 1,33,34
EndSplineSet
EndChar

StartChar: sterling
Encoding: 163 163 100
Width: 1130
GlyphClass: 1
Flags: W
LayerCount: 2
Fore
SplineSet
448 555 m 1,0,1
 451 534 451 534 453 512 c 256,2,3
 455 490 455 490 455 468 c 0,4,5
 455 264 455 264 285 63 c 1,6,7
 410 108 410 108 531 108 c 0,8,9
 603 108 603 108 674 92 c 0,10,11
 773 69 773 69 862 69 c 0,12,13
 942 69 942 69 1013 87 c 1,14,-1
 1030 -2 l 1,15,16
 949 -22 949 -22 862 -22 c 0,17,18
 773 -22 773 -22 679 0 c 0,19,20
 581 21 581 21 506 21 c 0,21,22
 438 21 438 21 389 4 c 0,23,24
 285 -34 285 -34 187 -83 c 1,25,-1
 100 20 l 1,26,27
 224 130 224 130 256 169 c 0,28,29
 364 297 364 297 364 461 c 0,30,31
 364 483 364 483 362 505 c 0,32,33
 360 530 360 530 356 555 c 1,34,-1
 128 555 l 1,35,-1
 128 645 l 1,36,-1
 337 645 l 1,37,38
 311 740 311 740 262 834 c 1,39,40
 151 1014 151 1014 137 1177 c 0,41,42
 135 1196 135 1196 135 1215 c 0,43,44
 135 1354 135 1354 227 1464 c 0,45,46
 330 1587 330 1587 493 1602 c 0,47,48
 512 1603 512 1603 531 1603 c 0,49,50
 670 1603 670 1603 781 1511 c 0,51,52
 905 1406 905 1406 920 1244 c 0,53,54
 923 1221 923 1221 923 1200 c 0,55,56
 923 1137 923 1137 901 1086 c 1,57,-1
 815 1115 l 1,58,59
 830 1158 830 1158 830 1210 c 0,60,61
 830 1224 830 1224 829 1238 c 0,62,63
 817 1361 817 1361 722 1441 c 0,64,65
 638 1511 638 1511 532 1511 c 0,66,67
 518 1511 518 1511 504 1510 c 0,68,69
 380 1499 380 1499 300 1404 c 0,70,71
 230 1320 230 1320 230 1215 c 0,72,73
 230 1200 230 1200 231 1185 c 0,74,75
 241 1072 241 1072 309 929 c 1,76,77
 395 791 395 791 431 645 c 1,78,-1
 628 645 l 1,79,-1
 628 555 l 1,80,-1
 448 555 l 1,0,1
EndSplineSet
EndChar

StartChar: currency
Encoding: 164 164 101
Width: 1112
GlyphClass: 1
Flags: W
LayerCount: 2
Fore
SplineSet
303 1462 m 1,0,1
 411 1551 411 1551 556 1551 c 256,2,3
 701 1551 701 1551 809 1462 c 1,4,-1
 948 1601 l 1,5,-1
 1012 1537 l 1,6,-1
 873 1398 l 1,7,8
 962 1290 962 1290 962 1145 c 256,9,10
 962 1000 962 1000 873 892 c 1,11,-1
 1012 753 l 1,12,-1
 948 689 l 1,13,-1
 809 828 l 1,14,15
 701 739 701 739 556 739 c 256,16,17
 411 739 411 739 303 828 c 1,18,-1
 164 689 l 1,19,-1
 100 753 l 1,20,-1
 239 892 l 1,21,22
 150 1000 150 1000 150 1145 c 256,23,24
 150 1290 150 1290 239 1398 c 1,25,-1
 100 1537 l 1,26,-1
 164 1601 l 1,27,-1
 303 1462 l 1,0,1
745 1398 m 0,28,29
 664 1461 664 1461 556 1461 c 256,30,31
 448 1461 448 1461 367 1398 c 0,32,33
 349 1385 349 1385 333 1369 c 0,34,35
 316 1352 316 1352 303 1334 c 0,36,37
 240 1253 240 1253 240 1145 c 256,38,39
 240 1037 240 1037 303 956 c 0,40,41
 316 938 316 938 333 922 c 0,42,43
 349 905 349 905 367 892 c 0,44,45
 448 829 448 829 556 829 c 256,46,47
 664 829 664 829 745 892 c 0,48,49
 763 905 763 905 780 922 c 0,50,51
 796 938 796 938 809 956 c 0,52,53
 872 1037 872 1037 872 1145 c 256,54,55
 872 1253 872 1253 809 1334 c 0,56,57
 796 1352 796 1352 780 1369 c 0,58,59
 763 1385 763 1385 745 1398 c 0,28,29
EndSplineSet
EndChar

StartChar: yen
Encoding: 165 165 102
Width: 1291
GlyphClass: 1
Flags: W
LayerCount: 2
Fore
SplineSet
650 755 m 1,0,-1
 1138 1600 l 1,1,-1
 1241 1600 l 1,2,-1
 752 755 l 1,3,-1
 1046 755 l 1,4,-1
 1046 665 l 1,5,-1
 700 665 l 1,6,-1
 690 647 l 1,7,-1
 690 545 l 1,8,-1
 1046 545 l 1,9,-1
 1046 455 l 1,10,-1
 690 455 l 1,11,-1
 690 0 l 1,12,-1
 600 0 l 1,13,-1
 600 455 l 1,14,-1
 246 455 l 1,15,-1
 246 545 l 1,16,-1
 600 545 l 1,17,-1
 600 647 l 1,18,-1
 590 665 l 1,19,-1
 246 665 l 1,20,-1
 246 755 l 1,21,-1
 538 755 l 1,22,-1
 50 1600 l 1,23,-1
 153 1600 l 1,24,-1
 640 755 l 1,25,-1
 650 755 l 1,0,-1
EndSplineSet
EndChar

StartChar: brokenbar
Encoding: 166 166 103
Width: 390
GlyphClass: 1
Flags: W
LayerCount: 2
Fore
SplineSet
240 1600 m 1,0,-1
 240 751 l 1,1,-1
 150 751 l 1,2,-1
 150 1600 l 1,3,-1
 240 1600 l 1,0,-1
240 474 m 1,4,-1
 240 -375 l 1,5,-1
 150 -375 l 1,6,-1
 150 474 l 1,7,-1
 240 474 l 1,4,-1
EndSplineSet
EndChar

StartChar: section
Encoding: 167 167 104
Width: 1158
GlyphClass: 1
Flags: W
LayerCount: 2
Fore
SplineSet
881 345 m 1,0,1
 892 359 892 359 907 374 c 0,2,3
 970 437 970 437 970 597 c 0,4,5
 970 756 970 756 857 869 c 0,6,7
 758 968 758 968 614 1027 c 1,8,9
 443 1084 443 1084 344 1183 c 0,10,11
 301 1226 301 1226 277 1277 c 1,12,13
 266 1263 266 1263 251 1248 c 0,14,15
 188 1185 188 1185 188 1025 c 0,16,17
 188 866 188 866 301 753 c 0,18,19
 400 654 400 654 544 595 c 1,20,21
 715 538 715 538 814 439 c 0,22,23
 857 396 857 396 881 345 c 1,0,1
250 1362 m 1,24,25
 245 1391 245 1391 245 1423 c 0,26,27
 245 1561 245 1561 344 1660.5 c 128,-1,28
 443 1760 443 1760 584 1760 c 0,29,30
 724 1760 724 1760 824 1661 c 0,31,32
 879 1608 879 1608 900 1542 c 1,33,-1
 819 1510 l 1,34,35
 801 1559 801 1559 760 1600 c 0,36,37
 687 1672 687 1672 584 1672 c 256,38,39
 481 1672 481 1672 408 1599.5 c 128,-1,40
 335 1527 335 1527 335 1423 c 0,41,42
 335 1320 335 1320 408 1247 c 0,43,44
 476 1180 476 1180 596 1124 c 1,45,46
 788 1062 788 1062 919 931 c 0,47,48
 1058 793 1058 793 1058 597 c 0,49,50
 1058 400 1058 400 969 311 c 0,51,52
 933 275 933 275 908 260 c 1,53,54
 913 231 913 231 913 199 c 0,55,56
 913 61 913 61 814 -38.5 c 128,-1,57
 715 -138 715 -138 574 -138 c 0,58,59
 434 -138 434 -138 334 -39 c 0,60,61
 279 14 279 14 258 80 c 1,62,-1
 339 112 l 1,63,64
 357 63 357 63 398 22 c 0,65,66
 471 -50 471 -50 574 -50 c 256,67,68
 677 -50 677 -50 750 22.5 c 128,-1,69
 823 95 823 95 823 199 c 0,70,71
 823 302 823 302 750 375 c 0,72,73
 682 442 682 442 562 498 c 1,74,75
 370 560 370 560 239 691 c 0,76,77
 100 829 100 829 100 1025 c 0,78,79
 100 1222 100 1222 189 1311 c 0,80,81
 225 1347 225 1347 250 1362 c 1,24,25
EndSplineSet
EndChar

StartChar: dieresis
Encoding: 168 168 105
Width: 730
GlyphClass: 1
Flags: W
LayerCount: 2
Fore
SplineSet
278.5 1304 m 128,-1,1
 305 1278 305 1278 305 1241 c 0,2,3
 305 1203 305 1203 278.5 1177 c 128,-1,4
 252 1151 252 1151 215 1151 c 256,5,6
 178 1151 178 1151 151.5 1177 c 128,-1,7
 125 1203 125 1203 125 1241 c 0,8,9
 125 1278 125 1278 151.5 1304 c 128,-1,10
 178 1330 178 1330 215 1330 c 256,11,0
 252 1330 252 1330 278.5 1304 c 128,-1,1
578.5 1304 m 128,-1,13
 605 1278 605 1278 605 1241 c 0,14,15
 605 1203 605 1203 578.5 1177 c 128,-1,16
 552 1151 552 1151 515 1151 c 256,17,18
 478 1151 478 1151 451.5 1177 c 128,-1,19
 425 1203 425 1203 425 1241 c 0,20,21
 425 1278 425 1278 451.5 1304 c 128,-1,22
 478 1330 478 1330 515 1330 c 256,23,12
 552 1330 552 1330 578.5 1304 c 128,-1,13
EndSplineSet
EndChar

StartChar: copyright
Encoding: 169 169 106
Width: 1405
GlyphClass: 1
Flags: W
LayerCount: 2
Fore
SplineSet
917 442 m 1,0,-1
 985 417 l 1,1,2
 965 389 965 389 945 369 c 0,3,4
 848 272 848 272 711 272 c 256,5,6
 574 272 574 272 477 369 c 128,-1,7
 380 466 380 466 380 603 c 256,8,9
 380 740 380 740 477 837 c 128,-1,10
 574 934 574 934 711 934 c 256,11,12
 848 934 848 934 945 837 c 0,13,14
 965 817 965 817 985 789 c 1,15,-1
 917 764 l 1,16,17
 906 778 906 778 896 789 c 0,18,19
 819 865 819 865 711 865 c 256,20,21
 603 865 603 865 526 788.5 c 128,-1,22
 449 712 449 712 449 603 c 0,23,24
 449 495 449 495 526 418 c 128,-1,25
 603 341 603 341 711 341 c 256,26,27
 819 341 819 341 896 418 c 0,28,29
 906 428 906 428 917 442 c 1,0,-1
1124 1028 m 128,-1,31
 1300 852 1300 852 1300 603 c 256,32,33
 1300 354 1300 354 1124 178 c 128,-1,34
 948 2 948 2 700 2 c 0,35,36
 451 2 451 2 275 178 c 128,-1,37
 99 354 99 354 99 603 c 256,38,39
 99 852 99 852 275 1028 c 128,-1,40
 451 1204 451 1204 700 1204 c 0,41,30
 948 1204 948 1204 1124 1028 c 128,-1,31
700 1133 m 0,42,43
 480 1133 480 1133 325 978 c 128,-1,44
 170 823 170 823 170 603 c 0,45,46
 170 384 170 384 325 228.5 c 128,-1,47
 480 73 480 73 700 73 c 0,48,49
 919 73 919 73 1074 228.5 c 128,-1,50
 1229 384 1229 384 1229 603 c 0,51,52
 1229 823 1229 823 1074 978 c 128,-1,53
 919 1133 919 1133 700 1133 c 0,42,43
EndSplineSet
EndChar

StartChar: ordfeminine
Encoding: 170 170 107
Width: 878
GlyphClass: 1
Flags: W
LayerCount: 2
Fore
SplineSet
131 944 m 1,0,-1
 706 944 l 1,1,-1
 706 913 l 1,2,-1
 100 913 l 1,3,-1
 100 1541 l 1,4,-1
 131 1541 l 1,5,-1
 131 944 l 1,0,-1
778 1071 m 1,6,-1
 723 1071 l 1,7,-1
 723 1156 l 1,8,9
 721 1153 721 1153 706 1137 c 0,10,11
 626 1058 626 1058 514 1058 c 0,12,13
 401 1058 401 1058 322 1137.5 c 128,-1,14
 243 1217 243 1217 243 1329 c 256,15,16
 243 1441 243 1441 322 1520.5 c 128,-1,17
 401 1600 401 1600 514 1600 c 0,18,19
 626 1600 626 1600 706 1521 c 0,20,21
 721 1505 721 1505 723 1502 c 1,22,-1
 723 1557 l 1,23,-1
 778 1557 l 1,24,-1
 778 1071 l 1,6,-1
723 1286 m 1,25,-1
 723 1371 l 1,26,27
 712 1433 712 1433 664 1480 c 0,28,29
 602 1542 602 1542 514 1542 c 0,30,31
 425 1542 425 1542 362.5 1479.5 c 128,-1,32
 300 1417 300 1417 300 1329 c 0,33,34
 300 1240 300 1240 362.5 1178 c 128,-1,35
 425 1116 425 1116 514 1116 c 0,36,37
 602 1116 602 1116 664 1178 c 0,38,39
 712 1225 712 1225 723 1286 c 1,25,-1
EndSplineSet
EndChar

StartChar: guillemotleft
Encoding: 171 171 108
Width: 980
GlyphClass: 1
Flags: W
LayerCount: 2
Fore
SplineSet
444 462 m 1,0,-1
 880 922 l 1,1,-1
 880 818 l 1,2,-1
 549 462 l 1,3,-1
 880 106 l 1,4,-1
 880 1 l 1,5,-1
 444 462 l 1,0,-1
100 462 m 1,6,-1
 529 922 l 1,7,-1
 529 818 l 1,8,-1
 198 462 l 1,9,-1
 529 106 l 1,10,-1
 529 1 l 1,11,-1
 100 462 l 1,6,-1
EndSplineSet
EndChar

StartChar: registered
Encoding: 174 174 109
Width: 1161
GlyphClass: 1
Flags: W
LayerCount: 2
Fore
SplineSet
467 1371 m 1,0,-1
 467 993 l 1,1,-1
 583 993 l 2,2,3
 661 993 661 993 716.5 1048.5 c 128,-1,4
 772 1104 772 1104 772 1182 c 256,5,6
 772 1260 772 1260 716.5 1315.5 c 128,-1,7
 661 1371 661 1371 583 1371 c 2,8,-1
 467 1371 l 1,0,-1
730 721 m 1,9,-1
 592 936 l 1,10,-1
 467 936 l 1,11,-1
 467 781 l 1,12,-1
 412 781 l 1,13,-1
 412 1425 l 1,14,-1
 610 1425 l 1,15,16
 696 1413 696 1413 756 1353 c 0,17,18
 827 1282 827 1282 827 1181 c 0,19,20
 827 1079 827 1079 756 1007 c 0,21,22
 706 958 706 958 652 945 c 1,23,-1
 782 745 l 1,24,25
 835 775 835 775 880 819 c 0,26,27
 1004 944 1004 944 1004 1119 c 0,28,29
 1004 1295 1004 1295 880 1419 c 128,-1,30
 756 1543 756 1543 581 1543 c 0,31,32
 405 1543 405 1543 281 1419 c 128,-1,33
 157 1295 157 1295 157 1119 c 0,34,35
 157 944 157 944 281 819 c 0,36,37
 340 761 340 761 410 730 c 0,38,39
 438 717 438 717 468 709 c 0,40,41
 521 695 521 695 581 695 c 0,42,43
 659 695 659 695 730 721 c 1,9,-1
581 638 m 0,45,46
 381 638 381 638 240.5 779 c 128,-1,47
 100 920 100 920 100 1119 c 256,48,49
 100 1318 100 1318 240.5 1459 c 128,-1,50
 381 1600 381 1600 581 1600 c 0,51,52
 779 1600 779 1600 920 1459 c 128,-1,53
 1061 1318 1061 1318 1061 1119 c 256,54,55
 1061 920 1061 920 920 779 c 0,56,57
 871 730 871 730 782.5 684 c 128,-1,44
 694 638 694 638 581 638 c 0,45,46
EndSplineSet
EndChar

StartChar: macron
Encoding: 175 175 110
Width: 840
GlyphClass: 1
Flags: W
LayerCount: 2
Fore
SplineSet
125 1427 m 1,0,-1
 715 1427 l 1,1,-1
 715 1337 l 1,2,-1
 125 1337 l 1,3,-1
 125 1427 l 1,0,-1
EndSplineSet
EndChar

StartChar: degree
Encoding: 176 176 111
Width: 762
GlyphClass: 1
Flags: W
LayerCount: 2
Fore
SplineSet
544.5 1532.5 m 128,-1,1
 612 1465 612 1465 612 1369 c 256,2,3
 612 1273 612 1273 544.5 1205.5 c 128,-1,4
 477 1138 477 1138 381 1138 c 256,5,6
 285 1138 285 1138 217.5 1205.5 c 128,-1,7
 150 1273 150 1273 150 1369 c 256,8,9
 150 1465 150 1465 217.5 1532.5 c 128,-1,10
 285 1600 285 1600 381 1600 c 256,11,0
 477 1600 477 1600 544.5 1532.5 c 128,-1,1
381 1529 m 256,12,13
 315 1529 315 1529 268 1482 c 128,-1,14
 221 1435 221 1435 221 1369 c 256,15,16
 221 1303 221 1303 268 1256 c 128,-1,17
 315 1209 315 1209 381 1209 c 256,18,19
 447 1209 447 1209 494 1256 c 128,-1,20
 541 1303 541 1303 541 1369 c 256,21,22
 541 1435 541 1435 494 1482 c 128,-1,23
 447 1529 447 1529 381 1529 c 256,12,13
EndSplineSet
EndChar

StartChar: plusminus
Encoding: 177 177 112
Width: 1050
GlyphClass: 1
Flags: W
LayerCount: 2
Fore
SplineSet
480 547 m 1,0,-1
 125 547 l 1,1,-1
 125 637 l 1,2,-1
 480 637 l 1,3,-1
 480 992 l 1,4,-1
 570 992 l 1,5,-1
 570 637 l 1,6,-1
 925 637 l 1,7,-1
 925 547 l 1,8,-1
 570 547 l 1,9,-1
 570 192 l 1,10,-1
 480 192 l 1,11,-1
 480 547 l 1,0,-1
125 90 m 1,12,-1
 925 90 l 1,13,-1
 925 0 l 1,14,-1
 125 0 l 1,15,-1
 125 90 l 1,12,-1
EndSplineSet
EndChar

StartChar: uni00B2
Encoding: 178 178 113
Width: 899
GlyphClass: 1
Flags: W
LayerCount: 2
Fore
SplineSet
269.5 904.5 m 128,-1,1
 379 980 379 980 461 1036.5 c 128,-1,2
 543 1093 543 1093 612 1163 c 128,-1,3
 681 1233 681 1233 681 1325 c 0,4,5
 681 1418 681 1418 612 1481.5 c 128,-1,6
 543 1545 543 1545 448 1545 c 0,7,8
 354 1545 354 1545 286 1482 c 0,9,10
 226 1427 226 1427 215 1334 c 1,11,-1
 125 1365 l 1,12,13
 141 1463 141 1463 216 1533 c 0,14,15
 312 1622 312 1622 448 1622 c 0,16,17
 585 1622 585 1622 679.5 1534.5 c 128,-1,18
 774 1447 774 1447 774 1325 c 0,19,20
 774 1205 774 1205 683 1114 c 0,21,22
 621 1052 621 1052 538 995 c 128,-1,23
 455 938 455 938 349 865 c 0,24,25
 252 797 252 797 230 703 c 1,26,-1
 774 703 l 1,27,-1
 774 629 l 1,28,-1
 128 629 l 1,29,0
 160 829 160 829 269.5 904.5 c 128,-1,1
EndSplineSet
EndChar

StartChar: uni00B3
Encoding: 179 179 114
Width: 899
GlyphClass: 1
Flags: W
LayerCount: 2
Fore
SplineSet
412 1165 m 1,0,-1
 349 1166 l 1,1,-1
 349 1240 l 1,2,3
 422 1240 422 1240 457 1252.5 c 128,-1,4
 492 1265 492 1265 534.5 1307 c 128,-1,5
 577 1349 577 1349 577 1408 c 256,6,7
 577 1467 577 1467 534.5 1506.5 c 128,-1,8
 492 1546 492 1546 433 1546 c 0,9,10
 375 1546 375 1546 333 1508 c 0,11,12
 309 1485 309 1485 292 1443 c 1,13,-1
 208 1473 l 1,14,15
 225 1524 225 1524 263 1557 c 0,16,17
 334 1622 334 1622 433 1622 c 0,18,19
 534 1622 534 1622 602.5 1558 c 128,-1,20
 671 1494 671 1494 671 1408 c 0,21,22
 671 1320 671 1320 619.5 1269 c 128,-1,23
 568 1218 568 1218 547 1210 c 1,24,25
 618 1188 618 1188 683 1124 c 0,26,27
 774 1033 774 1033 774 912 c 256,28,29
 774 791 774 791 679.5 703.5 c 128,-1,30
 585 616 585 616 448 616 c 0,31,32
 312 616 312 616 216 705 c 0,33,34
 141 774 141 774 125 873 c 1,35,-1
 215 903 l 1,36,37
 226 810 226 810 286 755 c 0,38,39
 354 693 354 693 448 693 c 0,40,41
 543 693 543 693 612 756.5 c 128,-1,42
 681 820 681 820 681 912 c 0,43,44
 681 1005 681 1005 613.5 1073 c 128,-1,45
 546 1141 546 1141 412 1165 c 1,0,-1
EndSplineSet
EndChar

StartChar: acute
Encoding: 180 180 115
Width: 629
GlyphClass: 1
Flags: W
LayerCount: 2
Fore
SplineSet
479 1387 m 1,0,-1
 234 1200 l 1,1,-1
 150 1200 l 1,2,-1
 313 1387 l 1,3,-1
 479 1387 l 1,0,-1
EndSplineSet
EndChar

StartChar: mu
Encoding: 181 181 116
Width: 1046
GlyphClass: 1
Flags: W
LayerCount: 2
Fore
SplineSet
808 111 m 1,0,1
 803 106 803 106 797 100 c 0,2,3
 688 -9 688 -9 514 -9 c 0,4,5
 354 -9 354 -9 240 101 c 1,6,-1
 240 -375 l 1,7,-1
 150 -375 l 1,8,-1
 150 982 l 1,9,-1
 240 982 l 1,10,-1
 240 251 l 1,11,12
 260 208 260 208 300 168 c 0,13,14
 390 81 390 81 514 81 c 256,15,16
 638 81 638 81 729 170 c 0,17,18
 787 227 787 227 808 300 c 1,19,-1
 808 982 l 1,20,-1
 896 982 l 1,21,-1
 896 0 l 1,22,-1
 808 0 l 1,23,-1
 808 111 l 1,0,1
EndSplineSet
EndChar

StartChar: paragraph
Encoding: 182 182 117
Width: 1135
GlyphClass: 1
Flags: W
LayerCount: 2
Fore
SplineSet
815 1602 m 1,0,-1
 815 -375 l 1,1,-1
 725 -375 l 1,2,-1
 725 646 l 1,3,-1
 573 646 l 2,4,5
 357 646 357 646 204 799 c 128,-1,6
 51 952 51 952 51 1169 c 0,7,8
 51 1385 51 1385 204 1538 c 0,9,10
 332 1666 332 1666 515 1691 c 1,11,-1
 595 1691 l 1,12,-1
 595 1692 l 1,13,-1
 1086 1692 l 1,14,-1
 1086 1602 l 1,15,-1
 998 1602 l 1,16,-1
 998 -375 l 1,17,-1
 908 -375 l 1,18,-1
 908 1602 l 1,19,-1
 815 1602 l 1,0,-1
EndSplineSet
EndChar

StartChar: periodcentered
Encoding: 183 183 118
AltUni2: 002219.ffffffff.0 002219.ffffffff.0
Width: 403
GlyphClass: 1
Flags: W
LayerCount: 2
Fore
SplineSet
255.5 854 m 128,-1,1
 278 832 278 832 278 800 c 256,2,3
 278 768 278 768 255.5 746 c 128,-1,4
 233 724 233 724 202 724 c 0,5,6
 170 724 170 724 147.5 746 c 128,-1,7
 125 768 125 768 125 800 c 256,8,9
 125 832 125 832 147.5 854 c 128,-1,10
 170 876 170 876 202 876 c 0,11,0
 233 876 233 876 255.5 854 c 128,-1,1
EndSplineSet
EndChar

StartChar: cedilla
Encoding: 184 184 119
Width: 257
GlyphClass: 1
Flags: W
LayerCount: 2
Fore
SplineSet
156 0 m 1,0,-1
 153 -29 l 1,1,-1
 152 -35 l 1,2,-1
 153 -35 l 1,3,-1
 150 -75 l 1,4,5
 164 -82 164 -82 178 -90 c 0,6,7
 238 -129 238 -129 246 -184 c 0,8,9
 247 -191 247 -191 247 -198 c 0,10,11
 247 -243 247 -243 204 -276 c 0,12,13
 153 -315 153 -315 74 -315 c 0,14,15
 40 -315 40 -315 10 -308 c 1,16,-1
 21 -253 l 1,17,18
 42 -260 42 -260 67 -260 c 0,19,20
 112 -260 112 -260 141 -237 c 0,21,22
 166 -218 166 -218 166 -191 c 2,23,-1
 166 -184 l 1,24,25
 161 -152 161 -152 126 -129 c 0,26,27
 91 -108 91 -108 49 -107 c 1,28,-1
 92 0 l 1,29,-1
 156 0 l 1,0,-1
EndSplineSet
EndChar

StartChar: uni00B9
Encoding: 185 185 120
Width: 899
GlyphClass: 1
Flags: W
LayerCount: 2
Fore
SplineSet
530 1600 m 1,0,-1
 530 620 l 1,1,-1
 440 620 l 1,2,-1
 440 1485 l 1,3,-1
 368 1485 l 1,4,-1
 465 1600 l 1,5,-1
 530 1600 l 1,0,-1
EndSplineSet
EndChar

StartChar: ordmasculine
Encoding: 186 186 121
Width: 914
GlyphClass: 1
Flags: W
LayerCount: 2
Fore
SplineSet
529 1116 m 1,0,1
 637 1121 637 1121 695 1178 c 0,2,3
 757 1240 757 1240 757 1329 c 0,4,5
 757 1417 757 1417 695 1480 c 0,6,7
 637 1537 637 1537 529 1542 c 1,8,9
 420 1537 420 1537 363 1480 c 0,10,11
 300 1417 300 1417 300 1329 c 0,12,13
 300 1240 300 1240 363 1178 c 0,14,15
 420 1121 420 1121 529 1116 c 1,0,1
514 1058 m 2,16,17
 401 1058 401 1058 322 1137.5 c 128,-1,18
 243 1217 243 1217 243 1329 c 256,19,20
 243 1441 243 1441 322 1520.5 c 128,-1,21
 401 1600 401 1600 514 1600 c 2,22,-1
 543 1600 l 2,23,24
 656 1600 656 1600 735 1520.5 c 128,-1,25
 814 1441 814 1441 814 1329 c 256,26,27
 814 1217 814 1217 735 1137.5 c 128,-1,28
 656 1058 656 1058 543 1058 c 2,29,-1
 514 1058 l 2,16,17
131 944 m 1,30,-1
 706 944 l 1,31,-1
 706 913 l 1,32,-1
 100 913 l 1,33,-1
 100 1541 l 1,34,-1
 131 1541 l 1,35,-1
 131 944 l 1,30,-1
EndSplineSet
EndChar

StartChar: guillemotright
Encoding: 187 187 122
Width: 980
GlyphClass: 1
Flags: W
LayerCount: 2
Fore
SplineSet
100 1 m 1,0,-1
 100 106 l 1,1,-1
 431 462 l 1,2,-1
 100 818 l 1,3,-1
 100 922 l 1,4,-1
 536 462 l 1,5,-1
 100 1 l 1,0,-1
451 1 m 1,6,-1
 451 106 l 1,7,-1
 782 462 l 1,8,-1
 451 818 l 1,9,-1
 451 922 l 1,10,-1
 880 462 l 1,11,-1
 451 1 l 1,6,-1
EndSplineSet
EndChar

StartChar: questiondown
Encoding: 191 191 123
Width: 956
GlyphClass: 1
Flags: W
LayerCount: 2
Fore
SplineSet
566 1015 m 0,1,2
 606 1097 606 1097 606 1181 c 0,3,4
 606 1245 606 1245 583 1310 c 1,5,-1
 666 1339 l 1,6,7
 694 1259 694 1259 694 1181 c 0,8,9
 694 1077 694 1077 645 977 c 0,10,11
 565 810 565 810 404 688 c 1,12,13
 309 596 309 596 268 510 c 0,14,15
 242 457 242 457 242 402 c 0,16,17
 242 361 242 361 256 320 c 0,18,19
 291 222 291 222 384 177 c 0,20,21
 437 152 437 152 491 152 c 0,22,23
 532 152 532 152 574 167 c 0,24,25
 671 201 671 201 716 293 c 0,26,27
 741 345 741 345 741 398 c 1,28,-1
 829 394 l 1,29,-1
 829 386 l 2,30,31
 829 321 829 321 797 257 c 0,32,33
 735 130 735 130 603 84 c 0,34,35
 545 64 545 64 489 64 c 0,36,37
 415 64 415 64 343 98 c 0,38,39
 217 159 217 159 171 290 c 0,40,41
 151 347 151 347 151 403 c 0,42,43
 151 477 151 477 186 549 c 0,44,45
 247 676 247 676 389 786 c 1,46,0
 506 889 506 889 566 1015 c 0,1,2
566.5 1465 m 128,-1,48
 540 1491 540 1491 540 1528 c 0,49,50
 540 1566 540 1566 566.5 1592 c 128,-1,51
 593 1618 593 1618 630 1618 c 256,52,53
 667 1618 667 1618 693.5 1592 c 128,-1,54
 720 1566 720 1566 720 1528 c 0,55,56
 720 1491 720 1491 693.5 1465 c 128,-1,57
 667 1439 667 1439 630 1439 c 256,58,47
 593 1439 593 1439 566.5 1465 c 128,-1,48
EndSplineSet
EndChar

StartChar: AE
Encoding: 198 198 130
Width: 1676
GlyphClass: 1
Flags: W
LayerCount: 2
Fore
SplineSet
1551 1600 m 1,0,-1
 1551 1510 l 1,1,-1
 841 1510 l 1,2,-1
 841 845 l 1,3,-1
 1551 845 l 1,4,-1
 1551 755 l 1,5,-1
 841 755 l 1,6,-1
 841 90 l 1,7,-1
 1551 90 l 1,8,-1
 1551 0 l 1,9,-1
 751 0 l 1,10,-1
 751 613 l 1,11,-1
 429 613 l 1,12,-1
 166 0 l 1,13,-1
 40 0 l 1,14,-1
 751 1597 l 1,15,-1
 751 1600 l 1,16,-1
 1551 1600 l 1,0,-1
751 1373 m 1,17,-1
 462 703 l 1,18,-1
 751 703 l 1,19,-1
 751 1373 l 1,17,-1
EndSplineSet
EndChar

StartChar: Ccedilla
Encoding: 199 199 131
Width: 1595
GlyphClass: 1
Flags: W
LayerCount: 2
Fore
SplineSet
773 -3 m 1,0,1
 541 44 541 44 365 221 c 0,2,3
 125 460 125 460 125 800 c 0,4,5
 125 1139 125 1139 364.5 1379 c 128,-1,6
 604 1619 604 1619 944 1619 c 0,7,8
 1261 1619 1261 1619 1495 1406 c 1,9,-1
 1427 1344 l 1,10,11
 1221 1527 1221 1527 944 1527 c 0,12,13
 643 1527 643 1527 430 1314 c 128,-1,14
 217 1101 217 1101 217 800 c 0,15,16
 217 498 217 498 430 285 c 128,-1,17
 643 72 643 72 944 72 c 0,18,19
 1221 72 1221 72 1427 255 c 1,20,-1
 1495 194 l 1,21,22
 1261 -19 1261 -19 944 -19 c 0,23,24
 889 -19 889 -19 837 -13 c 1,25,-1
 835 -29 l 1,26,-1
 834 -35 l 1,27,-1
 835 -35 l 1,28,-1
 832 -75 l 1,29,30
 846 -82 846 -82 860 -90 c 0,31,32
 920 -129 920 -129 928 -184 c 0,33,34
 929 -191 929 -191 929 -198 c 0,35,36
 929 -243 929 -243 886 -276 c 0,37,38
 835 -315 835 -315 756 -315 c 0,39,40
 722 -315 722 -315 692 -308 c 1,41,-1
 703 -253 l 1,42,43
 724 -260 724 -260 749 -260 c 0,44,45
 794 -260 794 -260 823 -237 c 0,46,47
 848 -218 848 -218 848 -191 c 2,48,-1
 848 -184 l 1,49,50
 843 -152 843 -152 808 -129 c 0,51,52
 773 -108 773 -108 731 -107 c 1,53,-1
 773 -3 l 1,0,1
EndSplineSet
EndChar

StartChar: Eth
Encoding: 208 208 140
Width: 1284
GlyphClass: 1
Flags: W
LayerCount: 2
Fore
SplineSet
210 845 m 1,0,-1
 210 1600 l 1,1,-1
 300 1600 l 1,2,-1
 300 1598 l 1,3,-1
 307 1598 l 2,4,5
 702 1598 702 1598 919 1380 c 0,6,7
 1159 1139 1159 1139 1159 800 c 0,8,9
 1159 460 1159 460 919 220 c 0,10,11
 702 2 702 2 307 2 c 2,12,-1
 300 2 l 1,13,-1
 300 0 l 1,14,-1
 210 0 l 1,15,-1
 210 755 l 1,16,-1
 50 755 l 1,17,-1
 50 845 l 1,18,-1
 210 845 l 1,0,-1
300 845 m 1,19,-1
 670 845 l 1,20,-1
 670 755 l 1,21,-1
 300 755 l 1,22,-1
 300 93 l 1,23,-1
 307 93 l 2,24,25
 663 93 663 93 854 285 c 0,26,27
 1067 498 1067 498 1067 800 c 0,28,29
 1067 1101 1067 1101 854 1315 c 0,30,31
 663 1506 663 1506 307 1506 c 2,32,-1
 300 1506 l 1,33,-1
 300 845 l 1,19,-1
EndSplineSet
EndChar

StartChar: multiply
Encoding: 215 215 147
Width: 1050
GlyphClass: 1
Flags: W
LayerCount: 2
Fore
SplineSet
525 528 m 1,0,-1
 274 277 l 1,1,-1
 210 341 l 1,2,-1
 461 592 l 1,3,-1
 210 843 l 1,4,-1
 274 907 l 1,5,-1
 525 656 l 1,6,-1
 776 907 l 1,7,-1
 839 843 l 1,8,-1
 588 592 l 1,9,-1
 839 341 l 1,10,-1
 776 277 l 1,11,-1
 525 528 l 1,0,-1
EndSplineSet
EndChar

StartChar: Oslash
Encoding: 216 216 148
Width: 1892
GlyphClass: 1
Flags: W
LayerCount: 2
Fore
SplineSet
1213 1483 m 1,0,1
 1090 1531 1090 1531 946 1531 c 0,2,3
 644 1531 644 1531 430.5 1317.5 c 128,-1,4
 217 1104 217 1104 217 802 c 256,5,6
 217 500 217 500 431 286 c 0,7,8
 508 209 508 209 597 159 c 1,9,-1
 1213 1483 l 1,0,1
678 121 m 1,10,11
 802 72 802 72 946 72 c 0,12,13
 1248 72 1248 72 1461.5 286 c 128,-1,14
 1675 500 1675 500 1675 802 c 256,15,16
 1675 1104 1675 1104 1462 1318 c 0,17,18
 1384 1395 1384 1395 1295 1444 c 1,19,-1
 678 121 l 1,10,11
1334 1528 m 1,20,21
 1437 1472 1437 1472 1527 1383 c 0,22,23
 1767 1142 1767 1142 1767 802 c 256,24,25
 1767 462 1767 462 1526.5 221.5 c 128,-1,26
 1286 -19 1286 -19 946 -19 c 0,27,28
 781 -19 781 -19 640 38 c 1,29,-1
 554 -146 l 1,30,-1
 472 -108 l 1,31,-1
 558 76 l 1,32,33
 455 132 455 132 366 222 c 0,34,35
 125 462 125 462 125 802 c 256,36,37
 125 1142 125 1142 365.5 1382.5 c 128,-1,38
 606 1623 606 1623 946 1623 c 0,39,40
 1111 1623 1111 1623 1252 1566 c 1,41,-1
 1338 1750 l 1,42,-1
 1420 1712 l 1,43,-1
 1334 1528 l 1,20,21
EndSplineSet
EndChar

StartChar: Thorn
Encoding: 222 222 154
Width: 1124
GlyphClass: 1
Flags: W
LayerCount: 2
Fore
SplineSet
240 1323 m 1,0,-1
 570 1323 l 1,1,2
 753 1298 753 1298 881 1170 c 0,3,4
 1034 1017 1034 1017 1034 801 c 0,5,6
 1034 584 1034 584 881 431 c 128,-1,7
 728 278 728 278 512 278 c 2,8,-1
 240 278 l 1,9,-1
 240 0 l 1,10,-1
 150 0 l 1,11,-1
 150 1600 l 1,12,-1
 240 1600 l 1,13,-1
 240 1323 l 1,0,-1
240 369 m 1,14,-1
 512 369 l 2,15,16
 690 369 690 369 816.5 495.5 c 128,-1,17
 943 622 943 622 943 801 c 256,18,19
 943 980 943 980 816.5 1106 c 128,-1,20
 690 1232 690 1232 512 1232 c 2,21,-1
 240 1232 l 1,22,-1
 240 369 l 1,14,-1
EndSplineSet
EndChar

StartChar: germandbls
Encoding: 223 223 155
Width: 1084
GlyphClass: 1
Flags: W
LayerCount: 2
Fore
SplineSet
431 1608 m 1,0,-1
 447 1608 l 2,1,2
 568 1608 568 1608 653 1538 c 0,3,4
 744 1463 744 1463 752 1311 c 1,5,-1
 752 1294 l 2,6,7
 752 1154 752 1154 623 1072 c 1,8,9
 981 929 981 929 994 551 c 1,10,11
 994 324 994 324 834 158 c 0,12,13
 685 4 685 4 478 1 c 1,14,-1
 478 0 l 1,15,-1
 311 0 l 1,16,-1
 311 90 l 1,17,-1
 478 90 l 1,18,-1
 478 89 l 1,19,20
 645 100 645 100 766 226 c 0,21,22
 899 363 899 363 899 551 c 256,23,24
 899 739 899 739 766 872 c 128,-1,25
 633 1005 633 1005 411 1005 c 1,26,-1
 411 1101 l 1,27,28
 550 1108 550 1108 607 1160.5 c 128,-1,29
 664 1213 664 1213 664 1302 c 0,30,31
 664 1390 664 1390 608 1454 c 0,32,33
 555 1514 555 1514 457 1514 c 2,34,-1
 446 1514 l 1,35,36
 340 1510 340 1510 288 1448.5 c 128,-1,37
 236 1387 236 1387 230 1266 c 1,38,-1
 230 0 l 1,39,-1
 140 0 l 1,40,-1
 140 1281 l 1,41,42
 150 1443 150 1443 225 1523 c 128,-1,43
 300 1603 300 1603 431 1608 c 1,0,-1
EndSplineSet
EndChar

StartChar: ae
Encoding: 230 230 162
Width: 2171
GlyphClass: 1
Flags: W
LayerCount: 2
Fore
SplineSet
1038 739 m 0,0,1
 1008 794 1008 794 960 842 c 0,2,3
 827 975 827 975 639 975 c 256,4,5
 451 975 451 975 318 842 c 128,-1,6
 185 709 185 709 185 521 c 256,7,8
 185 333 185 333 318 200.5 c 128,-1,9
 451 68 451 68 639 68 c 256,10,11
 827 68 827 68 960 201 c 0,12,13
 1008 249 1008 249 1038 303 c 0,14,15
 1072 363 1072 363 1085 432 c 1,16,-1
 1085 610 l 1,17,18
 1072 679 1072 679 1038 739 c 0,0,1
1973 663 m 1,19,20
 1941 766 1941 766 1865 842 c 0,21,22
 1732 975 1732 975 1544 975 c 256,23,24
 1356 975 1356 975 1223 842 c 0,25,26
 1196 815 1196 815 1175 787 c 1,27,-1
 1175 663 l 1,28,-1
 1973 663 l 1,19,20
1175 256 m 1,29,30
 1196 227 1196 227 1223 201 c 0,31,32
 1356 68 1356 68 1544 68 c 256,33,34
 1732 68 1732 68 1865 201 c 0,35,36
 1888 224 1888 224 1908 249 c 1,37,-1
 2004 215 l 1,38,39
 1987 187 1987 187 1933 133 c 0,40,41
 1772 -28 1772 -28 1544 -28 c 0,42,43
 1330 -28 1330 -28 1175 115 c 1,44,-1
 1175 0 l 1,45,-1
 1085 0 l 1,46,-1
 1085 200 l 1,47,48
 1059 165 1059 165 1028 133 c 0,49,50
 867 -28 867 -28 639 -28 c 0,51,52
 412 -28 412 -28 251 133 c 128,-1,53
 90 294 90 294 90 521 c 0,54,55
 90 749 90 749 251 910 c 128,-1,56
 412 1071 412 1071 639 1071 c 0,57,58
 867 1071 867 1071 1028 910 c 0,59,60
 1059 878 1059 878 1085 843 c 1,61,-1
 1085 982 l 1,62,-1
 1175 982 l 1,63,-1
 1175 928 l 1,64,65
 1330 1071 1330 1071 1544 1071 c 0,66,67
 1772 1071 1772 1071 1933 910 c 0,68,69
 2075 767 2075 767 2081 572 c 1,70,-1
 1175 573 l 1,71,-1
 1175 256 l 1,29,30
EndSplineSet
EndChar

StartChar: ccedilla
Encoding: 231 231 163
Width: 1177
GlyphClass: 1
Flags: W
LayerCount: 2
Fore
SplineSet
544 -20 m 1,0,1
 377 7 377 7 251 133 c 0,2,3
 90 294 90 294 90 522 c 0,4,5
 90 749 90 749 251 910 c 128,-1,6
 412 1071 412 1071 639 1071 c 0,7,8
 867 1071 867 1071 1028 910 c 0,9,10
 1061 877 1061 877 1087 842 c 1,11,-1
 992 807 l 1,12,13
 977 825 977 825 960 843 c 0,14,15
 827 975 827 975 639 975 c 0,16,17
 452 975 452 975 319 842.5 c 128,-1,18
 186 710 186 710 186 522 c 256,19,20
 186 334 186 334 319 201 c 128,-1,21
 452 68 452 68 639 68 c 0,22,23
 827 68 827 68 960 201 c 0,24,25
 977 218 977 218 992 236 c 1,26,-1
 1087 202 l 1,27,28
 1061 166 1061 166 1028 133 c 0,29,30
 867 -28 867 -28 639 -28 c 0,31,32
 626 -28 626 -28 613 -27 c 1,33,-1
 613 -29 l 1,34,-1
 612 -35 l 1,35,-1
 613 -35 l 1,36,-1
 610 -75 l 1,37,38
 624 -82 624 -82 638 -90 c 0,39,40
 698 -129 698 -129 706 -184 c 0,41,42
 707 -191 707 -191 707 -198 c 0,43,44
 707 -243 707 -243 664 -276 c 0,45,46
 613 -315 613 -315 534 -315 c 0,47,48
 500 -315 500 -315 470 -308 c 1,49,-1
 481 -253 l 1,50,51
 502 -260 502 -260 527 -260 c 0,52,53
 572 -260 572 -260 601 -237 c 0,54,55
 626 -218 626 -218 626 -191 c 2,56,-1
 626 -184 l 1,57,58
 621 -152 621 -152 586 -129 c 0,59,60
 551 -108 551 -108 509 -107 c 1,61,-1
 544 -20 l 1,0,1
EndSplineSet
EndChar

StartChar: eth
Encoding: 240 240 172
Width: 1278
GlyphClass: 1
Flags: W
LayerCount: 2
Fore
SplineSet
185 521 m 256,1,2
 185 333 185 333 318 200.5 c 128,-1,3
 451 68 451 68 639 68 c 256,4,5
 827 68 827 68 960 200.5 c 128,-1,6
 1093 333 1093 333 1093 521 c 256,7,8
 1093 709 1093 709 960 842 c 128,-1,9
 827 975 827 975 639 975 c 256,10,11
 451 975 451 975 318 842 c 128,-1,0
 185 709 185 709 185 521 c 256,1,2
957 971 m 1,12,13
 994 944 994 944 1028 910 c 0,14,15
 1188 749 1188 749 1188 521 c 0,16,17
 1188 294 1188 294 1027.5 133 c 128,-1,18
 867 -28 867 -28 639 -28 c 0,19,20
 412 -28 412 -28 251 133 c 128,-1,21
 90 294 90 294 90 521 c 0,22,23
 90 749 90 749 251 910 c 128,-1,24
 412 1071 412 1071 639 1071 c 0,25,26
 672 1071 672 1071 704 1068 c 1,27,-1
 650 1128 l 1,28,-1
 482 1128 l 1,29,-1
 482 1218 l 1,30,-1
 569 1218 l 1,31,-1
 465 1333 l 1,32,-1
 593 1333 l 1,33,-1
 708 1218 l 1,34,-1
 872 1218 l 1,35,-1
 872 1128 l 1,36,-1
 799 1128 l 1,37,-1
 957 971 l 1,12,13
EndSplineSet
EndChar

StartChar: divide
Encoding: 247 247 179
Width: 1050
GlyphClass: 1
Flags: W
LayerCount: 2
Fore
SplineSet
125 659 m 1,0,-1
 925 659 l 1,1,-1
 925 569 l 1,2,-1
 125 569 l 1,3,-1
 125 659 l 1,0,-1
588.5 877 m 128,-1,5
 615 851 615 851 615 814 c 0,6,7
 615 776 615 776 588.5 750 c 128,-1,8
 562 724 562 724 525 724 c 256,9,10
 488 724 488 724 461.5 750 c 128,-1,11
 435 776 435 776 435 814 c 0,12,13
 435 851 435 851 461.5 877 c 128,-1,14
 488 903 488 903 525 903 c 256,15,4
 562 903 562 903 588.5 877 c 128,-1,5
588.5 477 m 128,-1,17
 615 451 615 451 615 414 c 0,18,19
 615 376 615 376 588.5 350 c 128,-1,20
 562 324 562 324 525 324 c 256,21,22
 488 324 488 324 461.5 350 c 128,-1,23
 435 376 435 376 435 414 c 0,24,25
 435 451 435 451 461.5 477 c 128,-1,26
 488 503 488 503 525 503 c 256,27,16
 562 503 562 503 588.5 477 c 128,-1,17
EndSplineSet
EndChar

StartChar: oslash
Encoding: 248 248 180
Width: 1278
GlyphClass: 1
Flags: W
LayerCount: 2
Fore
SplineSet
827 937 m 1,0,1
 741 976 741 976 639 976 c 0,2,3
 451 976 451 976 318 843 c 128,-1,4
 185 710 185 710 185 522 c 256,5,6
 185 334 185 334 318 202 c 0,7,8
 345 174 345 174 375 153 c 1,9,-1
 827 937 l 1,0,1
904 891 m 1,10,-1
 451 108 l 1,11,12
 537 69 537 69 639 69 c 0,13,14
 827 69 827 69 960 201.5 c 128,-1,15
 1093 334 1093 334 1093 522 c 256,16,17
 1093 710 1093 710 960 843 c 0,18,19
 933 870 933 870 904 891 c 1,10,-1
327 70 m 1,20,21
 287 98 287 98 251 134 c 0,22,23
 90 295 90 295 90 522 c 0,24,25
 90 750 90 750 251 911 c 128,-1,26
 412 1072 412 1072 639 1072 c 0,27,28
 768 1072 768 1072 876 1020 c 1,29,-1
 998 1232 l 1,30,-1
 1077 1191 l 1,31,-1
 952 975 l 1,32,33
 992 947 992 947 1028 911 c 0,34,35
 1188 750 1188 750 1188 522 c 0,36,37
 1188 295 1188 295 1027.5 134 c 128,-1,38
 867 -27 867 -27 639 -27 c 0,39,40
 510 -27 510 -27 403 25 c 1,41,-1
 280 -188 l 1,42,-1
 201 -150 l 1,43,-1
 327 70 l 1,20,21
EndSplineSet
EndChar

StartChar: thorn
Encoding: 254 254 186
Width: 1334
GlyphClass: 1
Flags: W
LayerCount: 2
Fore
SplineSet
240 844 m 1,0,1
 265 878 265 878 297 910 c 0,2,3
 458 1070 458 1070 685 1070 c 0,4,5
 913 1070 913 1070 1073.5 909.5 c 128,-1,6
 1234 749 1234 749 1234 521 c 0,7,8
 1234 294 1234 294 1073.5 133 c 128,-1,9
 913 -28 913 -28 685 -28 c 0,10,11
 458 -28 458 -28 297 133 c 0,12,13
 265 165 265 165 240 199 c 1,14,-1
 240 -375 l 1,15,-1
 150 -375 l 1,16,-1
 150 1600 l 1,17,-1
 240 1600 l 1,18,-1
 240 844 l 1,0,1
240 427 m 1,19,20
 266 298 266 298 364 200 c 0,21,22
 497 67 497 67 685 67 c 256,23,24
 873 67 873 67 1006 200 c 128,-1,25
 1139 333 1139 333 1139 521 c 256,26,27
 1139 709 1139 709 1006 842 c 128,-1,28
 873 975 873 975 685 975 c 256,29,30
 497 975 497 975 364 842 c 0,31,32
 266 744 266 744 240 615 c 1,33,-1
 240 427 l 1,19,20
EndSplineSet
EndChar

StartChar: Aogonek
Encoding: 260 260 192
Width: 1291
GlyphClass: 1
Flags: W
LayerCount: 2
Fore
SplineSet
890 703 m 1,0,-1
 646 1374 l 1,1,-1
 402 703 l 1,2,-1
 890 703 l 1,0,-1
1131 41 m 1,3,-1
 923 613 l 1,4,-1
 369 613 l 1,5,-1
 146 0 l 1,6,-1
 50 0 l 1,7,-1
 646 1637 l 1,8,-1
 1241 0 l 1,9,-1
 1146 0 l 1,10,11
 1071 -38 1071 -38 1061 -102 c 0,12,13
 1059 -120 1059 -120 1059 -136 c 0,14,15
 1059 -184 1059 -184 1081 -210 c 0,16,17
 1111 -246 1111 -246 1161 -246 c 0,18,19
 1191 -246 1191 -246 1219 -232 c 1,20,-1
 1241 -282 l 1,21,22
 1185 -305 1185 -305 1130 -305 c 0,23,24
 1057 -305 1057 -305 1013 -256 c 0,25,26
 978 -217 978 -217 978 -160 c 0,27,28
 978 -146 978 -146 980 -131 c 0,29,30
 994 -32 994 -32 1131 41 c 1,3,-1
EndSplineSet
EndChar

StartChar: aogonek
Encoding: 261 261 193
Width: 1360
GlyphClass: 1
Flags: W
LayerCount: 2
Fore
SplineSet
1120 432 m 1,0,-1
 1120 610 l 1,1,2
 1095 742 1095 742 995 842 c 0,3,4
 862 975 862 975 674 975 c 256,5,6
 486 975 486 975 353 842 c 128,-1,7
 220 709 220 709 220 521 c 256,8,9
 220 333 220 333 353 200.5 c 128,-1,10
 486 68 486 68 674 68 c 256,11,12
 862 68 862 68 995 201 c 0,13,14
 1095 301 1095 301 1120 432 c 1,0,-1
1120 46 m 1,15,-1
 1120 200 l 1,16,17
 1094 165 1094 165 1063 133 c 0,18,19
 902 -28 902 -28 674 -28 c 0,20,21
 447 -28 447 -28 286 133 c 128,-1,22
 125 294 125 294 125 521 c 0,23,24
 125 749 125 749 286 910 c 128,-1,25
 447 1071 447 1071 674 1071 c 0,26,27
 902 1071 902 1071 1063 910 c 0,28,29
 1094 878 1094 878 1120 843 c 1,30,-1
 1120 982 l 1,31,-1
 1210 982 l 1,32,-1
 1210 0 l 1,33,-1
 1120 0 l 1,34,35
 1049 -39 1049 -39 1040 -102 c 0,36,37
 1038 -120 1038 -120 1038 -136 c 0,38,39
 1038 -184 1038 -184 1060 -210 c 0,40,41
 1090 -246 1090 -246 1140 -246 c 0,42,43
 1170 -246 1170 -246 1198 -232 c 1,44,-1
 1220 -282 l 1,45,46
 1164 -305 1164 -305 1109 -305 c 0,47,48
 1036 -305 1036 -305 992 -256 c 0,49,50
 957 -217 957 -217 957 -160 c 0,51,52
 957 -146 957 -146 959 -131 c 0,53,54
 974 -28 974 -28 1120 46 c 1,15,-1
EndSplineSet
EndChar

StartChar: Cacute
Encoding: 262 262 194
Width: 1595
GlyphClass: 1
Flags: W
LayerCount: 2
Fore
SplineSet
1427 255 m 1,0,-1
 1495 194 l 1,1,2
 1261 -19 1261 -19 944 -19 c 0,3,4
 604 -19 604 -19 364.5 220.5 c 128,-1,5
 125 460 125 460 125 800 c 0,6,7
 125 1139 125 1139 364.5 1379 c 128,-1,8
 604 1619 604 1619 944 1619 c 0,9,10
 1261 1619 1261 1619 1495 1406 c 1,11,-1
 1427 1344 l 1,12,13
 1221 1527 1221 1527 944 1527 c 0,14,15
 643 1527 643 1527 430 1314 c 128,-1,16
 217 1101 217 1101 217 800 c 0,17,18
 217 498 217 498 430 285 c 128,-1,19
 643 72 643 72 944 72 c 0,20,21
 1221 72 1221 72 1427 255 c 1,0,-1
1129 2005 m 1,22,-1
 884 1818 l 1,23,-1
 800 1818 l 1,24,-1
 963 2005 l 1,25,-1
 1129 2005 l 1,22,-1
EndSplineSet
EndChar

StartChar: cacute
Encoding: 263 263 195
Width: 1177
GlyphClass: 1
Flags: W
LayerCount: 2
Fore
SplineSet
992 236 m 1,0,-1
 1087 202 l 1,1,2
 1061 166 1061 166 1028 133 c 0,3,4
 867 -28 867 -28 639 -28 c 0,5,6
 412 -28 412 -28 251 133 c 128,-1,7
 90 294 90 294 90 522 c 0,8,9
 90 749 90 749 251 910 c 128,-1,10
 412 1071 412 1071 639 1071 c 0,11,12
 867 1071 867 1071 1028 910 c 0,13,14
 1061 877 1061 877 1087 842 c 1,15,-1
 992 807 l 1,16,17
 977 825 977 825 960 843 c 0,18,19
 827 975 827 975 639 975 c 0,20,21
 452 975 452 975 319 842.5 c 128,-1,22
 186 710 186 710 186 522 c 256,23,24
 186 334 186 334 319 201 c 128,-1,25
 452 68 452 68 639 68 c 0,26,27
 827 68 827 68 960 201 c 0,28,29
 977 218 977 218 992 236 c 1,0,-1
858 1387 m 1,30,-1
 613 1200 l 1,31,-1
 529 1200 l 1,32,-1
 692 1387 l 1,33,-1
 858 1387 l 1,30,-1
EndSplineSet
EndChar

StartChar: Ccircumflex
Encoding: 264 264 196
Width: 1595
GlyphClass: 1
Flags: W
LayerCount: 2
Fore
SplineSet
1427 255 m 1,0,-1
 1495 194 l 1,1,2
 1261 -19 1261 -19 944 -19 c 0,3,4
 604 -19 604 -19 364.5 220.5 c 128,-1,5
 125 460 125 460 125 800 c 0,6,7
 125 1139 125 1139 364.5 1379 c 128,-1,8
 604 1619 604 1619 944 1619 c 0,9,10
 1261 1619 1261 1619 1495 1406 c 1,11,-1
 1427 1344 l 1,12,13
 1221 1527 1221 1527 944 1527 c 0,14,15
 643 1527 643 1527 430 1314 c 128,-1,16
 217 1101 217 1101 217 800 c 0,17,18
 217 498 217 498 430 285 c 128,-1,19
 643 72 643 72 944 72 c 0,20,21
 1221 72 1221 72 1427 255 c 1,0,-1
958 1942 m 1,22,-1
 1196 1708 l 1,23,-1
 1092 1708 l 1,24,-1
 906 1851 l 1,25,-1
 730 1708 l 1,26,-1
 625 1708 l 1,27,-1
 854 1942 l 1,28,-1
 958 1942 l 1,22,-1
EndSplineSet
EndChar

StartChar: ccircumflex
Encoding: 265 265 197
Width: 1177
GlyphClass: 1
Flags: W
LayerCount: 2
Fore
SplineSet
992 236 m 1,0,-1
 1087 202 l 1,1,2
 1061 166 1061 166 1028 133 c 0,3,4
 867 -28 867 -28 639 -28 c 0,5,6
 412 -28 412 -28 251 133 c 128,-1,7
 90 294 90 294 90 522 c 0,8,9
 90 749 90 749 251 910 c 128,-1,10
 412 1071 412 1071 639 1071 c 0,11,12
 867 1071 867 1071 1028 910 c 0,13,14
 1061 877 1061 877 1087 842 c 1,15,-1
 992 807 l 1,16,17
 977 825 977 825 960 843 c 0,18,19
 827 975 827 975 639 975 c 0,20,21
 452 975 452 975 319 842.5 c 128,-1,22
 186 710 186 710 186 522 c 256,23,24
 186 334 186 334 319 201 c 128,-1,25
 452 68 452 68 639 68 c 0,26,27
 827 68 827 68 960 201 c 0,28,29
 977 218 977 218 992 236 c 1,0,-1
686 1324 m 1,30,-1
 924 1090 l 1,31,-1
 820 1090 l 1,32,-1
 634 1233 l 1,33,-1
 458 1090 l 1,34,-1
 353 1090 l 1,35,-1
 582 1324 l 1,36,-1
 686 1324 l 1,30,-1
EndSplineSet
EndChar

StartChar: Cdotaccent
Encoding: 266 266 198
Width: 1595
GlyphClass: 1
Flags: W
LayerCount: 2
Fore
SplineSet
1427 255 m 1,0,-1
 1495 194 l 1,1,2
 1261 -19 1261 -19 944 -19 c 0,3,4
 604 -19 604 -19 364.5 220.5 c 128,-1,5
 125 460 125 460 125 800 c 0,6,7
 125 1139 125 1139 364.5 1379 c 128,-1,8
 604 1619 604 1619 944 1619 c 0,9,10
 1261 1619 1261 1619 1495 1406 c 1,11,-1
 1427 1344 l 1,12,13
 1221 1527 1221 1527 944 1527 c 0,14,15
 643 1527 643 1527 430 1314 c 128,-1,16
 217 1101 217 1101 217 800 c 0,17,18
 217 498 217 498 430 285 c 128,-1,19
 643 72 643 72 944 72 c 0,20,21
 1221 72 1221 72 1427 255 c 1,0,-1
994.5 1899 m 128,-1,23
 1017 1877 1017 1877 1017 1845 c 256,24,25
 1017 1813 1017 1813 994.5 1791 c 128,-1,26
 972 1769 972 1769 941 1769 c 0,27,28
 909 1769 909 1769 886.5 1791 c 128,-1,29
 864 1813 864 1813 864 1845 c 256,30,31
 864 1877 864 1877 886.5 1899 c 128,-1,32
 909 1921 909 1921 941 1921 c 0,33,22
 972 1921 972 1921 994.5 1899 c 128,-1,23
EndSplineSet
EndChar

StartChar: cdotaccent
Encoding: 267 267 199
Width: 1177
GlyphClass: 1
Flags: W
LayerCount: 2
Fore
SplineSet
992 236 m 1,0,-1
 1087 202 l 1,1,2
 1061 166 1061 166 1028 133 c 0,3,4
 867 -28 867 -28 639 -28 c 0,5,6
 412 -28 412 -28 251 133 c 128,-1,7
 90 294 90 294 90 522 c 0,8,9
 90 749 90 749 251 910 c 128,-1,10
 412 1071 412 1071 639 1071 c 0,11,12
 867 1071 867 1071 1028 910 c 0,13,14
 1061 877 1061 877 1087 842 c 1,15,-1
 992 807 l 1,16,17
 977 825 977 825 960 843 c 0,18,19
 827 975 827 975 639 975 c 0,20,21
 452 975 452 975 319 842.5 c 128,-1,22
 186 710 186 710 186 522 c 256,23,24
 186 334 186 334 319 201 c 128,-1,25
 452 68 452 68 639 68 c 0,26,27
 827 68 827 68 960 201 c 0,28,29
 977 218 977 218 992 236 c 1,0,-1
692.5 1281 m 128,-1,31
 715 1259 715 1259 715 1227 c 256,32,33
 715 1195 715 1195 692.5 1173 c 128,-1,34
 670 1151 670 1151 639 1151 c 0,35,36
 607 1151 607 1151 584.5 1173 c 128,-1,37
 562 1195 562 1195 562 1227 c 256,38,39
 562 1259 562 1259 584.5 1281 c 128,-1,40
 607 1303 607 1303 639 1303 c 0,41,30
 670 1303 670 1303 692.5 1281 c 128,-1,31
EndSplineSet
EndChar

StartChar: Ccaron
Encoding: 268 268 200
Width: 1595
GlyphClass: 1
Flags: W
LayerCount: 2
Fore
SplineSet
1427 255 m 1,0,-1
 1495 194 l 1,1,2
 1261 -19 1261 -19 944 -19 c 0,3,4
 604 -19 604 -19 364.5 220.5 c 128,-1,5
 125 460 125 460 125 800 c 0,6,7
 125 1139 125 1139 364.5 1379 c 128,-1,8
 604 1619 604 1619 944 1619 c 0,9,10
 1261 1619 1261 1619 1495 1406 c 1,11,-1
 1427 1344 l 1,12,13
 1221 1527 1221 1527 944 1527 c 0,14,15
 643 1527 643 1527 430 1314 c 128,-1,16
 217 1101 217 1101 217 800 c 0,17,18
 217 498 217 498 430 285 c 128,-1,19
 643 72 643 72 944 72 c 0,20,21
 1221 72 1221 72 1427 255 c 1,0,-1
754 1708 m 1,22,-1
 525 1942 l 1,23,-1
 630 1942 l 1,24,-1
 806 1799 l 1,25,-1
 992 1942 l 1,26,-1
 1096 1942 l 1,27,-1
 858 1708 l 1,28,-1
 754 1708 l 1,22,-1
EndSplineSet
EndChar

StartChar: ccaron
Encoding: 269 269 201
Width: 1177
GlyphClass: 1
Flags: W
LayerCount: 2
Fore
SplineSet
992 236 m 1,0,-1
 1087 202 l 1,1,2
 1061 166 1061 166 1028 133 c 0,3,4
 867 -28 867 -28 639 -28 c 0,5,6
 412 -28 412 -28 251 133 c 128,-1,7
 90 294 90 294 90 522 c 0,8,9
 90 749 90 749 251 910 c 128,-1,10
 412 1071 412 1071 639 1071 c 0,11,12
 867 1071 867 1071 1028 910 c 0,13,14
 1061 877 1061 877 1087 842 c 1,15,-1
 992 807 l 1,16,17
 977 825 977 825 960 843 c 0,18,19
 827 975 827 975 639 975 c 0,20,21
 452 975 452 975 319 842.5 c 128,-1,22
 186 710 186 710 186 522 c 256,23,24
 186 334 186 334 319 201 c 128,-1,25
 452 68 452 68 639 68 c 0,26,27
 827 68 827 68 960 201 c 0,28,29
 977 218 977 218 992 236 c 1,0,-1
532 1090 m 1,30,-1
 303 1324 l 1,31,-1
 408 1324 l 1,32,-1
 584 1181 l 1,33,-1
 770 1324 l 1,34,-1
 874 1324 l 1,35,-1
 636 1090 l 1,36,-1
 532 1090 l 1,30,-1
EndSplineSet
EndChar

StartChar: Dcaron
Encoding: 270 270 202
Width: 1199
GlyphClass: 1
Flags: W
LayerCount: 2
Fore
SplineSet
240 1506 m 1,0,-1
 240 93 l 1,1,-1
 247 93 l 2,2,3
 603 93 603 93 794 285 c 0,4,5
 1007 498 1007 498 1007 800 c 0,6,7
 1007 1101 1007 1101 794 1315 c 0,8,9
 603 1506 603 1506 247 1506 c 2,10,-1
 240 1506 l 1,0,-1
240 1598 m 1,11,-1
 247 1598 l 2,12,13
 642 1598 642 1598 859 1380 c 0,14,15
 1099 1139 1099 1139 1099 800 c 0,16,17
 1099 460 1099 460 859 220 c 0,18,19
 642 2 642 2 247 2 c 2,20,-1
 240 2 l 1,21,-1
 240 0 l 1,22,-1
 150 0 l 1,23,-1
 150 1600 l 1,24,-1
 240 1600 l 1,25,-1
 240 1598 l 1,11,-1
568 1608 m 1,26,-1
 339 1842 l 1,27,-1
 444 1842 l 1,28,-1
 620 1699 l 1,29,-1
 806 1842 l 1,30,-1
 910 1842 l 1,31,-1
 672 1608 l 1,32,-1
 568 1608 l 1,26,-1
EndSplineSet
EndChar

StartChar: dcaron
Encoding: 271 271 203
Width: 1470
GlyphClass: 1
Flags: W
LayerCount: 2
Fore
SplineSet
1210 0 m 1,0,-1
 1120 0 l 1,1,-1
 1120 200 l 1,2,3
 1094 165 1094 165 1063 133 c 0,4,5
 902 -28 902 -28 674 -28 c 0,6,7
 447 -28 447 -28 286 133 c 128,-1,8
 125 294 125 294 125 521 c 0,9,10
 125 749 125 749 286 910 c 128,-1,11
 447 1071 447 1071 674 1071 c 0,12,13
 902 1071 902 1071 1063 910 c 0,14,15
 1094 878 1094 878 1120 843 c 1,16,-1
 1120 1600 l 1,17,-1
 1210 1600 l 1,18,-1
 1210 0 l 1,0,-1
1120 432 m 1,19,-1
 1120 610 l 1,20,21
 1095 742 1095 742 995 842 c 0,22,23
 862 975 862 975 674 975 c 256,24,25
 486 975 486 975 353 842 c 128,-1,26
 220 709 220 709 220 521 c 256,27,28
 220 333 220 333 353 200.5 c 128,-1,29
 486 68 486 68 674 68 c 256,30,31
 862 68 862 68 995 201 c 0,32,33
 1095 301 1095 301 1120 432 c 1,19,-1
1357 1427 m 1,34,35
 1334 1432 1334 1432 1317 1450 c 0,36,37
 1290 1476 1290 1476 1290 1514 c 0,38,39
 1290 1551 1290 1551 1316.5 1577 c 128,-1,40
 1343 1603 1343 1603 1380 1603 c 256,41,42
 1417 1603 1417 1603 1443.5 1577 c 128,-1,43
 1470 1551 1470 1551 1470 1514 c 0,44,45
 1470 1493 1470 1493 1463 1475 c 2,46,-1
 1365 1277 l 1,47,-1
 1300 1277 l 1,48,-1
 1357 1427 l 1,34,35
EndSplineSet
EndChar

StartChar: Dcroat
Encoding: 272 272 204
Width: 1284
GlyphClass: 1
Flags: W
LayerCount: 2
Fore
SplineSet
210 845 m 1,0,-1
 210 1600 l 1,1,-1
 300 1600 l 1,2,-1
 300 1598 l 1,3,-1
 307 1598 l 2,4,5
 702 1598 702 1598 919 1380 c 0,6,7
 1159 1139 1159 1139 1159 800 c 0,8,9
 1159 460 1159 460 919 220 c 0,10,11
 702 2 702 2 307 2 c 2,12,-1
 300 2 l 1,13,-1
 300 0 l 1,14,-1
 210 0 l 1,15,-1
 210 755 l 1,16,-1
 50 755 l 1,17,-1
 50 845 l 1,18,-1
 210 845 l 1,0,-1
300 845 m 1,19,-1
 670 845 l 1,20,-1
 670 755 l 1,21,-1
 300 755 l 1,22,-1
 300 93 l 1,23,-1
 307 93 l 2,24,25
 663 93 663 93 854 285 c 0,26,27
 1067 498 1067 498 1067 800 c 0,28,29
 1067 1101 1067 1101 854 1315 c 0,30,31
 663 1506 663 1506 307 1506 c 2,32,-1
 300 1506 l 1,33,-1
 300 845 l 1,19,-1
EndSplineSet
EndChar

StartChar: dcroat
Encoding: 273 273 205
Width: 1360
GlyphClass: 1
Flags: W
LayerCount: 2
Fore
SplineSet
1120 432 m 1,0,-1
 1120 610 l 1,1,2
 1095 742 1095 742 995 842 c 0,3,4
 862 975 862 975 674 975 c 256,5,6
 486 975 486 975 353 842 c 128,-1,7
 220 709 220 709 220 521 c 256,8,9
 220 333 220 333 353 200.5 c 128,-1,10
 486 68 486 68 674 68 c 256,11,12
 862 68 862 68 995 201 c 0,13,14
 1095 301 1095 301 1120 432 c 1,0,-1
1210 1283 m 1,15,-1
 1210 0 l 1,16,-1
 1120 0 l 1,17,-1
 1120 200 l 1,18,19
 1094 165 1094 165 1063 133 c 0,20,21
 902 -28 902 -28 674 -28 c 0,22,23
 447 -28 447 -28 286 133 c 128,-1,24
 125 294 125 294 125 521 c 0,25,26
 125 749 125 749 286 910 c 128,-1,27
 447 1071 447 1071 674 1071 c 0,28,29
 902 1071 902 1071 1063 910 c 0,30,31
 1094 878 1094 878 1120 843 c 1,32,-1
 1120 1283 l 1,33,-1
 829 1283 l 1,34,-1
 829 1373 l 1,35,-1
 1120 1373 l 1,36,-1
 1120 1600 l 1,37,-1
 1210 1600 l 1,38,-1
 1210 1373 l 1,39,-1
 1309 1373 l 1,40,-1
 1309 1283 l 1,41,-1
 1210 1283 l 1,15,-1
EndSplineSet
EndChar

StartChar: Eogonek
Encoding: 280 280 212
Width: 1075
GlyphClass: 1
Flags: W
LayerCount: 2
Fore
SplineSet
776 0 m 1,0,-1
 150 0 l 1,1,-1
 150 1600 l 1,2,-1
 950 1600 l 1,3,-1
 950 1510 l 1,4,-1
 240 1510 l 1,5,-1
 240 845 l 1,6,-1
 950 845 l 1,7,-1
 950 755 l 1,8,-1
 240 755 l 1,9,-1
 240 90 l 1,10,-1
 950 90 l 1,11,-1
 950 0 l 1,12,-1
 843 0 l 1,13,14
 779 -42 779 -42 770 -102 c 0,15,16
 768 -120 768 -120 768 -136 c 0,17,18
 768 -184 768 -184 790 -210 c 0,19,20
 820 -246 820 -246 870 -246 c 0,21,22
 900 -246 900 -246 928 -232 c 1,23,-1
 950 -282 l 1,24,25
 894 -305 894 -305 839 -305 c 0,26,27
 766 -305 766 -305 722 -256 c 0,28,29
 687 -217 687 -217 687 -160 c 0,30,31
 687 -146 687 -146 689 -131 c 0,32,33
 699 -58 699 -58 776 0 c 1,0,-1
EndSplineSet
EndChar

StartChar: eogonek
Encoding: 281 281 213
Width: 1177
GlyphClass: 1
Flags: W
LayerCount: 2
Fore
SplineSet
911 885 m 1,0,1
 794 975 794 975 639 975 c 0,2,3
 452 975 452 975 319 842.5 c 128,-1,4
 186 710 186 710 186 522 c 0,5,6
 186 367 186 367 276 250 c 1,7,-1
 911 885 l 1,0,1
894 28 m 1,8,9
 761 -28 761 -28 639 -28 c 0,10,11
 412 -28 412 -28 251 133 c 128,-1,12
 90 294 90 294 90 522 c 0,13,14
 90 749 90 749 251 910 c 128,-1,15
 412 1071 412 1071 639 1071 c 0,16,17
 834 1071 834 1071 980 954 c 0,18,19
 1004 934 1004 934 1028 910 c 0,20,21
 1037 901 1037 901 1045 892 c 1,22,-1
 977 824 l 1,23,-1
 337 184 l 1,24,25
 464 68 464 68 639 68 c 0,26,27
 827 68 827 68 960 201 c 0,28,29
 977 218 977 218 992 236 c 1,30,-1
 1087 202 l 1,31,32
 1061 166 1061 166 1028 133 c 0,33,34
 992 97 992 97 954 70 c 1,35,36
 887 -38 887 -38 877 -103 c 0,37,38
 875 -121 875 -121 875 -137 c 0,39,40
 875 -185 875 -185 897 -211 c 0,41,42
 927 -247 927 -247 977 -247 c 0,43,44
 1007 -247 1007 -247 1035 -233 c 1,45,-1
 1057 -283 l 1,46,47
 1001 -306 1001 -306 946 -306 c 0,48,49
 873 -306 873 -306 829 -257 c 0,50,51
 794 -218 794 -218 794 -161 c 0,52,53
 794 -147 794 -147 796 -132 c 0,54,55
 805 -67 805 -67 894 28 c 1,8,9
EndSplineSet
EndChar

StartChar: Gcircumflex
Encoding: 284 284 216
Width: 1620
GlyphClass: 1
Flags: W
LayerCount: 2
Fore
SplineSet
1489 199 m 1,0,1
 1261 -19 1261 -19 944 -19 c 0,2,3
 604 -19 604 -19 364.5 220.5 c 128,-1,4
 125 460 125 460 125 800 c 0,5,6
 125 1139 125 1139 364.5 1379 c 128,-1,7
 604 1619 604 1619 944 1619 c 0,8,9
 1261 1619 1261 1619 1495 1406 c 1,10,-1
 1427 1344 l 1,11,12
 1221 1527 1221 1527 944 1527 c 0,13,14
 643 1527 643 1527 430 1314 c 128,-1,15
 217 1101 217 1101 217 800 c 0,16,17
 217 498 217 498 430 285 c 128,-1,18
 643 72 643 72 944 72 c 0,19,20
 1202 72 1202 72 1399 231 c 1,21,-1
 1399 719 l 1,22,-1
 1489 719 l 1,23,-1
 1489 199 l 1,0,1
958 1942 m 1,24,-1
 1196 1708 l 1,25,-1
 1092 1708 l 1,26,-1
 906 1851 l 1,27,-1
 730 1708 l 1,28,-1
 625 1708 l 1,29,-1
 854 1942 l 1,30,-1
 958 1942 l 1,24,-1
EndSplineSet
EndChar

StartChar: gcircumflex
Encoding: 285 285 217
Width: 1364
GlyphClass: 1
Flags: W
LayerCount: 2
Fore
SplineSet
1119 615 m 1,0,1
 1093 744 1093 744 995 842 c 0,2,3
 862 975 862 975 674 975 c 256,4,5
 486 975 486 975 353 842 c 128,-1,6
 220 709 220 709 220 521 c 256,7,8
 220 333 220 333 353 200 c 128,-1,9
 486 67 486 67 674 67 c 256,10,11
 862 67 862 67 995 200 c 0,12,13
 1092 297 1092 297 1119 425 c 1,14,-1
 1119 615 l 1,0,1
1117 195 m 1,15,16
 1092 163 1092 163 1063 133 c 0,17,18
 902 -28 902 -28 674 -28 c 0,19,20
 447 -28 447 -28 286 133 c 128,-1,21
 125 294 125 294 125 521 c 0,22,23
 125 749 125 749 286 909.5 c 128,-1,24
 447 1070 447 1070 674 1070 c 0,25,26
 902 1070 902 1070 1063 910 c 0,27,28
 1094 878 1094 878 1120 843 c 1,29,-1
 1120 982 l 1,30,-1
 1210 982 l 1,31,-1
 1210 219 l 2,32,33
 1210 -2 1210 -2 1053 -159 c 0,34,35
 892 -320 892 -320 665 -320 c 0,36,37
 437 -320 437 -320 276 -159 c 0,38,39
 243 -126 243 -126 217 -90 c 1,40,-1
 312 -56 l 1,41,42
 327 -74 327 -74 344 -91 c 0,43,44
 477 -224 477 -224 665 -224 c 0,45,46
 852 -224 852 -224 985 -91 c 0,47,48
 1106 30 1106 30 1117 195 c 1,15,16
715 1324 m 1,49,-1
 953 1090 l 1,50,-1
 849 1090 l 1,51,-1
 663 1233 l 1,52,-1
 487 1090 l 1,53,-1
 382 1090 l 1,54,-1
 611 1324 l 1,55,-1
 715 1324 l 1,49,-1
EndSplineSet
EndChar

StartChar: Gbreve
Encoding: 286 286 218
Width: 1620
GlyphClass: 1
Flags: W
LayerCount: 2
Fore
SplineSet
1489 199 m 1,0,1
 1261 -19 1261 -19 944 -19 c 0,2,3
 604 -19 604 -19 364.5 220.5 c 128,-1,4
 125 460 125 460 125 800 c 0,5,6
 125 1139 125 1139 364.5 1379 c 128,-1,7
 604 1619 604 1619 944 1619 c 0,8,9
 1261 1619 1261 1619 1495 1406 c 1,10,-1
 1427 1344 l 1,11,12
 1221 1527 1221 1527 944 1527 c 0,13,14
 643 1527 643 1527 430 1314 c 128,-1,15
 217 1101 217 1101 217 800 c 0,16,17
 217 498 217 498 430 285 c 128,-1,18
 643 72 643 72 944 72 c 0,19,20
 1202 72 1202 72 1399 231 c 1,21,-1
 1399 719 l 1,22,-1
 1489 719 l 1,23,-1
 1489 199 l 1,0,1
789 1956 m 1,24,25
 797 1903 797 1903 835 1865 c 0,26,27
 883 1817 883 1817 951 1817 c 0,28,29
 1018 1817 1018 1817 1066 1865 c 0,30,31
 1105 1903 1105 1903 1112 1956 c 1,32,-1
 1185 1956 l 1,33,34
 1177 1873 1177 1873 1117 1813 c 0,35,36
 1049 1744 1049 1744 951 1744 c 0,37,38
 852 1744 852 1744 784 1813 c 0,39,40
 719 1879 719 1879 715 1956 c 1,41,-1
 789 1956 l 1,24,25
EndSplineSet
EndChar

StartChar: gbreve
Encoding: 287 287 219
Width: 1364
GlyphClass: 1
Flags: W
LayerCount: 2
Fore
SplineSet
1119 615 m 1,0,1
 1093 744 1093 744 995 842 c 0,2,3
 862 975 862 975 674 975 c 256,4,5
 486 975 486 975 353 842 c 128,-1,6
 220 709 220 709 220 521 c 256,7,8
 220 333 220 333 353 200 c 128,-1,9
 486 67 486 67 674 67 c 256,10,11
 862 67 862 67 995 200 c 0,12,13
 1092 297 1092 297 1119 425 c 1,14,-1
 1119 615 l 1,0,1
1117 195 m 1,15,16
 1092 163 1092 163 1063 133 c 0,17,18
 902 -28 902 -28 674 -28 c 0,19,20
 447 -28 447 -28 286 133 c 128,-1,21
 125 294 125 294 125 521 c 0,22,23
 125 749 125 749 286 909.5 c 128,-1,24
 447 1070 447 1070 674 1070 c 0,25,26
 902 1070 902 1070 1063 910 c 0,27,28
 1094 878 1094 878 1120 843 c 1,29,-1
 1120 982 l 1,30,-1
 1210 982 l 1,31,-1
 1210 219 l 2,32,33
 1210 -2 1210 -2 1053 -159 c 0,34,35
 892 -320 892 -320 665 -320 c 0,36,37
 437 -320 437 -320 276 -159 c 0,38,39
 243 -126 243 -126 217 -90 c 1,40,-1
 312 -56 l 1,41,42
 327 -74 327 -74 344 -91 c 0,43,44
 477 -224 477 -224 665 -224 c 0,45,46
 852 -224 852 -224 985 -91 c 0,47,48
 1106 30 1106 30 1117 195 c 1,15,16
507 1338 m 1,49,50
 515 1285 515 1285 553 1247 c 0,51,52
 601 1199 601 1199 669 1199 c 0,53,54
 736 1199 736 1199 784 1247 c 0,55,56
 823 1285 823 1285 830 1338 c 1,57,-1
 903 1338 l 1,58,59
 895 1255 895 1255 835 1195 c 0,60,61
 767 1126 767 1126 669 1126 c 0,62,63
 570 1126 570 1126 502 1195 c 0,64,65
 437 1261 437 1261 433 1338 c 1,66,-1
 507 1338 l 1,49,50
EndSplineSet
EndChar

StartChar: Gdotaccent
Encoding: 288 288 220
Width: 1620
GlyphClass: 1
Flags: W
LayerCount: 2
Fore
SplineSet
1489 199 m 1,0,1
 1261 -19 1261 -19 944 -19 c 0,2,3
 604 -19 604 -19 364.5 220.5 c 128,-1,4
 125 460 125 460 125 800 c 0,5,6
 125 1139 125 1139 364.5 1379 c 128,-1,7
 604 1619 604 1619 944 1619 c 0,8,9
 1261 1619 1261 1619 1495 1406 c 1,10,-1
 1427 1344 l 1,11,12
 1221 1527 1221 1527 944 1527 c 0,13,14
 643 1527 643 1527 430 1314 c 128,-1,15
 217 1101 217 1101 217 800 c 0,16,17
 217 498 217 498 430 285 c 128,-1,18
 643 72 643 72 944 72 c 0,19,20
 1202 72 1202 72 1399 231 c 1,21,-1
 1399 719 l 1,22,-1
 1489 719 l 1,23,-1
 1489 199 l 1,0,1
994.5 1899 m 128,-1,25
 1017 1877 1017 1877 1017 1845 c 256,26,27
 1017 1813 1017 1813 994.5 1791 c 128,-1,28
 972 1769 972 1769 941 1769 c 0,29,30
 909 1769 909 1769 886.5 1791 c 128,-1,31
 864 1813 864 1813 864 1845 c 256,32,33
 864 1877 864 1877 886.5 1899 c 128,-1,34
 909 1921 909 1921 941 1921 c 0,35,24
 972 1921 972 1921 994.5 1899 c 128,-1,25
EndSplineSet
EndChar

StartChar: gdotaccent
Encoding: 289 289 221
Width: 1364
GlyphClass: 1
Flags: W
LayerCount: 2
Fore
SplineSet
1119 615 m 1,0,1
 1093 744 1093 744 995 842 c 0,2,3
 862 975 862 975 674 975 c 256,4,5
 486 975 486 975 353 842 c 128,-1,6
 220 709 220 709 220 521 c 256,7,8
 220 333 220 333 353 200 c 128,-1,9
 486 67 486 67 674 67 c 256,10,11
 862 67 862 67 995 200 c 0,12,13
 1092 297 1092 297 1119 425 c 1,14,-1
 1119 615 l 1,0,1
1117 195 m 1,15,16
 1092 163 1092 163 1063 133 c 0,17,18
 902 -28 902 -28 674 -28 c 0,19,20
 447 -28 447 -28 286 133 c 128,-1,21
 125 294 125 294 125 521 c 0,22,23
 125 749 125 749 286 909.5 c 128,-1,24
 447 1070 447 1070 674 1070 c 0,25,26
 902 1070 902 1070 1063 910 c 0,27,28
 1094 878 1094 878 1120 843 c 1,29,-1
 1120 982 l 1,30,-1
 1210 982 l 1,31,-1
 1210 219 l 2,32,33
 1210 -2 1210 -2 1053 -159 c 0,34,35
 892 -320 892 -320 665 -320 c 0,36,37
 437 -320 437 -320 276 -159 c 0,38,39
 243 -126 243 -126 217 -90 c 1,40,-1
 312 -56 l 1,41,42
 327 -74 327 -74 344 -91 c 0,43,44
 477 -224 477 -224 665 -224 c 0,45,46
 852 -224 852 -224 985 -91 c 0,47,48
 1106 30 1106 30 1117 195 c 1,15,16
721.5 1281 m 128,-1,50
 744 1259 744 1259 744 1227 c 256,51,52
 744 1195 744 1195 721.5 1173 c 128,-1,53
 699 1151 699 1151 668 1151 c 0,54,55
 636 1151 636 1151 613.5 1173 c 128,-1,56
 591 1195 591 1195 591 1227 c 256,57,58
 591 1259 591 1259 613.5 1281 c 128,-1,59
 636 1303 636 1303 668 1303 c 0,60,49
 699 1303 699 1303 721.5 1281 c 128,-1,50
EndSplineSet
EndChar

StartChar: Gcommaaccent
Encoding: 290 290 222
Width: 1620
GlyphClass: 1
Flags: W
LayerCount: 2
Fore
SplineSet
773 -3 m 1,0,1
 541 44 541 44 365 221 c 0,2,3
 125 460 125 460 125 800 c 0,4,5
 125 1139 125 1139 364.5 1379 c 128,-1,6
 604 1619 604 1619 944 1619 c 0,7,8
 1261 1619 1261 1619 1495 1406 c 1,9,-1
 1427 1344 l 1,10,11
 1221 1527 1221 1527 944 1527 c 0,12,13
 643 1527 643 1527 430 1314 c 128,-1,14
 217 1101 217 1101 217 800 c 0,15,16
 217 498 217 498 430 285 c 128,-1,17
 643 72 643 72 944 72 c 0,18,19
 1202 72 1202 72 1399 231 c 1,20,-1
 1399 719 l 1,21,-1
 1489 719 l 1,22,-1
 1489 199 l 1,23,24
 1261 -19 1261 -19 944 -19 c 0,25,26
 889 -19 889 -19 837 -13 c 1,27,-1
 835 -29 l 1,28,-1
 834 -35 l 1,29,-1
 835 -35 l 1,30,-1
 832 -75 l 1,31,32
 846 -82 846 -82 860 -90 c 0,33,34
 920 -129 920 -129 928 -184 c 0,35,36
 929 -191 929 -191 929 -198 c 0,37,38
 929 -243 929 -243 886 -276 c 0,39,40
 835 -315 835 -315 756 -315 c 0,41,42
 722 -315 722 -315 692 -308 c 1,43,-1
 703 -253 l 1,44,45
 724 -260 724 -260 749 -260 c 0,46,47
 794 -260 794 -260 823 -237 c 0,48,49
 848 -218 848 -218 848 -191 c 2,50,-1
 848 -184 l 1,51,52
 843 -152 843 -152 808 -129 c 0,53,54
 773 -108 773 -108 731 -107 c 1,55,-1
 773 -3 l 1,0,1
EndSplineSet
EndChar

StartChar: gcommaaccent
Encoding: 291 291 223
Width: 1364
GlyphClass: 1
Flags: W
LayerCount: 2
Fore
SplineSet
1119 615 m 1,0,1
 1093 744 1093 744 995 842 c 0,2,3
 862 975 862 975 674 975 c 256,4,5
 486 975 486 975 353 842 c 128,-1,6
 220 709 220 709 220 521 c 256,7,8
 220 333 220 333 353 200 c 128,-1,9
 486 67 486 67 674 67 c 256,10,11
 862 67 862 67 995 200 c 0,12,13
 1092 297 1092 297 1119 425 c 1,14,-1
 1119 615 l 1,0,1
1117 195 m 1,15,16
 1092 163 1092 163 1063 133 c 0,17,18
 902 -28 902 -28 674 -28 c 0,19,20
 447 -28 447 -28 286 133 c 128,-1,21
 125 294 125 294 125 521 c 0,22,23
 125 749 125 749 286 909.5 c 128,-1,24
 447 1070 447 1070 674 1070 c 0,25,26
 902 1070 902 1070 1063 910 c 0,27,28
 1094 878 1094 878 1120 843 c 1,29,-1
 1120 982 l 1,30,-1
 1210 982 l 1,31,-1
 1210 219 l 2,32,33
 1210 -2 1210 -2 1053 -159 c 0,34,35
 892 -320 892 -320 665 -320 c 0,36,37
 437 -320 437 -320 276 -159 c 0,38,39
 243 -126 243 -126 217 -90 c 1,40,-1
 312 -56 l 1,41,42
 327 -74 327 -74 344 -91 c 0,43,44
 477 -224 477 -224 665 -224 c 0,45,46
 852 -224 852 -224 985 -91 c 0,47,48
 1106 30 1106 30 1117 195 c 1,15,16
717 1311 m 1,49,50
 740 1306 740 1306 757 1288 c 0,51,52
 784 1262 784 1262 784 1224 c 0,53,54
 784 1187 784 1187 757.5 1161 c 128,-1,55
 731 1135 731 1135 694 1135 c 256,56,57
 657 1135 657 1135 630.5 1161 c 128,-1,58
 604 1187 604 1187 604 1224 c 0,59,60
 604 1245 604 1245 611 1263 c 2,61,-1
 709 1461 l 1,62,-1
 774 1461 l 1,63,-1
 717 1311 l 1,49,50
EndSplineSet
EndChar

StartChar: Hcircumflex
Encoding: 292 292 224
Width: 1150
GlyphClass: 1
Flags: W
LayerCount: 2
Fore
SplineSet
240 717 m 1,0,-1
 240 0 l 1,1,-1
 150 0 l 1,2,-1
 150 1600 l 1,3,-1
 240 1600 l 1,4,-1
 240 807 l 1,5,-1
 910 807 l 1,6,-1
 910 1600 l 1,7,-1
 1000 1600 l 1,8,-1
 1000 0 l 1,9,-1
 910 0 l 1,10,-1
 910 717 l 1,11,-1
 240 717 l 1,0,-1
623 1942 m 1,12,-1
 861 1708 l 1,13,-1
 757 1708 l 1,14,-1
 571 1851 l 1,15,-1
 395 1708 l 1,16,-1
 290 1708 l 1,17,-1
 519 1942 l 1,18,-1
 623 1942 l 1,12,-1
EndSplineSet
EndChar

StartChar: hcircumflex
Encoding: 293 293 225
Width: 1059
GlyphClass: 1
Flags: W
LayerCount: 2
Fore
SplineSet
150 1600 m 1,0,-1
 240 1600 l 1,1,-1
 240 931 l 1,2,3
 354 1041 354 1041 514 1041 c 0,4,5
 688 1041 688 1041 797 932 c 128,-1,6
 906 823 906 823 909 657 c 2,7,-1
 909 0 l 1,8,-1
 819 0 l 1,9,-1
 819 649 l 2,10,11
 819 774 819 774 728.5 862.5 c 128,-1,12
 638 951 638 951 514 951 c 256,13,14
 390 951 390 951 300 864 c 0,15,16
 260 824 260 824 240 781 c 1,17,-1
 240 0 l 1,18,-1
 150 0 l 1,19,-1
 150 1600 l 1,0,-1
623 1942 m 1,20,-1
 861 1708 l 1,21,-1
 757 1708 l 1,22,-1
 571 1851 l 1,23,-1
 395 1708 l 1,24,-1
 290 1708 l 1,25,-1
 519 1942 l 1,26,-1
 623 1942 l 1,20,-1
EndSplineSet
EndChar

StartChar: Hbar
Encoding: 294 294 226
Width: 1140
GlyphClass: 1
Flags: W
LayerCount: 2
Fore
SplineSet
995 1310 m 1,0,-1
 995 0 l 1,1,-1
 905 0 l 1,2,-1
 905 717 l 1,3,-1
 235 717 l 1,4,-1
 235 0 l 1,5,-1
 145 0 l 1,6,-1
 145 1310 l 1,7,-1
 70 1310 l 1,8,-1
 70 1400 l 1,9,-1
 145 1400 l 1,10,-1
 145 1600 l 1,11,-1
 235 1600 l 1,12,-1
 235 1400 l 1,13,-1
 905 1400 l 1,14,-1
 905 1600 l 1,15,-1
 995 1600 l 1,16,-1
 995 1400 l 1,17,-1
 1070 1400 l 1,18,-1
 1070 1310 l 1,19,-1
 995 1310 l 1,0,-1
235 1310 m 1,20,-1
 235 807 l 1,21,-1
 905 807 l 1,22,-1
 905 1310 l 1,23,-1
 235 1310 l 1,20,-1
EndSplineSet
EndChar

StartChar: hbar
Encoding: 295 295 227
Width: 1059
GlyphClass: 1
Flags: W
LayerCount: 2
Fore
SplineSet
150 1373 m 1,0,-1
 150 1600 l 1,1,-1
 240 1600 l 1,2,-1
 240 1373 l 1,3,-1
 650 1373 l 1,4,-1
 650 1283 l 1,5,-1
 240 1283 l 1,6,-1
 240 931 l 1,7,8
 354 1041 354 1041 514 1041 c 0,9,10
 688 1041 688 1041 797 932 c 128,-1,11
 906 823 906 823 909 657 c 2,12,-1
 909 0 l 1,13,-1
 819 0 l 1,14,-1
 819 649 l 2,15,16
 819 774 819 774 728.5 862.5 c 128,-1,17
 638 951 638 951 514 951 c 256,18,19
 390 951 390 951 300 864 c 0,20,21
 260 824 260 824 240 781 c 1,22,-1
 240 0 l 1,23,-1
 150 0 l 1,24,-1
 150 1283 l 1,25,-1
 50 1283 l 1,26,-1
 50 1373 l 1,27,-1
 150 1373 l 1,0,-1
EndSplineSet
EndChar

StartChar: Iogonek
Encoding: 302 302 234
Width: 430
GlyphClass: 1
Flags: W
LayerCount: 2
Fore
SplineSet
170 10 m 1,0,-1
 170 1600 l 1,1,-1
 260 1600 l 1,2,-1
 260 0 l 1,3,-1
 223 0 l 1,4,5
 159 -42 159 -42 150 -102 c 0,6,7
 148 -120 148 -120 148 -136 c 0,8,9
 148 -184 148 -184 170 -210 c 0,10,11
 200 -246 200 -246 250 -246 c 0,12,13
 280 -246 280 -246 308 -232 c 1,14,-1
 330 -282 l 1,15,16
 274 -305 274 -305 219 -305 c 0,17,18
 146 -305 146 -305 102 -256 c 0,19,20
 67 -217 67 -217 67 -160 c 0,21,22
 67 -146 67 -146 69 -131 c 0,23,24
 80 -52 80 -52 170 10 c 1,0,-1
EndSplineSet
EndChar

StartChar: iogonek
Encoding: 303 303 235
Width: 430
GlyphClass: 1
Flags: W
LayerCount: 2
Fore
SplineSet
278.5 1304 m 128,-1,1
 305 1278 305 1278 305 1241 c 0,2,3
 305 1203 305 1203 278.5 1177 c 128,-1,4
 252 1151 252 1151 215 1151 c 256,5,6
 178 1151 178 1151 151.5 1177 c 128,-1,7
 125 1203 125 1203 125 1241 c 0,8,9
 125 1278 125 1278 151.5 1304 c 128,-1,10
 178 1330 178 1330 215 1330 c 256,11,0
 252 1330 252 1330 278.5 1304 c 128,-1,1
170 7 m 1,12,-1
 170 982 l 1,13,-1
 260 982 l 1,14,-1
 260 0 l 1,15,-1
 228 0 l 1,16,17
 164 -42 164 -42 155 -102 c 0,18,19
 153 -120 153 -120 153 -136 c 0,20,21
 153 -184 153 -184 175 -210 c 0,22,23
 205 -246 205 -246 255 -246 c 0,24,25
 285 -246 285 -246 313 -232 c 1,26,-1
 335 -282 l 1,27,28
 279 -305 279 -305 224 -305 c 0,29,30
 151 -305 151 -305 107 -256 c 0,31,32
 72 -217 72 -217 72 -160 c 0,33,34
 72 -146 72 -146 74 -131 c 0,35,36
 85 -54 85 -54 170 7 c 1,12,-1
EndSplineSet
EndChar

StartChar: dotlessi
Encoding: 305 305 236
Width: 430
GlyphClass: 1
Flags: W
LayerCount: 2
Fore
SplineSet
260 982 m 1,0,-1
 260 0 l 1,1,-1
 170 0 l 1,2,-1
 170 982 l 1,3,-1
 260 982 l 1,0,-1
EndSplineSet
EndChar

StartChar: ij
Encoding: 307 307 238
Width: 885
GlyphClass: 1
Flags: W
LayerCount: 2
Fore
SplineSet
260 982 m 1,0,-1
 260 0 l 1,1,-1
 170 0 l 1,2,-1
 170 982 l 1,3,-1
 260 982 l 1,0,-1
278.5 1304 m 128,-1,5
 305 1278 305 1278 305 1241 c 0,6,7
 305 1203 305 1203 278.5 1177 c 128,-1,8
 252 1151 252 1151 215 1151 c 256,9,10
 178 1151 178 1151 151.5 1177 c 128,-1,11
 125 1203 125 1203 125 1241 c 0,12,13
 125 1278 125 1278 151.5 1304 c 128,-1,14
 178 1330 178 1330 215 1330 c 256,15,4
 252 1330 252 1330 278.5 1304 c 128,-1,5
479 -138 m 1,16,17
 600 -124 600 -124 600 -2 c 2,18,-1
 600 982 l 1,19,-1
 690 982 l 1,20,-1
 690 0 l 2,21,22
 690 -211 690 -211 479 -228 c 1,23,-1
 479 -138 l 1,16,17
708.5 1304 m 128,-1,25
 735 1278 735 1278 735 1241 c 0,26,27
 735 1203 735 1203 708.5 1177 c 128,-1,28
 682 1151 682 1151 645 1151 c 256,29,30
 608 1151 608 1151 581.5 1177 c 128,-1,31
 555 1203 555 1203 555 1241 c 0,32,33
 555 1278 555 1278 581.5 1304 c 128,-1,34
 608 1330 608 1330 645 1330 c 256,35,24
 682 1330 682 1330 708.5 1304 c 128,-1,25
EndSplineSet
EndChar

StartChar: Jcircumflex
Encoding: 308 308 239
Width: 857
GlyphClass: 1
Flags: W
LayerCount: 2
Fore
SplineSet
702 304 m 2,0,1
 702 152 702 152 622 72 c 0,2,3
 537 -14 537 -14 416 -14 c 256,4,5
 295 -14 295 -14 210 71.5 c 128,-1,6
 125 157 125 157 125 259 c 1,7,-1
 184 282 l 1,8,9
 204 174 204 174 269 120 c 0,10,11
 323 74 323 74 391 74 c 0,12,13
 403 74 403 74 416 76 c 0,14,15
 499 76 499 76 559 135 c 0,16,17
 612 188 612 188 612 314 c 2,18,-1
 612 1600 l 1,19,-1
 702 1600 l 1,20,-1
 702 304 l 2,0,1
681 1942 m 1,21,-1
 919 1708 l 1,22,-1
 815 1708 l 1,23,-1
 629 1851 l 1,24,-1
 453 1708 l 1,25,-1
 348 1708 l 1,26,-1
 577 1942 l 1,27,-1
 681 1942 l 1,21,-1
EndSplineSet
EndChar

StartChar: jcircumflex
Encoding: 309 309 240
Width: 430
GlyphClass: 1
Flags: W
LayerCount: 2
Fore
SplineSet
263 1324 m 1,0,-1
 501 1090 l 1,1,-1
 397 1090 l 1,2,-1
 211 1233 l 1,3,-1
 35 1090 l 1,4,-1
 -70 1090 l 1,5,-1
 159 1324 l 1,6,-1
 263 1324 l 1,0,-1
49 -138 m 1,7,8
 170 -124 170 -124 170 -2 c 2,9,-1
 170 982 l 1,10,-1
 260 982 l 1,11,-1
 260 0 l 2,12,13
 260 -211 260 -211 49 -228 c 1,14,-1
 49 -138 l 1,7,8
EndSplineSet
EndChar

StartChar: Kcommaaccent
Encoding: 310 310 241
Width: 1131
GlyphClass: 1
Flags: W
LayerCount: 2
Fore
SplineSet
862 1600 m 1,0,-1
 447 999 l 1,1,-1
 1146 0 l 1,2,-1
 1037 0 l 1,3,-1
 390 924 l 1,4,-1
 218 678 l 1,5,-1
 218 0 l 1,6,-1
 127 0 l 1,7,-1
 127 1600 l 1,8,-1
 218 1600 l 1,9,-1
 218 834 l 1,10,-1
 753 1600 l 1,11,-1
 862 1600 l 1,0,-1
604 -57 m 1,12,13
 689 -57 689 -57 722 -83 c 0,14,15
 767 -118 767 -118 767 -167 c 2,16,-1
 767 -177 l 1,17,18
 761 -232 761 -232 698 -279 c 1,19,20
 642 -310 642 -310 580 -310 c 0,21,22
 545 -310 545 -310 507 -300 c 1,23,-1
 526 -242 l 1,24,25
 558 -255 558 -255 588 -255 c 0,26,27
 623 -255 623 -255 656 -238 c 1,28,29
 684 -217 684 -217 690 -189 c 0,30,31
 691 -183 691 -183 691 -177 c 0,32,33
 691 -156 691 -156 675 -140 c 0,34,35
 655 -121 655 -121 604 -120 c 1,36,-1
 604 -57 l 1,12,13
EndSplineSet
EndChar

StartChar: kcommaaccent
Encoding: 311 311 242
Width: 823
GlyphClass: 1
Flags: W
LayerCount: 2
Fore
SplineSet
629 982 m 1,0,-1
 387 682 l 1,1,-1
 773 0 l 1,2,-1
 661 0 l 1,3,-1
 328 610 l 1,4,-1
 240 501 l 1,5,-1
 240 0 l 1,6,-1
 150 0 l 1,7,-1
 150 1400 l 1,8,-1
 240 1400 l 1,9,-1
 240 645 l 1,10,-1
 513 982 l 1,11,-1
 629 982 l 1,0,-1
429 -57 m 1,12,13
 514 -57 514 -57 546 -83 c 0,14,15
 592 -118 592 -118 592 -167 c 2,16,-1
 592 -177 l 1,17,18
 586 -232 586 -232 523 -279 c 1,19,20
 467 -310 467 -310 405 -310 c 0,21,22
 370 -310 370 -310 331 -300 c 1,23,-1
 351 -242 l 1,24,25
 382 -255 382 -255 413 -255 c 0,26,27
 448 -255 448 -255 481 -238 c 1,28,29
 509 -217 509 -217 515 -189 c 0,30,31
 516 -183 516 -183 516 -177 c 0,32,33
 516 -156 516 -156 500 -140 c 0,34,35
 480 -121 480 -121 429 -120 c 1,36,-1
 429 -57 l 1,12,13
EndSplineSet
EndChar

StartChar: kgreenlandic
Encoding: 312 312 243
Width: 823
GlyphClass: 1
Flags: W
LayerCount: 2
Fore
SplineSet
629 982 m 1,0,-1
 387 682 l 1,1,-1
 773 0 l 1,2,-1
 661 0 l 1,3,-1
 328 610 l 1,4,-1
 240 501 l 1,5,-1
 240 0 l 1,6,-1
 150 0 l 1,7,-1
 150 982 l 1,8,-1
 240 982 l 1,9,-1
 240 645 l 1,10,-1
 513 982 l 1,11,-1
 629 982 l 1,0,-1
EndSplineSet
EndChar

StartChar: Lacute
Encoding: 313 313 244
Width: 886
GlyphClass: 1
Flags: W
LayerCount: 2
Fore
SplineSet
127 0 m 1,0,-1
 127 1600 l 1,1,-1
 218 1600 l 1,2,-1
 218 90 l 1,3,-1
 827 90 l 1,4,-1
 827 0 l 1,5,-1
 127 0 l 1,0,-1
697 1904 m 1,6,-1
 452 1717 l 1,7,-1
 368 1717 l 1,8,-1
 531 1904 l 1,9,-1
 697 1904 l 1,6,-1
EndSplineSet
EndChar

StartChar: lacute
Encoding: 314 314 245
Width: 340
GlyphClass: 1
Flags: W
LayerCount: 2
Fore
SplineSet
216 1600 m 1,0,-1
 216 0 l 1,1,-1
 126 0 l 1,2,-1
 126 1600 l 1,3,-1
 216 1600 l 1,0,-1
335 1945 m 1,4,-1
 90 1758 l 1,5,-1
 6 1758 l 1,6,-1
 169 1945 l 1,7,-1
 335 1945 l 1,4,-1
EndSplineSet
EndChar

StartChar: Lcommaaccent
Encoding: 315 315 246
Width: 886
GlyphClass: 1
Flags: W
LayerCount: 2
Fore
SplineSet
492 0 m 1,0,-1
 127 0 l 1,1,-1
 127 1600 l 1,2,-1
 218 1600 l 1,3,-1
 218 90 l 1,4,-1
 827 90 l 1,5,-1
 827 0 l 1,6,-1
 556 0 l 1,7,-1
 553 -29 l 1,8,-1
 552 -35 l 1,9,-1
 553 -35 l 1,10,-1
 550 -75 l 1,11,12
 564 -82 564 -82 578 -90 c 0,13,14
 638 -129 638 -129 646 -184 c 0,15,16
 647 -191 647 -191 647 -198 c 0,17,18
 647 -243 647 -243 604 -276 c 0,19,20
 553 -315 553 -315 474 -315 c 0,21,22
 440 -315 440 -315 410 -308 c 1,23,-1
 421 -253 l 1,24,25
 442 -260 442 -260 467 -260 c 0,26,27
 512 -260 512 -260 541 -237 c 0,28,29
 566 -218 566 -218 566 -191 c 2,30,-1
 566 -184 l 1,31,32
 561 -152 561 -152 526 -129 c 0,33,34
 491 -108 491 -108 449 -107 c 1,35,-1
 492 0 l 1,0,-1
EndSplineSet
EndChar

StartChar: lcommaaccent
Encoding: 316 316 247
Width: 497
GlyphClass: 1
Flags: W
LayerCount: 2
Fore
SplineSet
152 0 m 1,0,-1
 127 0 l 1,1,-1
 127 1600 l 1,2,-1
 218 1600 l 1,3,-1
 218 0 l 1,4,-1
 216 0 l 1,5,-1
 213 -29 l 1,6,-1
 212 -35 l 1,7,-1
 213 -35 l 1,8,-1
 210 -75 l 1,9,10
 224 -82 224 -82 238 -90 c 0,11,12
 298 -129 298 -129 306 -184 c 0,13,14
 307 -191 307 -191 307 -198 c 0,15,16
 307 -243 307 -243 264 -276 c 0,17,18
 213 -315 213 -315 134 -315 c 0,19,20
 100 -315 100 -315 70 -308 c 1,21,-1
 81 -253 l 1,22,23
 102 -260 102 -260 127 -260 c 0,24,25
 172 -260 172 -260 201 -237 c 0,26,27
 226 -218 226 -218 226 -191 c 2,28,-1
 226 -184 l 1,29,30
 221 -152 221 -152 186 -129 c 0,31,32
 151 -108 151 -108 109 -107 c 1,33,-1
 152 0 l 1,0,-1
EndSplineSet
EndChar

StartChar: Lcaron
Encoding: 317 317 248
Width: 886
GlyphClass: 1
Flags: W
LayerCount: 2
Fore
SplineSet
127 0 m 1,0,-1
 127 1600 l 1,1,-1
 218 1600 l 1,2,-1
 218 90 l 1,3,-1
 827 90 l 1,4,-1
 827 0 l 1,5,-1
 127 0 l 1,0,-1
667 1435 m 1,6,7
 644 1439 644 1439 627 1457 c 0,8,9
 600 1483 600 1483 600 1522 c 0,10,11
 600 1559 600 1559 626.5 1584.5 c 128,-1,12
 653 1610 653 1610 690 1610 c 256,13,14
 727 1610 727 1610 753.5 1584.5 c 128,-1,15
 780 1559 780 1559 780 1522 c 0,16,17
 780 1500 780 1500 773 1482 c 2,18,-1
 675 1284 l 1,19,-1
 610 1284 l 1,20,-1
 667 1435 l 1,6,7
EndSplineSet
EndChar

StartChar: lcaron
Encoding: 318 318 249
Width: 497
GlyphClass: 1
Flags: W
LayerCount: 2
Fore
SplineSet
218 1600 m 1,0,-1
 218 0 l 1,1,-1
 127 0 l 1,2,-1
 127 1600 l 1,3,-1
 218 1600 l 1,0,-1
384 1435 m 1,4,5
 361 1439 361 1439 344 1457 c 0,6,7
 317 1483 317 1483 317 1522 c 0,8,9
 317 1559 317 1559 343.5 1584.5 c 128,-1,10
 370 1610 370 1610 408 1610 c 0,11,12
 444 1610 444 1610 470.5 1584.5 c 128,-1,13
 497 1559 497 1559 497 1522 c 0,14,15
 497 1500 497 1500 490 1482 c 2,16,-1
 392 1284 l 1,17,-1
 327 1284 l 1,18,-1
 384 1435 l 1,4,5
EndSplineSet
EndChar

StartChar: Ldot
Encoding: 319 319 250
Width: 886
GlyphClass: 1
Flags: W
LayerCount: 2
Fore
SplineSet
127 0 m 1,0,-1
 127 1600 l 1,1,-1
 218 1600 l 1,2,-1
 218 90 l 1,3,-1
 827 90 l 1,4,-1
 827 0 l 1,5,-1
 127 0 l 1,0,-1
759.5 853.5 m 128,-1,7
 782 831 782 831 782 800 c 0,8,9
 782 768 782 768 759.5 746 c 128,-1,10
 737 724 737 724 706 724 c 256,11,12
 675 724 675 724 652 746 c 128,-1,13
 629 768 629 768 629 800 c 0,14,15
 629 831 629 831 652 853.5 c 128,-1,16
 675 876 675 876 706 876 c 256,17,6
 737 876 737 876 759.5 853.5 c 128,-1,7
EndSplineSet
EndChar

StartChar: ldot
Encoding: 320 320 251
Width: 498
GlyphClass: 1
Flags: W
LayerCount: 2
Fore
SplineSet
203 1600 m 1,0,-1
 203 0 l 1,1,-1
 112 0 l 1,2,-1
 112 1600 l 1,3,-1
 203 1600 l 1,0,-1
445.5 853.5 m 128,-1,5
 468 831 468 831 468 800 c 0,6,7
 468 768 468 768 445.5 746 c 128,-1,8
 423 724 423 724 393 724 c 0,9,10
 361 724 361 724 338.5 746 c 128,-1,11
 316 768 316 768 316 800 c 0,12,13
 316 831 316 831 338.5 853.5 c 128,-1,14
 361 876 361 876 393 876 c 0,15,4
 423 876 423 876 445.5 853.5 c 128,-1,5
EndSplineSet
EndChar

StartChar: Lslash
Encoding: 321 321 252
Width: 986
GlyphClass: 1
Flags: W
LayerCount: 2
Fore
SplineSet
319 787 m 1,0,-1
 774 1157 l 1,1,-1
 774 1051 l 1,2,-1
 319 681 l 1,3,-1
 319 90 l 1,4,-1
 929 90 l 1,5,-1
 929 0 l 1,6,-1
 229 0 l 1,7,-1
 229 606 l 1,8,-1
 0 421 l 1,9,-1
 0 527 l 1,10,-1
 229 713 l 1,11,-1
 229 1600 l 1,12,-1
 319 1600 l 1,13,-1
 319 787 l 1,0,-1
EndSplineSet
EndChar

StartChar: lslash
Encoding: 322 322 253
Width: 425
GlyphClass: 1
Flags: W
LayerCount: 2
Fore
SplineSet
167 805 m 1,0,-1
 167 1600 l 1,1,-1
 258 1600 l 1,2,-1
 258 879 l 1,3,-1
 425 1016 l 1,4,-1
 425 910 l 1,5,-1
 258 773 l 1,6,-1
 258 0 l 1,7,-1
 167 0 l 1,8,-1
 167 699 l 1,9,-1
 0 562 l 1,10,-1
 0 669 l 1,11,-1
 167 805 l 1,0,-1
EndSplineSet
EndChar

StartChar: Ncommaaccent
Encoding: 325 325 256
Width: 1311
GlyphClass: 1
Flags: W
LayerCount: 2
Fore
SplineSet
150 1600 m 1,0,-1
 249 1600 l 1,1,-1
 1071 177 l 1,2,-1
 1071 1600 l 1,3,-1
 1161 1600 l 1,4,-1
 1161 0 l 1,5,-1
 1071 0 l 1,6,-1
 240 1437 l 1,7,-1
 240 0 l 1,8,-1
 150 0 l 1,9,-1
 150 1600 l 1,0,-1
623 -57 m 1,10,11
 708 -57 708 -57 740 -83 c 0,12,13
 786 -118 786 -118 786 -167 c 2,14,-1
 786 -177 l 1,15,16
 780 -232 780 -232 717 -279 c 1,17,18
 661 -310 661 -310 599 -310 c 0,19,20
 564 -310 564 -310 525 -300 c 1,21,-1
 545 -242 l 1,22,23
 576 -255 576 -255 607 -255 c 0,24,25
 642 -255 642 -255 675 -238 c 1,26,27
 703 -217 703 -217 709 -189 c 0,28,29
 710 -183 710 -183 710 -177 c 0,30,31
 710 -156 710 -156 694 -140 c 0,32,33
 674 -121 674 -121 623 -120 c 1,34,-1
 623 -57 l 1,10,11
EndSplineSet
EndChar

StartChar: ncommaaccent
Encoding: 326 326 257
Width: 1071
GlyphClass: 1
Flags: W
LayerCount: 2
Fore
SplineSet
240 763 m 1,0,-1
 240 0 l 1,1,-1
 150 0 l 1,2,-1
 150 982 l 1,3,-1
 240 982 l 1,4,-1
 240 919 l 1,5,6
 363 1041 363 1041 526 1041 c 0,7,8
 700 1041 700 1041 809 932 c 128,-1,9
 918 823 918 823 921 657 c 2,10,-1
 921 0 l 1,11,-1
 831 0 l 1,12,-1
 831 649 l 2,13,14
 831 774 831 774 740.5 862.5 c 128,-1,15
 650 951 650 951 526 951 c 256,16,17
 402 951 402 951 312 864 c 0,18,19
 263 815 263 815 240 763 c 1,0,-1
503 -57 m 1,20,21
 588 -57 588 -57 620 -83 c 0,22,23
 666 -118 666 -118 666 -167 c 2,24,-1
 666 -177 l 1,25,26
 660 -232 660 -232 597 -279 c 1,27,28
 541 -310 541 -310 479 -310 c 0,29,30
 444 -310 444 -310 405 -300 c 1,31,-1
 425 -242 l 1,32,33
 456 -255 456 -255 487 -255 c 0,34,35
 522 -255 522 -255 555 -238 c 1,36,37
 583 -217 583 -217 589 -189 c 0,38,39
 590 -183 590 -183 590 -177 c 0,40,41
 590 -156 590 -156 574 -140 c 0,42,43
 554 -121 554 -121 503 -120 c 1,44,-1
 503 -57 l 1,20,21
EndSplineSet
EndChar

StartChar: napostrophe
Encoding: 329 329 260
Width: 1071
GlyphClass: 1
Flags: W
LayerCount: 2
Fore
SplineSet
240 763 m 1,0,-1
 240 0 l 1,1,-1
 150 0 l 1,2,-1
 150 982 l 1,3,-1
 240 982 l 1,4,-1
 240 919 l 1,5,6
 363 1041 363 1041 526 1041 c 0,7,8
 700 1041 700 1041 809 932 c 128,-1,9
 918 823 918 823 921 657 c 2,10,-1
 921 0 l 1,11,-1
 831 0 l 1,12,-1
 831 649 l 2,13,14
 831 774 831 774 740.5 862.5 c 128,-1,15
 650 951 650 951 526 951 c 256,16,17
 402 951 402 951 312 864 c 0,18,19
 263 815 263 815 240 763 c 1,0,-1
88 1402 m 1,20,21
 65 1406 65 1406 48 1424 c 0,22,23
 21 1450 21 1450 21 1489 c 0,24,25
 21 1526 21 1526 47.5 1551.5 c 128,-1,26
 74 1577 74 1577 112 1577 c 0,27,28
 148 1577 148 1577 174.5 1551.5 c 128,-1,29
 201 1526 201 1526 201 1489 c 0,30,31
 201 1467 201 1467 194 1449 c 2,32,-1
 96 1251 l 1,33,-1
 31 1251 l 1,34,-1
 88 1402 l 1,20,21
EndSplineSet
EndChar

StartChar: Eng
Encoding: 330 330 261
Width: 1311
GlyphClass: 1
Flags: W
LayerCount: 2
Fore
SplineSet
1070 2 m 1,0,-1
 240 1437 l 1,1,-1
 240 0 l 1,2,-1
 150 0 l 1,3,-1
 150 1600 l 1,4,-1
 249 1600 l 1,5,-1
 1070 179 l 1,6,-1
 1070 944 l 1,7,-1
 1071 944 l 1,8,-1
 1071 1600 l 1,9,-1
 1161 1600 l 1,10,-1
 1161 0 l 1,11,-1
 1160 0 l 1,12,13
 1150 -277 1150 -277 1009 -346 c 1,14,-1
 968 -301 l 1,15,16
 1073 -206 1073 -206 1073 -52 c 0,17,18
 1073 -26 1073 -26 1070 2 c 1,0,-1
EndSplineSet
EndChar

StartChar: eng
Encoding: 331 331 262
Width: 1071
GlyphClass: 1
Flags: W
LayerCount: 2
Fore
SplineSet
831 544 m 1,0,-1
 831 649 l 2,1,2
 831 774 831 774 740.5 862.5 c 128,-1,3
 650 951 650 951 526 951 c 256,4,5
 402 951 402 951 312 864 c 0,6,7
 263 815 263 815 240 763 c 1,8,-1
 240 0 l 1,9,-1
 150 0 l 1,10,-1
 150 982 l 1,11,-1
 240 982 l 1,12,-1
 240 919 l 1,13,14
 363 1041 363 1041 526 1041 c 0,15,16
 700 1041 700 1041 809 932 c 128,-1,17
 918 823 918 823 921 657 c 2,18,-1
 921 0 l 1,19,-1
 920 0 l 1,20,21
 900 -249 900 -249 769 -346 c 1,22,-1
 729 -306 l 1,23,24
 811 -249 811 -249 830 -40 c 1,25,-1
 830 544 l 1,26,-1
 831 544 l 1,0,-1
EndSplineSet
EndChar

StartChar: OE
Encoding: 338 338 269
Width: 2295
GlyphClass: 1
Flags: W
LayerCount: 2
Fore
SplineSet
1330 1510 m 1,0,1
 1416 1458 1416 1458 1492 1383 c 0,2,3
 1717 1157 1717 1157 1731 845 c 1,4,-1
 2170 845 l 1,5,-1
 2170 755 l 1,6,-1
 1731 755 l 1,7,8
 1715 445 1715 445 1492 222 c 0,9,10
 1413 143 1413 143 1324 90 c 1,11,-1
 2170 90 l 1,12,-1
 2170 0 l 1,13,-1
 1170 0 l 1,14,15
 1049 -19 1049 -19 911 -19 c 0,16,17
 571 -19 571 -19 330.5 221.5 c 128,-1,18
 90 462 90 462 90 802 c 256,19,20
 90 1142 90 1142 330.5 1382.5 c 128,-1,21
 571 1623 571 1623 911 1623 c 0,22,23
 1049 1623 1049 1623 1170 1600 c 1,24,-1
 2170 1600 l 1,25,-1
 2170 1510 l 1,26,-1
 1330 1510 l 1,0,1
1639 845 m 0,27,28
 1625 1119 1625 1119 1427 1318 c 0,29,30
 1349 1395 1349 1395 1260 1444 c 0,31,32
 1216 1468 1216 1468 1170 1486 c 0,33,34
 1050 1531 1050 1531 911 1531 c 0,35,36
 609 1531 609 1531 395.5 1317.5 c 128,-1,37
 182 1104 182 1104 182 802 c 256,38,39
 182 500 182 500 395.5 286 c 128,-1,40
 609 72 609 72 911 72 c 0,41,42
 1050 72 1050 72 1170 117 c 0,43,44
 1216 135 1216 135 1260 159 c 0,45,46
 1349 208 1349 208 1427 286 c 0,47,48
 1623 483 1623 483 1639 755 c 0,49,50
 1640 778 1640 778 1640 802 c 0,51,52
 1640 824 1640 824 1639 845 c 0,27,28
EndSplineSet
EndChar

StartChar: oe
Encoding: 339 339 270
Width: 2127
GlyphClass: 1
Flags: W
LayerCount: 2
Fore
SplineSet
185 521 m 256,1,2
 185 333 185 333 318 200.5 c 128,-1,3
 451 68 451 68 639 68 c 256,4,5
 827 68 827 68 960 200.5 c 128,-1,6
 1093 333 1093 333 1093 521 c 256,7,8
 1093 709 1093 709 960 842 c 128,-1,9
 827 975 827 975 639 975 c 256,10,11
 451 975 451 975 318 842 c 128,-1,0
 185 709 185 709 185 521 c 256,1,2
1126 779 m 1,12,13
 1155 724 1155 724 1171 663 c 1,14,-1
 1929 663 l 1,15,16
 1897 766 1897 766 1821 842 c 0,17,18
 1688 975 1688 975 1500 975 c 256,19,20
 1312 975 1312 975 1179 842 c 0,21,22
 1149 812 1149 812 1126 779 c 1,12,13
1125 263 m 1,23,24
 1149 231 1149 231 1179 201 c 0,25,26
 1312 68 1312 68 1500 68 c 256,27,28
 1688 68 1688 68 1821 201 c 0,29,30
 1844 224 1844 224 1864 249 c 1,31,-1
 1960 215 l 1,32,33
 1943 187 1943 187 1889 133 c 0,34,35
 1728 -28 1728 -28 1500 -28 c 0,36,37
 1273 -28 1273 -28 1112 133 c 0,38,39
 1089 156 1089 156 1070 180 c 1,40,41
 1050 156 1050 156 1028 133 c 0,42,43
 867 -28 867 -28 639 -28 c 0,44,45
 412 -28 412 -28 251 133 c 128,-1,46
 90 294 90 294 90 521 c 0,47,48
 90 749 90 749 251 910 c 128,-1,49
 412 1071 412 1071 639 1071 c 0,50,51
 867 1071 867 1071 1028 910 c 0,52,53
 1050 887 1050 887 1070 863 c 1,54,55
 1089 887 1089 887 1112 910 c 0,56,57
 1273 1071 1273 1071 1500 1071 c 0,58,59
 1728 1071 1728 1071 1889 910 c 0,60,61
 2031 767 2031 767 2037 572 c 1,62,-1
 1186 573 l 1,63,64
 1188 547 1188 547 1188 521 c 0,65,66
 1188 379 1188 379 1125 263 c 1,23,24
EndSplineSet
EndChar

StartChar: Rcommaaccent
Encoding: 342 342 273
Width: 1085
GlyphClass: 1
Flags: W
LayerCount: 2
Fore
SplineSet
218 1508 m 1,0,-1
 218 646 l 1,1,-1
 489 646 l 2,2,3
 667 646 667 646 793.5 772 c 128,-1,4
 920 898 920 898 920 1078 c 0,5,6
 920 1257 920 1257 793.5 1382.5 c 128,-1,7
 667 1508 667 1508 489 1508 c 2,8,-1
 218 1508 l 1,0,-1
516 555 m 1,9,10
 503 554 503 554 489 554 c 2,11,-1
 218 554 l 1,12,-1
 218 0 l 1,13,-1
 127 0 l 1,14,-1
 127 1600 l 1,15,-1
 547 1600 l 1,16,17
 730 1575 730 1575 858 1447 c 0,18,19
 1011 1293 1011 1293 1011 1078 c 0,20,21
 1011 861 1011 861 858 708 c 0,22,23
 752 602 752 602 615 569 c 1,24,-1
 984 0 l 1,25,-1
 873 0 l 1,26,-1
 516 555 l 1,9,10
462 -57 m 1,27,28
 547 -57 547 -57 580 -83 c 0,29,30
 625 -118 625 -118 625 -167 c 2,31,-1
 625 -177 l 1,32,33
 619 -232 619 -232 556 -279 c 1,34,35
 500 -310 500 -310 438 -310 c 0,36,37
 403 -310 403 -310 365 -300 c 1,38,-1
 384 -242 l 1,39,40
 416 -255 416 -255 446 -255 c 0,41,42
 481 -255 481 -255 514 -238 c 1,43,44
 542 -217 542 -217 548 -189 c 0,45,46
 549 -183 549 -183 549 -177 c 0,47,48
 549 -156 549 -156 533 -140 c 0,49,50
 513 -121 513 -121 462 -120 c 1,51,-1
 462 -57 l 1,27,28
EndSplineSet
EndChar

StartChar: rcommaaccent
Encoding: 343 343 274
Width: 459
GlyphClass: 1
Flags: W
LayerCount: 2
Fore
SplineSet
459 903 m 1,0,1
 386 888 386 888 310 811 c 0,2,3
 182 684 182 684 178 507 c 1,4,-1
 178 0 l 1,5,-1
 87 0 l 1,6,-1
 87 982 l 1,7,-1
 178 982 l 1,8,-1
 178 803 l 1,9,10
 205 843 205 843 242 880 c 0,11,12
 325 963 325 963 410 990 c 1,13,-1
 459 903 l 1,0,1
122 -57 m 1,14,15
 207 -57 207 -57 240 -83 c 0,16,17
 285 -118 285 -118 285 -167 c 2,18,-1
 285 -177 l 1,19,20
 280 -232 280 -232 216 -279 c 1,21,22
 161 -310 161 -310 99 -310 c 0,23,24
 63 -310 63 -310 25 -300 c 1,25,-1
 44 -242 l 1,26,27
 76 -255 76 -255 106 -255 c 0,28,29
 142 -255 142 -255 174 -238 c 1,30,31
 203 -217 203 -217 208 -189 c 0,32,33
 209 -183 209 -183 209 -177 c 0,34,35
 209 -156 209 -156 194 -140 c 0,36,37
 173 -121 173 -121 122 -120 c 1,38,-1
 122 -57 l 1,14,15
EndSplineSet
EndChar

StartChar: Scedilla
Encoding: 350 350 281
Width: 1042
GlyphClass: 1
Flags: W
LayerCount: 2
Fore
SplineSet
478 -17 m 1,0,1
 308 -4 308 -4 183 121 c 0,2,3
 72 232 72 232 50 379 c 1,4,-1
 135 410 l 1,5,6
 149 280 149 280 246 183 c 0,7,8
 359 70 359 70 518 70 c 0,9,10
 678 70 678 70 791 183 c 128,-1,11
 904 296 904 296 904 456 c 0,12,13
 904 615 904 615 791 728 c 0,14,15
 692 827 692 827 548 886 c 1,16,17
 377 943 377 943 278 1042 c 128,-1,18
 179 1141 179 1141 179 1282 c 0,19,20
 179 1420 179 1420 278 1519.5 c 128,-1,21
 377 1619 377 1619 518 1619 c 0,22,23
 658 1619 658 1619 758 1520 c 0,24,25
 813 1467 813 1467 834 1401 c 1,26,-1
 753 1369 l 1,27,28
 735 1418 735 1418 694 1459 c 0,29,30
 621 1531 621 1531 518 1531 c 256,31,32
 415 1531 415 1531 342 1458.5 c 128,-1,33
 269 1386 269 1386 269 1282 c 0,34,35
 269 1179 269 1179 342 1106 c 0,36,37
 410 1039 410 1039 530 983 c 1,38,39
 722 921 722 921 853 790 c 0,40,41
 992 652 992 652 992 456 c 0,42,43
 992 259 992 259 853 120 c 0,44,45
 724 -9 724 -9 547 -18 c 1,46,-1
 546 -29 l 1,47,-1
 545 -35 l 1,48,-1
 546 -35 l 1,49,-1
 543 -75 l 1,50,51
 557 -82 557 -82 571 -90 c 0,52,53
 631 -129 631 -129 639 -184 c 0,54,55
 640 -191 640 -191 640 -198 c 0,56,57
 640 -243 640 -243 597 -276 c 0,58,59
 546 -315 546 -315 467 -315 c 0,60,61
 433 -315 433 -315 403 -308 c 1,62,-1
 414 -253 l 1,63,64
 435 -260 435 -260 460 -260 c 0,65,66
 505 -260 505 -260 534 -237 c 0,67,68
 559 -218 559 -218 559 -191 c 2,69,-1
 559 -184 l 1,70,71
 554 -152 554 -152 519 -129 c 0,72,73
 484 -108 484 -108 442 -107 c 1,74,-1
 478 -17 l 1,0,1
EndSplineSet
EndChar

StartChar: scedilla
Encoding: 351 351 282
Width: 802
GlyphClass: 1
Flags: W
LayerCount: 2
Fore
SplineSet
362 -21 m 1,0,1
 269 -8 269 -8 200 62 c 0,2,3
 115 147 115 147 115 249 c 1,4,-1
 204 272 l 1,5,6
 204 184 204 184 263.5 125 c 128,-1,7
 323 66 323 66 406 66 c 256,8,9
 489 66 489 66 548.5 125 c 128,-1,10
 608 184 608 184 608 269 c 0,11,12
 608 352 608 352 549 411 c 0,13,14
 517 443 517 443 420 505 c 1,15,16
 305 567 305 567 261 611 c 0,17,18
 192 680 192 680 192 777 c 0,19,20
 192 875 192 875 261 944.5 c 128,-1,21
 330 1014 330 1014 427 1014 c 0,22,23
 525 1014 525 1014 589 950 c 0,24,25
 651 887 651 887 651 807 c 2,26,-1
 651 802 l 1,27,-1
 573 771 l 1,28,29
 563 847 563 847 525.5 885 c 128,-1,30
 488 923 488 923 427 923 c 0,31,32
 367 923 367 923 324 880.5 c 128,-1,33
 281 838 281 838 281 777 c 0,34,35
 281 717 281 717 324 674 c 0,36,37
 349 649 349 649 430 598 c 1,38,39
 558 528 558 528 612 474 c 0,40,41
 697 388 697 388 697 269 c 0,42,43
 697 147 697 147 612 62 c 0,44,45
 536 -15 536 -15 432 -23 c 1,46,-1
 431 -29 l 1,47,-1
 430 -35 l 1,48,-1
 431 -35 l 1,49,-1
 428 -75 l 1,50,51
 442 -82 442 -82 456 -90 c 0,52,53
 516 -129 516 -129 524 -184 c 0,54,55
 525 -191 525 -191 525 -198 c 0,56,57
 525 -243 525 -243 482 -276 c 0,58,59
 431 -315 431 -315 352 -315 c 0,60,61
 318 -315 318 -315 288 -308 c 1,62,-1
 299 -253 l 1,63,64
 320 -260 320 -260 345 -260 c 0,65,66
 390 -260 390 -260 419 -237 c 0,67,68
 444 -218 444 -218 444 -191 c 2,69,-1
 444 -184 l 1,70,71
 439 -152 439 -152 404 -129 c 0,72,73
 369 -108 369 -108 327 -107 c 1,74,-1
 362 -21 l 1,0,1
EndSplineSet
EndChar

StartChar: Tcommaaccent
Encoding: 354 354 285
Width: 1000
GlyphClass: 1
Flags: W
LayerCount: 2
Fore
SplineSet
464 0 m 1,0,-1
 455 0 l 1,1,-1
 455 1510 l 1,2,-1
 50 1510 l 1,3,-1
 50 1600 l 1,4,-1
 950 1600 l 1,5,-1
 950 1510 l 1,6,-1
 545 1510 l 1,7,-1
 545 0 l 1,8,-1
 528 0 l 1,9,-1
 525 -29 l 1,10,-1
 524 -35 l 1,11,-1
 525 -35 l 1,12,-1
 522 -75 l 1,13,14
 536 -82 536 -82 550 -90 c 0,15,16
 610 -129 610 -129 618 -184 c 0,17,18
 619 -191 619 -191 619 -198 c 0,19,20
 619 -243 619 -243 576 -276 c 0,21,22
 525 -315 525 -315 446 -315 c 0,23,24
 412 -315 412 -315 382 -308 c 1,25,-1
 393 -253 l 1,26,27
 414 -260 414 -260 439 -260 c 0,28,29
 484 -260 484 -260 513 -237 c 0,30,31
 538 -218 538 -218 538 -191 c 2,32,-1
 538 -184 l 1,33,34
 533 -152 533 -152 498 -129 c 0,35,36
 463 -108 463 -108 421 -107 c 1,37,-1
 464 0 l 1,0,-1
EndSplineSet
EndChar

StartChar: tcommaaccent
Encoding: 355 355 286
Width: 670
GlyphClass: 1
Flags: W
LayerCount: 2
Fore
SplineSet
299 0 m 1,0,-1
 290 0 l 1,1,-1
 290 892 l 1,2,-1
 90 892 l 1,3,-1
 90 982 l 1,4,-1
 290 982 l 1,5,-1
 290 1400 l 1,6,-1
 380 1400 l 1,7,-1
 380 982 l 1,8,-1
 580 982 l 1,9,-1
 580 892 l 1,10,-1
 380 892 l 1,11,-1
 380 0 l 1,12,-1
 363 0 l 1,13,-1
 360 -29 l 1,14,-1
 359 -35 l 1,15,-1
 360 -35 l 1,16,-1
 357 -75 l 1,17,18
 371 -82 371 -82 385 -90 c 0,19,20
 445 -129 445 -129 453 -184 c 0,21,22
 454 -191 454 -191 454 -198 c 0,23,24
 454 -243 454 -243 411 -276 c 0,25,26
 360 -315 360 -315 281 -315 c 0,27,28
 247 -315 247 -315 217 -308 c 1,29,-1
 228 -253 l 1,30,31
 249 -260 249 -260 274 -260 c 0,32,33
 319 -260 319 -260 348 -237 c 0,34,35
 373 -218 373 -218 373 -191 c 2,36,-1
 373 -184 l 1,37,38
 368 -152 368 -152 333 -129 c 0,39,40
 298 -108 298 -108 256 -107 c 1,41,-1
 299 0 l 1,0,-1
EndSplineSet
EndChar

StartChar: tcaron
Encoding: 357 357 288
Width: 638
GlyphClass: 1
Flags: W
LayerCount: 2
Fore
SplineSet
236 982 m 1,0,-1
 236 1399 l 1,1,-1
 326 1399 l 1,2,-1
 326 982 l 1,3,-1
 526 982 l 1,4,-1
 526 891 l 1,5,-1
 326 891 l 1,6,-1
 326 0 l 1,7,-1
 236 0 l 1,8,-1
 236 891 l 1,9,-1
 36 891 l 1,10,-1
 36 982 l 1,11,-1
 236 982 l 1,0,-1
525 1402 m 1,12,13
 502 1406 502 1406 485 1424 c 0,14,15
 458 1450 458 1450 458 1489 c 0,16,17
 458 1526 458 1526 484.5 1551.5 c 128,-1,18
 511 1577 511 1577 549 1577 c 0,19,20
 585 1577 585 1577 611.5 1551.5 c 128,-1,21
 638 1526 638 1526 638 1489 c 0,22,23
 638 1467 638 1467 631 1449 c 2,24,-1
 533 1251 l 1,25,-1
 468 1251 l 1,26,-1
 525 1402 l 1,12,13
EndSplineSet
EndChar

StartChar: Tbar
Encoding: 358 358 289
Width: 1000
GlyphClass: 1
Flags: W
LayerCount: 2
Fore
SplineSet
455 845 m 1,0,-1
 455 1510 l 1,1,-1
 50 1510 l 1,2,-1
 50 1600 l 1,3,-1
 950 1600 l 1,4,-1
 950 1510 l 1,5,-1
 545 1510 l 1,6,-1
 545 845 l 1,7,-1
 800 845 l 1,8,-1
 800 755 l 1,9,-1
 545 755 l 1,10,-1
 545 0 l 1,11,-1
 455 0 l 1,12,-1
 455 755 l 1,13,-1
 200 755 l 1,14,-1
 200 845 l 1,15,-1
 455 845 l 1,0,-1
EndSplineSet
EndChar

StartChar: tbar
Encoding: 359 359 290
Width: 670
GlyphClass: 1
Flags: W
LayerCount: 2
Fore
SplineSet
90 605 m 1,0,-1
 290 605 l 1,1,-1
 290 892 l 1,2,-1
 90 892 l 1,3,-1
 90 982 l 1,4,-1
 290 982 l 1,5,-1
 290 1400 l 1,6,-1
 380 1400 l 1,7,-1
 380 982 l 1,8,-1
 580 982 l 1,9,-1
 580 892 l 1,10,-1
 380 892 l 1,11,-1
 380 605 l 1,12,-1
 580 605 l 1,13,-1
 580 515 l 1,14,-1
 380 515 l 1,15,-1
 380 0 l 1,16,-1
 290 0 l 1,17,-1
 290 515 l 1,18,-1
 90 515 l 1,19,-1
 90 605 l 1,0,-1
EndSplineSet
EndChar

StartChar: Uogonek
Encoding: 370 370 301
Width: 1345
GlyphClass: 1
Flags: W
LayerCount: 2
Fore
SplineSet
854 17 m 1,0,1
 770 -14 770 -14 673 -14 c 0,2,3
 456 -14 456 -14 303 139 c 128,-1,4
 150 292 150 292 150 508 c 2,5,-1
 150 1600 l 1,6,-1
 241 1600 l 1,7,-1
 241 508 l 2,8,9
 241 330 241 330 367.5 203.5 c 128,-1,10
 494 77 494 77 673 77 c 256,11,12
 852 77 852 77 978 203.5 c 128,-1,13
 1104 330 1104 330 1104 508 c 2,14,-1
 1104 1600 l 1,15,-1
 1195 1600 l 1,16,-1
 1195 450 l 1,17,18
 1170 267 1170 267 1042 139 c 0,19,20
 1001 98 1001 98 956 69 c 1,21,22
 867 -38 867 -38 857 -103 c 0,23,24
 855 -121 855 -121 855 -137 c 0,25,26
 855 -185 855 -185 877 -211 c 0,27,28
 907 -247 907 -247 957 -247 c 0,29,30
 987 -247 987 -247 1015 -233 c 1,31,-1
 1037 -283 l 1,32,33
 981 -306 981 -306 926 -306 c 0,34,35
 853 -306 853 -306 809 -257 c 0,36,37
 774 -218 774 -218 774 -161 c 0,38,39
 774 -147 774 -147 776 -132 c 0,40,41
 785 -67 785 -67 854 17 c 1,0,1
EndSplineSet
EndChar

StartChar: uogonek
Encoding: 371 371 302
Width: 1099
GlyphClass: 1
Flags: W
LayerCount: 2
Fore
SplineSet
733 22 m 1,0,1
 654 -14 654 -14 555 -14 c 0,2,3
 371 -14 371 -14 262 95 c 128,-1,4
 153 204 153 204 150 370 c 2,5,-1
 150 982 l 1,6,-1
 240 982 l 1,7,-1
 240 378 l 2,8,9
 240 253 240 253 331 165 c 0,10,11
 421 76 421 76 554 76 c 0,12,13
 678 76 678 76 768.5 164.5 c 128,-1,14
 859 253 859 253 859 378 c 2,15,-1
 859 982 l 1,16,-1
 949 982 l 1,17,-1
 949 370 l 2,18,19
 946 204 946 204 837 95 c 0,20,21
 830 88 830 88 823 82 c 0,22,23
 759 -38 759 -38 749 -102 c 0,24,25
 747 -120 747 -120 747 -136 c 0,26,27
 747 -184 747 -184 769 -210 c 0,28,29
 799 -246 799 -246 849 -246 c 0,30,31
 879 -246 879 -246 907 -232 c 1,32,-1
 929 -282 l 1,33,34
 873 -305 873 -305 818 -305 c 0,35,36
 745 -305 745 -305 701 -256 c 0,37,38
 666 -217 666 -217 666 -160 c 0,39,40
 666 -146 666 -146 668 -131 c 0,41,42
 677 -68 677 -68 733 22 c 1,0,1
EndSplineSet
EndChar

StartChar: longs
Encoding: 383 383 314
Width: 433
GlyphClass: 1
Flags: W
LayerCount: 2
Fore
SplineSet
215 0 m 1,0,-1
 124 0 l 1,1,-1
 124 1248 l 1,2,3
 131 1359 131 1359 209 1439 c 1,4,5
 291 1515 291 1515 398 1515 c 0,6,7
 454 1515 454 1515 517 1493 c 1,8,-1
 488 1413 l 1,9,10
 446 1431 446 1431 407 1431 c 0,11,12
 337 1431 337 1431 273 1375 c 1,13,14
 218 1319 218 1319 215 1241 c 2,15,-1
 215 0 l 1,0,-1
EndSplineSet
EndChar

StartChar: florin
Encoding: 402 402 315
Width: 447
GlyphClass: 1
Flags: W
LayerCount: 2
Fore
SplineSet
229 0 m 1,0,-1
 228 0 l 1,1,-1
 228 -79 l 1,2,3
 216 -363 216 -363 -62 -363 c 1,4,-1
 -62 -280 l 1,5,6
 127 -280 127 -280 138 -82 c 1,7,-1
 138 891 l 1,8,-1
 39 891 l 1,9,-1
 39 982 l 1,10,-1
 138 982 l 1,11,-1
 138 1248 l 1,12,13
 145 1359 145 1359 223 1439 c 1,14,15
 306 1515 306 1515 412 1515 c 0,16,17
 469 1515 469 1515 531 1493 c 1,18,-1
 503 1413 l 1,19,20
 461 1431 461 1431 421 1431 c 0,21,22
 351 1431 351 1431 288 1375 c 1,23,24
 232 1319 232 1319 229 1241 c 2,25,-1
 229 982 l 1,26,-1
 429 982 l 1,27,-1
 429 891 l 1,28,-1
 229 891 l 1,29,-1
 229 0 l 1,0,-1
EndSplineSet
EndChar

StartChar: Aringacute
Encoding: 506 506 316
Width: 1263
GlyphClass: 1
Flags: W
LayerCount: 2
Fore
SplineSet
887 714 m 1,0,-1
 633 1385 l 1,1,-1
 377 714 l 1,2,-1
 887 714 l 1,0,-1
630 1690 m 0,3,4
 605 1690 605 1690 588.5 1673 c 128,-1,5
 572 1656 572 1656 572 1631 c 0,6,7
 572 1609 572 1609 588.5 1592 c 128,-1,8
 605 1575 605 1575 630 1575 c 0,9,10
 653 1575 653 1575 670 1592 c 128,-1,11
 687 1609 687 1609 687 1631 c 0,12,13
 687 1656 687 1656 670 1673 c 128,-1,14
 653 1690 653 1690 630 1690 c 0,3,4
603 1753 m 1,15,-1
 711 1904 l 1,16,-1
 877 1904 l 1,17,-1
 681 1743 l 1,18,19
 701 1734 701 1734 718 1719 c 0,20,21
 753 1682 753 1682 753 1631 c 0,22,23
 753 1582 753 1582 718 1547 c 0,24,25
 699 1528 699 1528 679 1521 c 1,26,-1
 1259 0 l 1,27,-1
 1164 0 l 1,28,-1
 920 624 l 1,29,-1
 344 624 l 1,30,-1
 95 0 l 1,31,-1
 -1 0 l 1,32,-1
 585 1518 l 1,33,34
 562 1527 562 1527 543 1547 c 0,35,36
 507 1582 507 1582 507 1631 c 0,37,38
 507 1682 507 1682 543 1719 c 0,39,40
 569 1745 569 1745 603 1753 c 1,15,-1
EndSplineSet
EndChar

StartChar: aringacute
Encoding: 507 507 317
Width: 1270
GlyphClass: 1
Flags: W
LayerCount: 2
Fore
SplineSet
1079 432 m 1,0,-1
 1079 542 l 1,1,2
 1054 674 1054 674 954 774 c 0,3,4
 821 907 821 907 633 907 c 256,5,6
 445 907 445 907 312 785 c 128,-1,7
 179 663 179 663 179 486 c 0,8,9
 179 310 179 310 312 189 c 128,-1,10
 445 68 445 68 633 68 c 256,11,12
 821 68 821 68 954 201 c 0,13,14
 1054 301 1054 301 1079 432 c 1,0,-1
627 1174 m 0,15,16
 602 1174 602 1174 585 1157 c 128,-1,17
 568 1140 568 1140 568 1115 c 0,18,19
 568 1093 568 1093 585 1076 c 128,-1,20
 602 1059 602 1059 627 1059 c 0,21,22
 650 1059 650 1059 667 1076 c 128,-1,23
 684 1093 684 1093 684 1115 c 0,24,25
 684 1140 684 1140 667 1157 c 128,-1,26
 650 1174 650 1174 627 1174 c 0,15,16
676 1229 m 1,27,28
 696 1220 696 1220 714 1203 c 0,29,30
 749 1166 749 1166 749 1115 c 0,31,32
 749 1066 749 1066 714 1031 c 0,33,34
 694 1010 694 1010 669 1001 c 1,35,36
 874 990 874 990 1022 842 c 0,37,38
 1053 810 1053 810 1079 775 c 1,39,-1
 1079 914 l 1,40,-1
 1169 914 l 1,41,-1
 1169 0 l 1,42,-1
 1079 0 l 1,43,-1
 1079 200 l 1,44,45
 1053 165 1053 165 1022 133 c 0,46,47
 861 -28 861 -28 633 -28 c 0,48,49
 406 -28 406 -28 245 121.5 c 128,-1,50
 84 271 84 271 84 486 c 0,51,52
 84 704 84 704 237 844.5 c 128,-1,53
 390 985 390 985 588 1001 c 1,54,55
 561 1009 561 1009 540 1031 c 0,56,57
 504 1066 504 1066 504 1115 c 0,58,59
 504 1166 504 1166 540 1203 c 0,60,61
 564 1226 564 1226 595 1234 c 1,62,-1
 748 1405 l 1,63,-1
 915 1405 l 1,64,-1
 676 1229 l 1,27,28
EndSplineSet
EndChar

StartChar: circumflex
Encoding: 710 710 322
Width: 811
GlyphClass: 1
Flags: W
LayerCount: 2
Fore
SplineSet
454 1324 m 1,0,-1
 692 1090 l 1,1,-1
 588 1090 l 1,2,-1
 402 1233 l 1,3,-1
 226 1090 l 1,4,-1
 121 1090 l 1,5,-1
 350 1324 l 1,6,-1
 454 1324 l 1,0,-1
EndSplineSet
EndChar

StartChar: caron
Encoding: 711 711 323
Width: 811
GlyphClass: 1
Flags: W
LayerCount: 2
Fore
SplineSet
350 1090 m 1,0,-1
 121 1324 l 1,1,-1
 226 1324 l 1,2,-1
 402 1181 l 1,3,-1
 588 1324 l 1,4,-1
 692 1324 l 1,5,-1
 454 1090 l 1,6,-1
 350 1090 l 1,0,-1
EndSplineSet
EndChar

StartChar: uni02C9
Encoding: 713 713 324
Width: 890
GlyphClass: 1
Flags: W
LayerCount: 2
Fore
SplineSet
150 1227 m 1,0,-1
 740 1227 l 1,1,-1
 740 1157 l 1,2,-1
 150 1157 l 1,3,-1
 150 1227 l 1,0,-1
EndSplineSet
EndChar

StartChar: breve
Encoding: 728 728 325
Width: 880
GlyphClass: 1
Flags: W
LayerCount: 2
Fore
SplineSet
279 1338 m 1,0,1
 287 1285 287 1285 325 1247 c 0,2,3
 373 1199 373 1199 441 1199 c 0,4,5
 508 1199 508 1199 556 1247 c 0,6,7
 595 1285 595 1285 602 1338 c 1,8,-1
 675 1338 l 1,9,10
 667 1255 667 1255 607 1195 c 0,11,12
 539 1126 539 1126 441 1126 c 0,13,14
 342 1126 342 1126 274 1195 c 0,15,16
 209 1261 209 1261 205 1338 c 1,17,-1
 279 1338 l 1,0,1
EndSplineSet
EndChar

StartChar: dotaccent
Encoding: 729 729 326
Width: 403
GlyphClass: 1
Flags: W
LayerCount: 2
Fore
SplineSet
255.5 1281 m 128,-1,1
 278 1259 278 1259 278 1227 c 256,2,3
 278 1195 278 1195 255.5 1173 c 128,-1,4
 233 1151 233 1151 202 1151 c 0,5,6
 170 1151 170 1151 147.5 1173 c 128,-1,7
 125 1195 125 1195 125 1227 c 256,8,9
 125 1259 125 1259 147.5 1281 c 128,-1,10
 170 1303 170 1303 202 1303 c 0,11,0
 233 1303 233 1303 255.5 1281 c 128,-1,1
EndSplineSet
EndChar

StartChar: ring
Encoding: 730 730 327
Width: 762
GlyphClass: 1
Flags: W
LayerCount: 2
Fore
SplineSet
469 1326 m 128,-1,1
 505 1290 505 1290 505 1239 c 0,2,3
 505 1189 505 1189 469 1153 c 128,-1,4
 433 1117 433 1117 382 1117 c 256,5,6
 331 1117 331 1117 295 1153 c 128,-1,7
 259 1189 259 1189 259 1239 c 0,8,9
 259 1290 259 1290 295 1326 c 128,-1,10
 331 1362 331 1362 382 1362 c 256,11,0
 433 1362 433 1362 469 1326 c 128,-1,1
382 1297 m 0,12,13
 358 1297 358 1297 341 1280 c 128,-1,14
 324 1263 324 1263 324 1239 c 0,15,16
 324 1216 324 1216 341 1199 c 128,-1,17
 358 1182 358 1182 382 1182 c 0,18,19
 405 1182 405 1182 422 1199 c 128,-1,20
 439 1216 439 1216 439 1239 c 0,21,22
 439 1263 439 1263 422 1280 c 128,-1,23
 405 1297 405 1297 382 1297 c 0,12,13
EndSplineSet
EndChar

StartChar: ogonek
Encoding: 731 731 328
Width: 283
GlyphClass: 1
Flags: W
LayerCount: 2
Fore
SplineSet
93 -102 m 0,1,2
 91 -120 91 -120 91 -136 c 0,3,4
 91 -184 91 -184 113 -210 c 0,5,6
 143 -246 143 -246 193 -246 c 0,7,8
 223 -246 223 -246 251 -232 c 1,9,-1
 273 -282 l 1,10,11
 217 -305 217 -305 162 -305 c 0,12,13
 89 -305 89 -305 45 -256 c 0,14,15
 10 -217 10 -217 10 -160 c 0,16,17
 10 -146 10 -146 12 -131 c 0,18,19
 27 -27 27 -27 177 48 c 1,20,-1
 197 18 l 1,21,0
 104 -29 104 -29 93 -102 c 0,1,2
EndSplineSet
EndChar

StartChar: tilde
Encoding: 732 732 329
Width: 825
GlyphClass: 1
Flags: W
LayerCount: 2
Fore
SplineSet
407 1255 m 0,0,1
 482 1195 482 1195 531 1195 c 2,2,-1
 536 1195 l 2,3,4
 586 1198 586 1198 606 1279 c 1,5,-1
 675 1279 l 1,6,7
 654 1150 654 1150 576 1127 c 0,8,9
 555 1121 555 1121 534 1121 c 0,10,11
 477 1121 477 1121 419 1167 c 0,12,13
 344 1226 344 1226 295 1226 c 2,14,-1
 290 1226 l 2,15,16
 240 1223 240 1223 220 1142 c 1,17,-1
 150 1142 l 1,18,19
 172 1271 172 1271 250 1294 c 0,20,21
 271 1300 271 1300 292 1300 c 0,22,23
 349 1300 349 1300 407 1255 c 0,0,1
EndSplineSet
EndChar

StartChar: hungarumlaut
Encoding: 733 733 330
Width: 858
GlyphClass: 1
Flags: W
LayerCount: 2
Fore
SplineSet
479 1348 m 1,0,-1
 234 1161 l 1,1,-1
 150 1161 l 1,2,-1
 313 1348 l 1,3,-1
 479 1348 l 1,0,-1
708 1348 m 1,4,-1
 463 1161 l 1,5,-1
 379 1161 l 1,6,-1
 542 1348 l 1,7,-1
 708 1348 l 1,4,-1
EndSplineSet
EndChar

StartChar: tonos
Encoding: 900 900 331
Width: 437
GlyphClass: 1
Flags: W
LayerCount: 2
Fore
SplineSet
414 1600 m 1,0,-1
 169 1413 l 1,1,-1
 85 1413 l 1,2,-1
 248 1600 l 1,3,-1
 414 1600 l 1,0,-1
EndSplineSet
EndChar

StartChar: dieresistonos
Encoding: 901 901 332
Width: 804
GlyphClass: 1
Flags: W
LayerCount: 2
Fore
SplineSet
578 1600 m 1,0,-1
 377 1413 l 1,1,-1
 294 1413 l 1,2,-1
 411 1600 l 1,3,-1
 578 1600 l 1,0,-1
661 1518 m 128,-1,5
 680 1500 680 1500 680 1475 c 0,6,7
 680 1448 680 1448 661 1430 c 128,-1,8
 642 1412 642 1412 617 1412 c 0,9,10
 591 1412 591 1412 572.5 1430 c 128,-1,11
 554 1448 554 1448 554 1475 c 0,12,13
 554 1500 554 1500 572.5 1518 c 128,-1,14
 591 1536 591 1536 617 1536 c 0,15,4
 642 1536 642 1536 661 1518 c 128,-1,5
231 1518 m 128,-1,17
 250 1500 250 1500 250 1475 c 0,18,19
 250 1448 250 1448 231 1430 c 128,-1,20
 212 1412 212 1412 187 1412 c 0,21,22
 161 1412 161 1412 142.5 1430 c 128,-1,23
 124 1448 124 1448 124 1475 c 0,24,25
 124 1500 124 1500 142.5 1518 c 128,-1,26
 161 1536 161 1536 187 1536 c 0,27,16
 212 1536 212 1536 231 1518 c 128,-1,17
EndSplineSet
EndChar

StartChar: anoteleia
Encoding: 903 903 334
Width: 277
GlyphClass: 1
Flags: W
LayerCount: 2
Fore
SplineSet
192 1111.5 m 128,-1,1
 215 1089 215 1089 215 1058 c 0,2,3
 215 1026 215 1026 192 1004 c 128,-1,4
 169 982 169 982 139 982 c 0,5,6
 107 982 107 982 84.5 1004 c 128,-1,7
 62 1026 62 1026 62 1058 c 0,8,9
 62 1089 62 1089 84.5 1111.5 c 128,-1,10
 107 1134 107 1134 139 1134 c 0,11,0
 169 1134 169 1134 192 1111.5 c 128,-1,1
EndSplineSet
EndChar

StartChar: iotadieresistonos
Encoding: 912 912 341
Width: 418
GlyphClass: 1
Flags: W
LayerCount: 2
Fore
SplineSet
253 982 m 1,0,-1
 253 0 l 1,1,-1
 164 0 l 1,2,-1
 164 982 l 1,3,-1
 253 982 l 1,0,-1
385 1377 m 1,4,-1
 184 1190 l 1,5,-1
 101 1190 l 1,6,-1
 218 1377 l 1,7,-1
 385 1377 l 1,4,-1
468 1295 m 128,-1,9
 487 1277 487 1277 487 1252 c 0,10,11
 487 1225 487 1225 468 1207 c 128,-1,12
 449 1189 449 1189 424 1189 c 0,13,14
 398 1189 398 1189 379.5 1207 c 128,-1,15
 361 1225 361 1225 361 1252 c 0,16,17
 361 1277 361 1277 379.5 1295 c 128,-1,18
 398 1313 398 1313 424 1313 c 0,19,8
 449 1313 449 1313 468 1295 c 128,-1,9
38 1295 m 128,-1,21
 57 1277 57 1277 57 1252 c 0,22,23
 57 1225 57 1225 38 1207 c 128,-1,24
 19 1189 19 1189 -6 1189 c 0,25,26
 -32 1189 -32 1189 -50.5 1207 c 128,-1,27
 -69 1225 -69 1225 -69 1252 c 0,28,29
 -69 1277 -69 1277 -50.5 1295 c 128,-1,30
 -32 1313 -32 1313 -6 1313 c 0,31,20
 19 1313 19 1313 38 1295 c 128,-1,21
EndSplineSet
EndChar

StartChar: Gamma
Encoding: 915 915 344
Width: 852
GlyphClass: 1
Flags: W
LayerCount: 2
Fore
SplineSet
827 1600 m 1,0,-1
 827 1509 l 1,1,-1
 218 1509 l 1,2,-1
 218 0 l 1,3,-1
 127 0 l 1,4,-1
 127 1600 l 1,5,-1
 827 1600 l 1,0,-1
EndSplineSet
EndChar

StartChar: uni0394
Encoding: 916 916 345
Width: 1248
GlyphClass: 1
Flags: W
LayerCount: 2
Fore
SplineSet
34 1 m 1,0,-1
 -34 1 l 1,1,-1
 549 1600 l 1,2,-1
 658 1600 l 1,3,-1
 1248 0 l 1,4,-1
 34 0 l 1,5,-1
 34 1 l 1,0,-1
1119 90 m 1,6,-1
 603 1487 l 1,7,-1
 94 90 l 1,8,-1
 1119 90 l 1,6,-1
EndSplineSet
EndChar

StartChar: Theta
Encoding: 920 920 349
Width: 1782
GlyphClass: 1
Flags: W
LayerCount: 2
Fore
SplineSet
1471.5 1382 m 128,-1,1
 1712 1142 1712 1142 1712 802 c 0,2,3
 1712 461 1712 461 1471.5 221 c 128,-1,4
 1231 -19 1231 -19 890 -19 c 0,5,6
 551 -19 551 -19 310.5 221 c 128,-1,7
 70 461 70 461 70 802 c 0,8,9
 70 1142 70 1142 310.5 1382 c 128,-1,10
 551 1622 551 1622 890 1622 c 0,11,0
 1231 1622 1231 1622 1471.5 1382 c 128,-1,1
890 1531 m 0,12,13
 589 1531 589 1531 375.5 1317 c 128,-1,14
 162 1103 162 1103 162 802 c 0,15,16
 162 500 162 500 375.5 286 c 128,-1,17
 589 72 589 72 890 72 c 0,18,19
 1192 72 1192 72 1406 286 c 128,-1,20
 1620 500 1620 500 1620 802 c 0,21,22
 1620 1103 1620 1103 1406 1317 c 128,-1,23
 1192 1531 1192 1531 890 1531 c 0,12,13
439 847 m 1,24,-1
 1344 847 l 1,25,-1
 1344 757 l 1,26,-1
 439 757 l 1,27,-1
 439 847 l 1,24,-1
EndSplineSet
EndChar

StartChar: Iota
Encoding: 921 921 350
Width: 367
GlyphClass: 1
Flags: W
LayerCount: 2
Fore
SplineSet
229 1600 m 1,0,-1
 229 0 l 1,1,-1
 138 0 l 1,2,-1
 138 1600 l 1,3,-1
 229 1600 l 1,0,-1
EndSplineSet
EndChar

StartChar: Lambda
Encoding: 923 923 352
Width: 1282
GlyphClass: 1
Flags: W
LayerCount: 2
Fore
SplineSet
692 1600 m 1,0,-1
 1282 0 l 1,1,-1
 1187 0 l 1,2,-1
 637 1487 l 1,3,-1
 95 1 l 1,4,-1
 0 1 l 1,5,-1
 583 1600 l 1,6,-1
 692 1600 l 1,0,-1
EndSplineSet
EndChar

StartChar: Xi
Encoding: 926 926 355
Width: 1245
GlyphClass: 1
Flags: W
LayerCount: 2
Fore
SplineSet
169 847 m 1,0,-1
 1074 847 l 1,1,-1
 1074 757 l 1,2,-1
 169 757 l 1,3,-1
 169 847 l 1,0,-1
57 1601 m 1,4,-1
 1189 1601 l 1,5,-1
 1189 1510 l 1,6,-1
 57 1510 l 1,7,-1
 57 1601 l 1,4,-1
57 91 m 1,8,-1
 1189 91 l 1,9,-1
 1189 1 l 1,10,-1
 57 1 l 1,11,-1
 57 91 l 1,8,-1
EndSplineSet
EndChar

StartChar: Pi
Encoding: 928 928 357
Width: 1213
GlyphClass: 1
Flags: W
LayerCount: 2
Fore
SplineSet
197 1509 m 1,0,-1
 197 0 l 1,1,-1
 106 0 l 1,2,-1
 106 1600 l 1,3,-1
 1106 1600 l 1,4,-1
 1106 0 l 1,5,-1
 1016 0 l 1,6,-1
 1016 1509 l 1,7,-1
 197 1509 l 1,0,-1
EndSplineSet
EndChar

StartChar: Sigma
Encoding: 931 931 359
Width: 1201
GlyphClass: 1
Flags: W
LayerCount: 2
Fore
SplineSet
27 1599 m 1,0,-1
 1174 1599 l 1,1,-1
 1174 1508 l 1,2,-1
 124 1508 l 1,3,-1
 709 799 l 1,4,-1
 124 90 l 1,5,-1
 1174 90 l 1,6,-1
 1174 0 l 1,7,-1
 27 0 l 1,8,-1
 27 131 l 1,9,-1
 593 799 l 1,10,-1
 27 1467 l 1,11,-1
 27 1599 l 1,0,-1
EndSplineSet
EndChar

StartChar: Phi
Encoding: 934 934 362
Width: 1786
GlyphClass: 1
Flags: W
LayerCount: 2
Fore
SplineSet
847 334 m 1,0,-1
 847 1239 l 1,1,2
 541 1231 541 1231 364 1108 c 0,3,4
 175 974 175 974 175 786 c 256,5,6
 175 598 175 598 364 466 c 0,7,8
 541 342 541 342 847 334 c 1,0,-1
938 239 m 1,9,-1
 938 4 l 1,10,-1
 847 4 l 1,11,-1
 847 239 l 1,12,13
 501 248 501 248 297 399 c 0,14,15
 79 560 79 560 79 787 c 0,16,17
 79 1015 79 1015 297 1175 c 0,18,19
 501 1325 501 1325 847 1334 c 1,20,-1
 847 1598 l 1,21,-1
 938 1598 l 1,22,-1
 938 1334 l 1,23,24
 1285 1325 1285 1325 1490 1175 c 0,25,26
 1707 1015 1707 1015 1707 787 c 0,27,28
 1707 560 1707 560 1490 399 c 0,29,30
 1285 248 1285 248 938 239 c 1,9,-1
938 1239 m 1,31,-1
 938 334 l 1,32,33
 1246 342 1246 342 1422 466 c 0,34,35
 1611 598 1611 598 1611 786 c 256,36,37
 1611 974 1611 974 1422 1108 c 0,38,39
 1246 1231 1246 1231 938 1239 c 1,31,-1
EndSplineSet
EndChar

StartChar: Psi
Encoding: 936 936 364
Width: 1826
GlyphClass: 1
Flags: W
LayerCount: 2
Fore
SplineSet
955 352 m 1,0,-1
 955 4 l 1,1,-1
 865 4 l 1,2,-1
 865 352 l 1,3,4
 518 361 518 361 315 512 c 1,5,6
 108 673 108 673 102 904 c 1,7,-1
 102 1598 l 1,8,-1
 193 1598 l 1,9,-1
 193 899 l 2,10,11
 193 712 193 712 381 579 c 0,12,13
 558 455 558 455 865 447 c 1,14,-1
 865 1598 l 1,15,-1
 955 1598 l 1,16,-1
 955 447 l 1,17,18
 1263 455 1263 455 1439 579 c 0,19,20
 1628 712 1628 712 1628 904 c 1,21,-1
 1634 904 l 1,22,-1
 1634 1598 l 1,23,-1
 1725 1598 l 1,24,-1
 1725 898 l 2,25,26
 1723 672 1723 672 1507 512 c 0,27,28
 1303 361 1303 361 955 352 c 1,0,-1
EndSplineSet
EndChar

StartChar: alpha
Encoding: 945 945 373
Width: 1315
GlyphClass: 1
Flags: W
LayerCount: 2
Fore
SplineSet
1109 234 m 1,0,1
 1075 181 1075 181 1029 133 c 0,2,3
 868 -28 868 -28 640 -28 c 0,4,5
 413 -28 413 -28 252 133 c 128,-1,6
 91 294 91 294 91 520 c 0,7,8
 91 749 91 749 252 909.5 c 128,-1,9
 413 1070 413 1070 640 1070 c 0,10,11
 868 1070 868 1070 1029 910 c 0,12,13
 1079 859 1079 859 1109 756 c 1,14,-1
 1181 982 l 1,15,-1
 1270 982 l 1,16,-1
 1157 491 l 1,17,-1
 1270 0 l 1,18,-1
 1181 0 l 1,19,-1
 1109 234 l 1,0,1
961 842 m 0,21,22
 828 975 828 975 640 975 c 256,23,24
 452 975 452 975 319 841.5 c 128,-1,25
 186 708 186 708 186 520 c 256,26,27
 186 332 186 332 319 200 c 128,-1,28
 452 68 452 68 640 68 c 256,29,30
 828 68 828 68 961 200 c 0,31,32
 1063 302 1063 302 1066 495 c 0,33,20
 1066 733 1066 733 961 842 c 0,21,22
EndSplineSet
EndChar

StartChar: beta
Encoding: 946 946 374
Width: 1031
GlyphClass: 1
Flags: W
LayerCount: 2
Fore
SplineSet
463 1621 m 0,1,2
 606 1621 606 1621 705.5 1521 c 128,-1,3
 805 1421 805 1421 805 1282 c 0,4,5
 805 1139 805 1139 729 1057.5 c 128,-1,6
 653 976 653 976 586 949 c 1,7,8
 731 902 731 902 826 800 c 0,9,10
 963 653 963 653 963 456 c 0,11,12
 963 258 963 258 823.5 118 c 128,-1,13
 684 -22 684 -22 486 -22 c 0,14,15
 385 -22 385 -22 299 15 c 1,16,-1
 328 106 l 1,17,18
 401 73 401 73 486 73 c 0,19,20
 645 73 645 73 757 184.5 c 128,-1,21
 869 296 869 296 869 456 c 0,22,23
 869 614 869 614 760 733 c 128,-1,24
 651 852 651 852 432 893 c 1,25,-1
 358 895 l 1,26,-1
 358 984 l 1,27,28
 451 985 451 985 510 1008.5 c 128,-1,29
 569 1032 569 1032 639 1106 c 128,-1,30
 709 1180 709 1180 709 1282 c 0,31,32
 709 1385 709 1385 637 1456 c 128,-1,33
 565 1527 565 1527 463 1527 c 0,34,35
 362 1527 362 1527 294.5 1452 c 128,-1,36
 227 1377 227 1377 227 1249 c 2,37,-1
 227 -371 l 1,38,-1
 136 -371 l 1,39,-1
 136 1260 l 2,40,41
 136 1422 136 1422 229 1521.5 c 128,-1,0
 322 1621 322 1621 463 1621 c 0,1,2
EndSplineSet
EndChar

StartChar: gamma
Encoding: 947 947 375
Width: 1011
GlyphClass: 1
Flags: W
LayerCount: 2
Fore
SplineSet
457 0 m 1,0,-1
 45 982 l 1,1,-1
 150 982 l 1,2,-1
 503 141 l 1,3,-1
 861 982 l 1,4,-1
 966 982 l 1,5,-1
 552 5 l 1,6,-1
 552 -375 l 1,7,-1
 457 -375 l 1,8,-1
 457 0 l 1,0,-1
EndSplineSet
EndChar

StartChar: delta
Encoding: 948 948 376
Width: 1260
GlyphClass: 1
Flags: W
LayerCount: 2
Fore
SplineSet
176 520 m 256,1,2
 176 332 176 332 309 200 c 128,-1,3
 442 68 442 68 630 68 c 256,4,5
 818 68 818 68 951 200 c 128,-1,6
 1084 332 1084 332 1084 520 c 256,7,8
 1084 708 1084 708 951 841.5 c 128,-1,9
 818 975 818 975 630 975 c 256,10,11
 442 975 442 975 309 841.5 c 128,-1,0
 176 708 176 708 176 520 c 256,1,2
1042.5 886 m 128,-1,13
 1179 749 1179 749 1179 520 c 0,14,15
 1179 294 1179 294 1018.5 133 c 128,-1,16
 858 -28 858 -28 630 -28 c 0,17,18
 403 -28 403 -28 242 133 c 128,-1,19
 81 294 81 294 81 520 c 0,20,21
 81 749 81 749 243 910 c 0,22,23
 384 1051 384 1051 644 1079 c 1,24,-1
 218 1594 l 1,25,-1
 930 1594 l 1,26,-1
 930 1504 l 1,27,-1
 431 1504 l 1,28,29
 714 1117 714 1117 810 1070 c 128,-1,12
 906 1023 906 1023 1042.5 886 c 128,-1,13
EndSplineSet
EndChar

StartChar: epsilon
Encoding: 949 949 377
Width: 853
GlyphClass: 1
Flags: W
LayerCount: 2
Fore
SplineSet
251 401 m 128,-1,1
 186 354 186 354 186 257 c 0,2,3
 186 182 186 182 259.5 128.5 c 128,-1,4
 333 75 333 75 453 75 c 1,5,6
 628 86 628 86 751 261 c 1,7,-1
 750 114 l 1,8,9
 617 -21 617 -21 453 -21 c 0,10,11
 305 -21 305 -21 203.5 55.5 c 128,-1,12
 102 132 102 132 102 269 c 0,13,14
 102 404 102 404 262 501 c 1,15,16
 102 598 102 598 102 744 c 0,17,18
 102 881 102 881 203.5 939.5 c 128,-1,19
 305 998 305 998 453 998 c 0,20,21
 613 998 613 998 750 871 c 1,22,-1
 750 749 l 1,23,24
 629 903 629 903 453 903 c 0,25,26
 333 903 333 903 259.5 866 c 128,-1,27
 186 829 186 829 186 755 c 0,28,29
 186 646 186 646 251 599.5 c 128,-1,30
 316 553 316 553 353 544 c 1,31,-1
 600 544 l 1,32,-1
 600 455 l 1,33,-1
 353 455 l 1,34,0
 316 448 316 448 251 401 c 128,-1,1
EndSplineSet
EndChar

StartChar: zeta
Encoding: 950 950 378
Width: 894
GlyphClass: 1
Flags: W
LayerCount: 2
Fore
SplineSet
916 1570 m 1,0,1
 301 953 301 953 215 519 c 0,2,3
 201 450 201 450 201 392 c 0,4,5
 201 82 201 82 587 70 c 0,6,7
 867 61 867 61 867 -146 c 1,8,9
 833 -327 833 -327 663 -333 c 1,10,-1
 663 -239 l 1,11,12
 769 -239 769 -239 776 -134 c 1,13,-1
 776 -128 l 2,14,15
 776 -22 776 -22 594 -22 c 1,16,17
 113 -11 113 -11 113 377 c 0,18,19
 113 423 113 423 121 475 c 0,20,21
 184 959 184 959 761 1509 c 1,22,-1
 155 1509 l 1,23,-1
 155 1600 l 1,24,-1
 916 1600 l 1,25,-1
 916 1570 l 1,0,1
EndSplineSet
EndChar

StartChar: eta
Encoding: 951 951 379
Width: 952
GlyphClass: 1
Flags: W
LayerCount: 2
Fore
SplineSet
193 762 m 1,0,-1
 193 0 l 1,1,-1
 102 0 l 1,2,-1
 102 982 l 1,3,-1
 193 982 l 1,4,-1
 193 919 l 1,5,6
 315 1041 315 1041 478 1041 c 0,7,8
 652 1041 652 1041 761 931.5 c 128,-1,9
 870 822 870 822 873 657 c 2,10,-1
 873 -375 l 1,11,-1
 783 -375 l 1,12,-1
 783 648 l 2,13,14
 783 774 783 774 692.5 862 c 128,-1,15
 602 950 602 950 478 950 c 256,16,17
 354 950 354 950 264 863 c 0,18,19
 215 815 215 815 193 762 c 1,0,-1
EndSplineSet
EndChar

StartChar: theta
Encoding: 952 952 380
Width: 1279
GlyphClass: 1
Flags: W
LayerCount: 2
Fore
SplineSet
1094 786 m 256,0,1
 1094 1126 1094 1126 961 1315 c 128,-1,2
 828 1504 828 1504 640 1504 c 256,3,4
 452 1504 452 1504 319 1315 c 128,-1,5
 186 1126 186 1126 186 786 c 256,6,7
 186 446 186 446 319 257 c 128,-1,8
 452 68 452 68 640 68 c 256,9,10
 828 68 828 68 961 257 c 128,-1,11
 1094 446 1094 446 1094 786 c 256,0,1
1189 786 m 0,12,13
 1189 407 1189 407 1028.5 189.5 c 128,-1,14
 868 -28 868 -28 641 -28 c 0,15,16
 413 -28 413 -28 252 189.5 c 128,-1,17
 91 407 91 407 91 786 c 0,18,19
 91 1164 91 1164 252 1382 c 128,-1,20
 413 1600 413 1600 641 1600 c 0,21,22
 868 1600 868 1600 1028.5 1382 c 128,-1,23
 1189 1164 1189 1164 1189 786 c 0,12,13
333 831 m 1,24,-1
 948 831 l 1,25,-1
 948 741 l 1,26,-1
 333 741 l 1,27,-1
 333 831 l 1,24,-1
EndSplineSet
EndChar

StartChar: iota
Encoding: 953 953 381
Width: 417
GlyphClass: 1
Flags: W
LayerCount: 2
Fore
SplineSet
253 982 m 1,0,-1
 253 0 l 1,1,-1
 164 0 l 1,2,-1
 164 982 l 1,3,-1
 253 982 l 1,0,-1
EndSplineSet
EndChar

StartChar: kappa
Encoding: 954 954 382
Width: 835
GlyphClass: 1
Flags: W
LayerCount: 2
Fore
SplineSet
705 982 m 1,0,-1
 463 682 l 1,1,-1
 848 0 l 1,2,-1
 738 0 l 1,3,-1
 404 610 l 1,4,-1
 204 388 l 1,5,-1
 204 0 l 1,6,-1
 113 0 l 1,7,-1
 113 982 l 1,8,-1
 204 982 l 1,9,-1
 204 532 l 1,10,-1
 589 982 l 1,11,-1
 705 982 l 1,0,-1
EndSplineSet
EndChar

StartChar: lambda
Encoding: 955 955 383
Width: 961
GlyphClass: 1
Flags: W
LayerCount: 2
Fore
SplineSet
532 798 m 1,0,-1
 904 0 l 1,1,-1
 804 0 l 1,2,-1
 480 686 l 1,3,-1
 158 0 l 1,4,-1
 57 0 l 1,5,-1
 430 800 l 1,6,-1
 149 1401 l 1,7,-1
 249 1401 l 1,8,-1
 531 798 l 1,9,-1
 532 798 l 1,0,-1
EndSplineSet
EndChar

StartChar: uni03BC
Encoding: 956 956 384
Width: 994
GlyphClass: 1
Flags: W
LayerCount: 2
Fore
SplineSet
781 111 m 1,0,1
 777 106 777 106 771 99 c 0,2,3
 661 -9 661 -9 488 -9 c 0,4,5
 328 -9 328 -9 215 101 c 1,6,-1
 215 -375 l 1,7,-1
 124 -375 l 1,8,-1
 124 982 l 1,9,-1
 215 982 l 1,10,-1
 215 251 l 1,11,12
 234 208 234 208 274 167 c 0,13,14
 364 81 364 81 488 81 c 256,15,16
 612 81 612 81 703 170 c 0,17,18
 761 227 761 227 781 300 c 1,19,-1
 781 982 l 1,20,-1
 870 982 l 1,21,-1
 870 0 l 1,22,-1
 781 0 l 1,23,-1
 781 111 l 1,0,1
EndSplineSet
EndChar

StartChar: nu
Encoding: 957 957 385
Width: 944
GlyphClass: 1
Flags: W
LayerCount: 2
Fore
SplineSet
154 982 m 1,0,-1
 470 232 l 1,1,-1
 789 982 l 1,2,-1
 894 982 l 1,3,-1
 470 -34 l 1,4,-1
 49 982 l 1,5,-1
 154 982 l 1,0,-1
EndSplineSet
EndChar

StartChar: xi
Encoding: 958 958 386
Width: 1011
GlyphClass: 1
Flags: W
LayerCount: 2
Fore
SplineSet
230.5 135 m 128,-1,1
 91 258 91 258 91 456 c 0,2,3
 91 653 91 653 228 800 c 0,4,5
 323 902 323 902 468 949 c 1,6,7
 401 976 401 976 325 1046.5 c 128,-1,8
 249 1117 249 1117 249 1259 c 1,9,10
 268 1598 268 1598 685 1599 c 2,11,-1
 931 1600 l 1,12,-1
 931 1517 l 1,13,-1
 718 1517 l 2,14,15
 357 1517 357 1517 357 1267 c 2,16,-1
 357 1259 l 2,17,18
 357 1157 357 1157 421 1094.5 c 128,-1,19
 485 1032 485 1032 604 985 c 1,20,-1
 923 984 l 1,21,-1
 923 895 l 1,22,-1
 622 897 l 1,23,24
 403 852 403 852 294 733 c 128,-1,25
 185 614 185 614 185 456 c 0,26,27
 185 296 185 296 297 201.5 c 128,-1,28
 409 107 409 107 715.5 72.5 c 128,-1,29
 1022 38 1022 38 1022 -180 c 2,30,-1
 1022 -203 l 1,31,32
 988 -338 988 -338 810 -355 c 1,33,-1
 810 -250 l 1,34,35
 925 -250 925 -250 932 -168 c 1,36,-1
 932 -162 l 2,37,38
 932 -33 932 -33 651 -10.5 c 128,-1,0
 370 12 370 12 230.5 135 c 128,-1,1
EndSplineSet
EndChar

StartChar: pi
Encoding: 960 960 388
Width: 1262
GlyphClass: 1
Flags: W
LayerCount: 2
Fore
SplineSet
449 891 m 1,0,-1
 449 0 l 1,1,-1
 360 0 l 1,2,-1
 360 891 l 1,3,-1
 68 891 l 1,4,-1
 68 982 l 1,5,-1
 1194 982 l 1,6,-1
 1194 891 l 1,7,-1
 902 891 l 1,8,-1
 902 0 l 1,9,-1
 813 0 l 1,10,-1
 813 891 l 1,11,-1
 449 891 l 1,0,-1
EndSplineSet
EndChar

StartChar: rho
Encoding: 961 961 389
Width: 1256
GlyphClass: 1
Flags: W
LayerCount: 2
Fore
SplineSet
104 654 m 1,0,1
 147 817 147 817 279.5 943 c 128,-1,2
 412 1069 412 1069 639 1069 c 0,3,4
 867 1069 867 1069 1027.5 909 c 128,-1,5
 1188 749 1188 749 1188 520 c 0,6,7
 1188 294 1188 294 1027.5 133 c 128,-1,8
 867 -28 867 -28 639 -28 c 0,9,10
 412 -28 412 -28 251 133 c 0,11,12
 219 165 219 165 195 199 c 1,13,-1
 195 -375 l 1,14,-1
 104 -375 l 1,15,-1
 104 654 l 1,0,1
195 614 m 1,16,-1
 195 426 l 1,17,18
 219 297 219 297 318 200 c 0,19,20
 451 67 451 67 639 67 c 256,21,22
 827 67 827 67 960 199.5 c 128,-1,23
 1093 332 1093 332 1093 520 c 256,24,25
 1093 708 1093 708 960 841.5 c 128,-1,26
 827 975 827 975 639 975 c 256,27,28
 451 975 451 975 318 842 c 0,29,30
 219 743 219 743 195 614 c 1,16,-1
EndSplineSet
EndChar

StartChar: sigma1
Encoding: 962 962 390
Width: 1024
GlyphClass: 1
Flags: W
LayerCount: 2
Fore
SplineSet
275.5 141 m 128,-1,1
 113 258 113 258 113 456 c 0,2,3
 113 653 113 653 250 800 c 0,4,5
 399 965 399 965 729 985 c 1,6,-1
 945 984 l 1,7,-1
 945 895 l 1,8,-1
 779 895 l 1,9,10
 471 886 471 886 339 750 c 128,-1,11
 207 614 207 614 207 456 c 0,12,13
 207 296 207 296 341.5 207.5 c 128,-1,14
 476 119 476 119 703.5 67.5 c 128,-1,15
 931 16 931 16 931 -146 c 2,16,-1
 931 -169 l 1,17,18
 897 -327 897 -327 718 -344 c 1,19,-1
 718 -239 l 1,20,21
 834 -239 834 -239 841 -134 c 1,22,-1
 841 -128 l 2,23,24
 841 -56 841 -56 639.5 -16 c 128,-1,0
 438 24 438 24 275.5 141 c 128,-1,1
EndSplineSet
EndChar

StartChar: sigma
Encoding: 963 963 391
Width: 1355
GlyphClass: 1
Flags: W
LayerCount: 2
Fore
SplineSet
188 520 m 256,1,2
 188 332 188 332 321 200 c 128,-1,3
 454 68 454 68 642 68 c 256,4,5
 830 68 830 68 963 200 c 128,-1,6
 1096 332 1096 332 1096 520 c 256,7,8
 1096 708 1096 708 963 841.5 c 128,-1,9
 830 975 830 975 642 975 c 256,10,11
 454 975 454 975 321 841.5 c 128,-1,0
 188 708 188 708 188 520 c 256,1,2
1048 891 m 1,12,13
 1191 736 1191 736 1191 520 c 0,14,15
 1191 294 1191 294 1030.5 133 c 128,-1,16
 870 -28 870 -28 642 -28 c 0,17,18
 415 -28 415 -28 254 133 c 128,-1,19
 93 294 93 294 93 520 c 0,20,21
 93 749 93 749 254 909.5 c 128,-1,22
 415 1070 415 1070 642 1070 c 0,23,24
 812 1070 812 1070 943 982 c 1,25,-1
 1275 982 l 1,26,-1
 1275 891 l 1,27,-1
 1048 891 l 1,12,13
EndSplineSet
EndChar

StartChar: tau
Encoding: 964 964 392
Width: 1040
GlyphClass: 1
Flags: W
LayerCount: 2
Fore
SplineSet
564 891 m 1,0,-1
 564 0 l 1,1,-1
 475 0 l 1,2,-1
 475 891 l 1,3,-1
 70 891 l 1,4,-1
 70 982 l 1,5,-1
 970 982 l 1,6,-1
 970 891 l 1,7,-1
 564 891 l 1,0,-1
EndSplineSet
EndChar

StartChar: upsilon
Encoding: 965 965 393
Width: 1099
GlyphClass: 1
Flags: W
LayerCount: 2
Fore
SplineSet
555 -14 m 0,0,1
 371 -14 371 -14 262 95 c 128,-1,2
 153 204 153 204 150 370 c 2,3,-1
 150 982 l 1,4,-1
 240 982 l 1,5,-1
 240 378 l 2,6,7
 240 253 240 253 331 165 c 0,8,9
 421 76 421 76 554 76 c 0,10,11
 678 76 678 76 768.5 164.5 c 128,-1,12
 859 253 859 253 859 378 c 2,13,-1
 859 982 l 1,14,-1
 949 982 l 1,15,-1
 949 370 l 2,16,17
 946 204 946 204 837 95 c 256,18,19
 728 -14 728 -14 555 -14 c 0,0,1
EndSplineSet
EndChar

StartChar: phi
Encoding: 966 966 394
Width: 1280
GlyphClass: 1
Flags: W
LayerCount: 2
Fore
SplineSet
607 -17 m 1,0,1
 401 -6 401 -6 253 144 c 0,2,3
 91 304 91 304 91 531 c 0,4,5
 91 759 91 759 253 920 c 0,6,7
 306 974 306 974 334 991 c 1,8,-1
 368 895 l 1,9,10
 343 874 343 874 321 852 c 0,11,12
 187 718 187 718 187 531 c 0,13,14
 187 343 187 343 320 210 c 0,15,16
 449 80 449 80 592 80 c 2,17,-1
 600 80 l 1,18,-1
 600 921 l 1,19,20
 617 1027 617 1027 721 1027 c 0,21,22
 794 1027 794 1027 909 976 c 0,23,24
 1190 850 1190 850 1190 531 c 0,25,26
 1190 304 1190 304 1029 144 c 0,27,28
 889 2 889 2 697 -16 c 1,29,-1
 697 -369 l 1,30,-1
 607 -369 l 1,31,-1
 607 -17 l 1,0,1
691 98 m 1,32,33
 882 131 882 131 961 209 c 0,34,35
 1095 343 1095 343 1095 531 c 0,36,37
 1095 764 1095 764 898 877 c 0,38,39
 797 934 797 934 746 934 c 256,40,41
 695 934 695 934 692 879 c 2,42,-1
 691 98 l 1,32,33
EndSplineSet
EndChar

StartChar: chi
Encoding: 967 967 395
Width: 1095
GlyphClass: 1
Flags: W
LayerCount: 2
Fore
SplineSet
548 269 m 1,0,-1
 159 -369 l 1,1,-1
 57 -369 l 1,2,-1
 496 353 l 1,3,-1
 114 982 l 1,4,-1
 217 982 l 1,5,-1
 548 438 l 1,6,-1
 878 982 l 1,7,-1
 981 982 l 1,8,-1
 599 353 l 1,9,-1
 1038 -369 l 1,10,-1
 936 -369 l 1,11,-1
 548 269 l 1,0,-1
EndSplineSet
EndChar

StartChar: psi
Encoding: 968 968 396
Width: 1319
GlyphClass: 1
Flags: W
LayerCount: 2
Fore
SplineSet
708 -17 m 1,0,-1
 708 -358 l 1,1,-1
 611 -358 l 1,2,-1
 611 -17 l 1,3,4
 410 -4 410 -4 264 144 c 0,5,6
 102 304 102 304 102 531 c 2,7,-1
 102 983 l 1,8,-1
 198 983 l 1,9,-1
 198 531 l 2,10,11
 198 343 198 343 331 210 c 0,12,13
 460 80 460 80 603 80 c 2,14,-1
 611 80 l 1,15,-1
 611 983 l 1,16,-1
 708 983 l 1,17,-1
 708 80 l 1,18,-1
 716 80 l 2,19,20
 860 80 860 80 989 210 c 0,21,22
 1121 343 1121 343 1121 531 c 2,23,-1
 1121 983 l 1,24,-1
 1218 983 l 1,25,-1
 1218 531 l 2,26,27
 1218 304 1218 304 1056 144 c 0,28,29
 910 -4 910 -4 708 -17 c 1,0,-1
EndSplineSet
EndChar

StartChar: omega
Encoding: 969 969 397
Width: 1539
GlyphClass: 1
Flags: W
LayerCount: 2
Fore
SplineSet
732 223 m 1,0,-1
 725 223 l 1,1,-1
 725 752 l 1,2,-1
 814 752 l 1,3,-1
 814 223 l 1,4,-1
 805 223 l 1,5,6
 813 211 813 211 821 200 c 0,7,8
 827 192 827 192 834 185 c 0,9,10
 893 55 893 55 1046 55 c 0,11,12
 1200 55 1200 55 1282 174 c 128,-1,13
 1364 293 1364 293 1364 549 c 0,14,15
 1364 782 1364 782 1244 966 c 1,16,-1
 1244 982 l 1,17,-1
 1333 982 l 1,18,19
 1459 766 1459 766 1459 549 c 0,20,21
 1459 265 1459 265 1355.5 118.5 c 128,-1,22
 1252 -28 1252 -28 1059 -28 c 0,23,24
 868 -28 868 -28 770 131 c 1,25,26
 673 -28 673 -28 482 -28 c 0,27,28
 288 -28 288 -28 183.5 118.5 c 128,-1,29
 79 265 79 265 79 549 c 0,30,31
 79 769 79 769 214 982 c 1,32,-1
 304 982 l 1,33,-1
 304 973 l 1,34,35
 174 803 174 803 174 549 c 0,36,37
 174 293 174 293 256 174 c 128,-1,38
 338 55 338 55 492 55 c 256,39,40
 646 55 646 55 706 185 c 0,41,42
 712 193 712 193 717 201 c 0,43,44
 725 211 725 211 732 223 c 1,0,-1
EndSplineSet
EndChar

StartChar: afii10051
Encoding: 1026 1026 404
Width: 1637
GlyphClass: 1
Flags: W
LayerCount: 2
Fore
SplineSet
562 561 m 1,0,-1
 562 0 l 1,1,-1
 473 0 l 1,2,-1
 473 1509 l 1,3,-1
 68 1509 l 1,4,-1
 68 1600 l 1,5,-1
 968 1600 l 1,6,-1
 968 1509 l 1,7,-1
 562 1509 l 1,8,-1
 562 805 l 1,9,10
 590 842 590 842 625 874 c 0,11,12
 775 1013 775 1013 1008 1013 c 256,13,14
 1241 1013 1241 1013 1399 874 c 1,15,16
 1547 762 1547 762 1547 471 c 0,17,18
 1547 177 1547 177 1399 55 c 0,19,20
 1356 18 1356 18 1308 -10 c 1,21,-1
 1248 55 l 1,22,23
 1285 78 1285 78 1321 108 c 0,24,25
 1454 225 1454 225 1456 459 c 0,26,27
 1454 692 1454 692 1321 809 c 0,28,29
 1185 928 1185 928 998 928 c 0,30,31
 810 928 810 928 686 809 c 0,32,33
 573 701 573 701 562 561 c 1,0,-1
EndSplineSet
EndChar

StartChar: afii10053
Encoding: 1028 1028 406
Width: 1757
GlyphClass: 1
Flags: W
LayerCount: 2
Fore
SplineSet
1188 847 m 1,0,-1
 1188 757 l 1,1,-1
 203 757 l 1,2,3
 217 484 217 484 416 286 c 0,4,5
 629 72 629 72 930 72 c 0,6,7
 1232 72 1232 72 1446 286 c 0,8,9
 1561 400 1561 400 1614 541 c 1,10,-1
 1712 541 l 1,11,12
 1653 363 1653 363 1512 222 c 0,13,14
 1271 -19 1271 -19 930 -19 c 0,15,16
 591 -19 591 -19 350.5 221 c 128,-1,17
 110 461 110 461 110 802 c 0,18,19
 110 1142 110 1142 350.5 1382 c 128,-1,20
 591 1622 591 1622 930 1622 c 0,21,22
 1271 1622 1271 1622 1512 1383 c 0,23,24
 1582 1311 1582 1311 1631 1233 c 1,25,-1
 1520 1233 l 1,26,27
 1487 1276 1487 1276 1446 1317 c 0,28,29
 1232 1531 1232 1531 930 1531 c 0,30,31
 629 1531 629 1531 416 1317 c 0,32,33
 217 1119 217 1119 203 847 c 1,34,-1
 1188 847 l 1,0,-1
EndSplineSet
EndChar

StartChar: afii10058
Encoding: 1033 1033 411
Width: 2248
GlyphClass: 1
Flags: W
LayerCount: 2
Fore
SplineSet
1162 0 m 1,0,-1
 1162 1509 l 1,1,-1
 343 1509 l 1,2,-1
 343 283 l 2,3,4
 343 161 343 161 260.5 77.5 c 128,-1,5
 178 -6 178 -6 57 -6 c 1,6,-1
 57 85 l 1,7,8
 140 85 140 85 197 141 c 0,9,10
 253 197 253 197 253 294 c 2,11,-1
 253 1600 l 1,12,-1
 1253 1600 l 1,13,-1
 1253 843 l 1,14,-1
 1777 843 l 1,15,16
 1943 839 1943 839 2051.5 720 c 128,-1,17
 2160 601 2160 601 2160 428 c 0,18,19
 2160 243 2160 243 2051.5 123 c 128,-1,20
 1943 3 1943 3 1777 0 c 2,21,-1
 1162 0 l 1,0,-1
1253 752 m 1,22,-1
 1253 90 l 1,23,-1
 1769 90 l 2,24,25
 1893 90 1893 90 1982 191.5 c 128,-1,26
 2071 293 2071 293 2071 426 c 0,27,28
 2071 551 2071 551 1982 651.5 c 128,-1,29
 1893 752 1893 752 1769 752 c 2,30,-1
 1253 752 l 1,22,-1
EndSplineSet
EndChar

StartChar: afii10059
Encoding: 1034 1034 412
Width: 2110
GlyphClass: 1
Flags: W
LayerCount: 2
Fore
SplineSet
1023 0 m 1,0,-1
 1023 755 l 1,1,-1
 204 755 l 1,2,-1
 204 0 l 1,3,-1
 113 0 l 1,4,-1
 113 1600 l 1,5,-1
 204 1600 l 1,6,-1
 204 845 l 1,7,-1
 1023 845 l 1,8,-1
 1023 1600 l 1,9,-1
 1113 1600 l 1,10,-1
 1113 843 l 1,11,-1
 1647 843 l 1,12,13
 1814 839 1814 839 1922.5 720 c 128,-1,14
 2031 601 2031 601 2031 428 c 0,15,16
 2031 243 2031 243 1922.5 123 c 128,-1,17
 1814 3 1814 3 1647 0 c 2,18,-1
 1023 0 l 1,0,-1
1113 752 m 1,19,-1
 1113 90 l 1,20,-1
 1639 90 l 2,21,22
 1764 90 1764 90 1853 191.5 c 128,-1,23
 1942 293 1942 293 1942 426 c 0,24,25
 1942 551 1942 551 1853 651.5 c 128,-1,26
 1764 752 1764 752 1639 752 c 2,27,-1
 1113 752 l 1,19,-1
EndSplineSet
EndChar

StartChar: afii10060
Encoding: 1035 1035 413
Width: 1635
GlyphClass: 1
Flags: W
LayerCount: 2
Fore
SplineSet
553 561 m 1,0,-1
 553 0 l 1,1,-1
 464 0 l 1,2,-1
 464 1509 l 1,3,-1
 59 1509 l 1,4,-1
 59 1600 l 1,5,-1
 959 1600 l 1,6,-1
 959 1509 l 1,7,-1
 553 1509 l 1,8,-1
 553 805 l 1,9,10
 581 842 581 842 616 874 c 0,11,12
 766 1013 766 1013 999 1013 c 256,13,14
 1232 1013 1232 1013 1378 874 c 0,15,16
 1522 736 1522 736 1522 442 c 2,17,-1
 1522 0 l 1,18,-1
 1424 0 l 1,19,-1
 1425 451 l 2,20,21
 1425 690 1425 690 1300 815 c 0,22,23
 1181 933 1181 933 1005 933 c 2,24,-1
 989 933 l 1,25,26
 801 928 801 928 677 809 c 0,27,28
 565 701 565 701 553 561 c 1,0,-1
EndSplineSet
EndChar

StartChar: afii10145
Encoding: 1039 1039 416
Width: 1275
GlyphClass: 1
Flags: W
LayerCount: 2
Fore
SplineSet
589 1 m 1,0,-1
 102 1 l 1,1,-1
 102 1600 l 1,2,-1
 193 1600 l 1,3,-1
 193 91 l 1,4,-1
 1083 91 l 1,5,-1
 1083 1600 l 1,6,-1
 1174 1600 l 1,7,-1
 1174 0 l 1,8,-1
 678 0 l 1,9,-1
 678 -375 l 1,10,-1
 589 -375 l 1,11,-1
 589 1 l 1,0,-1
EndSplineSet
EndChar

StartChar: afii10018
Encoding: 1041 1041 418
Width: 1166
GlyphClass: 1
Flags: W
LayerCount: 2
Fore
SplineSet
119 845 m 1,0,-1
 119 1600 l 1,1,-1
 819 1600 l 1,2,-1
 819 1509 l 1,3,-1
 209 1509 l 1,4,-1
 209 845 l 1,5,-1
 726 845 l 2,6,7
 893 842 893 842 1001.5 722.5 c 128,-1,8
 1110 603 1110 603 1110 430 c 0,9,10
 1110 245 1110 245 1001.5 125 c 128,-1,11
 893 5 893 5 726 2 c 2,12,-1
 209 2 l 1,13,-1
 209 0 l 1,14,-1
 119 0 l 1,15,-1
 119 2 l 1,16,-1
 113 2 l 1,17,-1
 113 93 l 1,18,-1
 119 93 l 1,19,-1
 119 755 l 1,20,-1
 113 755 l 1,21,-1
 113 845 l 1,22,-1
 119 845 l 1,0,-1
209 755 m 1,23,-1
 209 93 l 1,24,-1
 718 93 l 2,25,26
 843 93 843 93 931.5 194 c 128,-1,27
 1020 295 1020 295 1020 429 c 0,28,29
 1020 553 1020 553 931.5 654 c 128,-1,30
 843 755 843 755 718 755 c 2,31,-1
 209 755 l 1,23,-1
EndSplineSet
EndChar

StartChar: afii10020
Encoding: 1043 1043 420
Width: 886
GlyphClass: 1
Flags: W
LayerCount: 2
Fore
SplineSet
827 1600 m 1,0,-1
 827 1509 l 1,1,-1
 218 1509 l 1,2,-1
 218 0 l 1,3,-1
 127 0 l 1,4,-1
 127 1600 l 1,5,-1
 827 1600 l 1,0,-1
EndSplineSet
EndChar

StartChar: afii10021
Encoding: 1044 1044 421
Width: 1323
GlyphClass: 1
Flags: W
LayerCount: 2
Fore
SplineSet
1041 98 m 1,0,-1
 1041 1509 l 1,1,-1
 463 1509 l 1,2,3
 496 1347 496 1347 496 1161 c 0,4,5
 496 480 496 480 140 98 c 1,6,-1
 1041 98 l 1,0,-1
1133 98 m 1,7,-1
 1221 98 l 1,8,-1
 1221 -375 l 1,9,-1
 1132 -375 l 1,10,-1
 1132 0 l 1,11,-1
 112 0 l 1,12,-1
 112 -375 l 1,13,-1
 23 -375 l 1,14,-1
 23 98 l 1,15,-1
 33 98 l 1,16,17
 405 526 405 526 405 1161 c 0,18,19
 405 1349 405 1349 348 1600 c 1,20,-1
 1132 1600 l 1,21,-1
 1133 98 l 1,7,-1
EndSplineSet
EndChar

